{
.appVersion = "3151";
.formatVersion = 3;
classes = (
{
automatic = 1;
code = "A Aacute Abreve Acircumflex Adieresis Agrave Amacron Aogonek Aring Aringacute Atilde AE AEacute B C Cacute Ccaron Ccedilla Ccircumflex Cdotaccent D Eth Dcaron Dcroat E Eacute Ebreve Ecaron Ecircumflex Edieresis Edotaccent Egrave Emacron Eogonek F G Gbreve Gcircumflex Gcommaaccent Gdotaccent H Hbar Hcircumflex I IJ Iacute Ibreve Icircumflex Idieresis Idotaccent Igrave Imacron Iogonek Itilde J Jcircumflex K Kcommaaccent L Lacute Lcaron Lcommaaccent Ldot Lslash M N Nacute Ncaron Ncommaaccent Ntilde Eng O Oacute Obreve Ocircumflex Odieresis Ograve Ohungarumlaut Omacron Oslash Oslashacute Otilde OE P Thorn Q R Racute Rcaron Rcommaaccent S Sacute Scaron Scedilla Scircumflex Scommaaccent T Tbar Tcaron Tcedilla Tcommaaccent U Uacute Ubreve Ucircumflex Udieresis Ugrave Uhungarumlaut Umacron Uogonek Uring Utilde V W Wacute Wcircumflex Wdieresis Wgrave X Y Yacute Ycircumflex Ydieresis Ygrave Z Zacute Zcaron Zdotaccent L.cat Delta Omega";
name = Uppercase;
}
);
customParameters = (
{
name = fsType;
value = (
);
},
{
name = "Use Typo Metrics";
value = 1;
}
);
date = "2023-02-08 10:18:05 +0000";
familyName = "Faster One";
featurePrefixes = (
{
automatic = 1;
code = "languagesystem DFLT dflt;

languagesystem latn dflt;
languagesystem latn ROM;
languagesystem latn MOL;
languagesystem latn CAT;
";
name = Languagesystems;
}
);
features = (
{
automatic = 1;
code = "feature locl;
feature sups;
feature frac;
feature ordn;
feature case;
feature salt;
";
tag = aalt;
},
{
automatic = 1;
code = "lookup ccmp_Other_1 {
	@Markscomb = [dieresis dotaccent grave acute hungarumlaut circumflex caron breve ring tilde macron];
	@MarkscombCase = [dieresis.case dotaccent.case grave.case acute.case hungarumlaut.case circumflex.case caron.case breve.case ring.case tilde.case macron.case];
	sub @Markscomb @Markscomb' by @MarkscombCase;
	sub @Uppercase @Markscomb' by @MarkscombCase;
} ccmp_Other_1;

lookup ccmp_Other_2 {

glyphs = (
{
glyphname = A;
lastChange = "2023-02-08 10:37:52 +0000";
layers = (
{
anchors = (
{
name = bottom;
pos = (426,0);
},
{
name = ogonek;
pos = (809,21);
},
{
name = top;
pos = (426,625);
}
);
background = {
shapes = (
{
closed = 1;
nodes = (
(431,99,l,{
name = hr01;
}),
(588,99,l),
(592,0,l,{
name = hr02;
}),
(793,0,l),
(749,625,l),
(455,625,l),
(192,0,l),
(392,0,l)
);
},
{
closed = 1;
nodes = (
(573,433,l,{
name = hr03;
}),
(573,258,l),
(493,258,l),
(563,433,l)
);
},
{
closed = 1;
nodes = (
(179,48,l),
(-250,48,l),
(160,4,l)
);
},
{
closed = 1;
nodes = (
(220,145,l,{
name = hr04;
}),
(-209,145,l),
(201,101,l)
);
},
{
closed = 1;
nodes = (
(260,241,l),
(-168,241,l),
(242,197,l)
);
},
{
closed = 1;
nodes = (
(301,337,l),
(-127,337,l),
(282,293,l)
);
},
{
closed = 1;
nodes = (
(341,433,l),
(-86,433,l),
(323,389,l)
);
},
{
closed = 1;
nodes = (
(422,625,l),
(-4,625,l),
(404,582,l)
);
},
{
closed = 1;
nodes = (
(381,529,l),
(-45,529,l),
(363,486,l)
);
},
{
closed = 1;
nodes = (
(422,625,l),
(-4,625,l),
(404,582,l)
);
}
);
};
layerId = master01;
shapes = (
{
closed = 1;
nodes = (
(392,0,l),
(431,99,l,{
name = hr01;
}),
(588,99,l),
(592,0,l,{
name = hr02;
}),
(793,0,l),
(749,625,l),
(455,625,l),
(192,0,l)
);
},
{
closed = 1;
nodes = (
(179,48,l),
(-250,48,l),
(160,4,l)
);
},
{
closed = 1;
nodes = (
(220,145,l,{
name = hr04;
}),
(-209,145,l),
(201,101,l)
);
},
{
closed = 1;
nodes = (
(260,241,l),
(-168,241,l),
(242,197,l)
);
},
{
closed = 1;
nodes = (
(301,337,l),
(-127,337,l),
(282,293,l)
);
},
{
closed = 1;
nodes = (
(341,433,l),
(-86,433,l),
(323,389,l)
);
},
{
closed = 1;
nodes = (
(381,529,l),
(-45,529,l),
(363,486,l)
);
},
{
closed = 1;
nodes = (
(422,625,l),
(-4,625,l),
(404,582,l)
);
},
{
closed = 1;
nodes = (
(563,433,l),
(573,433,l,{
name = hr03;
}),
(573,258,l),
(493,258,l)
);
}
);
width = 851;
}
);
unicode = 65;
},
{
glyphname = Aacute;
lastChange = "2023-02-08 10:34:42 +0000";
layers = (
{
background = {
shapes = (
{
closed = 1;
nodes = (
(431,99,l,{
name = hr02;
}),
(588,99,l),
(592,0,l,{
name = hr03;
}),
(793,0,l),
(749,625,l),
(455,625,l),
(192,0,l),
(392,0,l,{
name = hr01;
})
);
},
{
closed = 1;
nodes = (
(573,433,l,{
name = hr04;
}),
(573,258,l),
(493,258,l),
(563,433,l)
);
},
{
closed = 1;
nodes = (
(179,48,l),
(-250,48,l),
(160,4,l)
);
},
{
closed = 1;
nodes = (
(220,145,l,{
name = hr05;
}),
(-209,145,l),
(201,101,l)
);
},
{
closed = 1;
nodes = (
(260,241,l),
(-168,241,l),
(242,197,l)
);
},
{
closed = 1;
nodes = (
(301,337,l),
(-127,337,l),
(282,293,l)
);
},
{
closed = 1;
nodes = (
(341,433,l),
(-86,433,l),
(323,389,l)
);
},
{
closed = 1;
nodes = (
(422,625,l),
(-4,625,l),
(404,582,l)
);
},
{
closed = 1;
nodes = (
(381,529,l),
(-45,529,l),
(363,486,l)
);
},
{
closed = 1;
nodes = (
(422,625,l),
(-4,625,l),
(404,582,l)
);
},
{
closed = 1;
nodes = (
(722,717,o),
(726,720,o),
(733,726,cs),
(777,764,o),
(778,765,o),
(778,765,c),
(780,768,o),
(782,771,o),
(782,776,cs),
(782,781,o),
(779,787,o),
(773,794,cs),
(710,868,ls),
(705,874,o),
(699,879,o),
(692,879,cs),
(688,879,o),
(684,877,o),
(681,875,cs),
(492,736,l),
(533,679,l),
(707,714,ls,{
name = hr06;
})
);
},
{
closed = 1;
nodes = (
(572,833,l),
(159,833,l),
(519,794,l)
);
},
{
closed = 1;
nodes = (
(461,752,l),
(48,752,l),
(408,713,l)
);
}
);
};
layerId = master01;
shapes = (
{
ref = A;
},
{
pos = (463,0);
ref = acutecomb.case;
}
);
width = 851;
}
);
unicode = 193;
},
{
glyphname = Abreve;
lastChange = "2023-02-08 10:34:42 +0000";
layers = (
{
background = {
shapes = (
{
closed = 1;
nodes = (
(431,99,l,{
name = hr01;
}),
(588,99,l),
(592,0,l,{
name = hr02;
}),
(793,0,l),
(749,625,l),
(455,625,l),
(192,0,l),
(392,0,l)
);
},
{
closed = 1;
nodes = (
(573,433,l,{
name = hr03;
}),
(573,258,l),
(493,258,l),
(563,433,l)
);
},
{
closed = 1;
nodes = (
(179,48,l),
(-250,48,l),
(160,4,l)
);
},
{
closed = 1;
nodes = (
(220,145,l,{
name = hr04;
}),
(-209,145,l),
(201,101,l)
);
},
{
closed = 1;
nodes = (
(260,241,l),
(-168,241,l),
(242,197,l)
);
},
{
closed = 1;
nodes = (
(301,337,l),
(-127,337,l),
(282,293,l)
);
},
{
closed = 1;
nodes = (
(341,433,l),
(-86,433,l),
(323,389,l)
);
},
{
closed = 1;
nodes = (
(422,625,l),
(-4,625,l),
(404,582,l)
);
},
{
closed = 1;
nodes = (
(381,529,l),
(-45,529,l),
(363,486,l)
);
},
{
closed = 1;
nodes = (
(422,625,l),
(-4,625,l),
(404,582,l)
);
},
{
closed = 1;
nodes = (
(472,724,o),
(464,737,o),
(455,752,c),
(86,752,l),
(484,713,l,{
name = hr00;
})
);
},
{
closed = 1;
nodes = (
(58,833,l),
(444,795,l),
(441,807,o),
(438,819,o),
(436,833,c)
);
},
{
closed = 1;
nodes = (
(467,829,l),
(471,736,o),
(533,690,o),
(604,690,cs),
(676,690,o),
(755,736,o),
(792,829,c),
(694,844,l),
(679,808,o),
(649,789,o),
(622,789,cs),
(596,789,o),
(572,808,o),
(571,844,c)
);
}
);
};
layerId = master01;
shapes = (
{
ref = A;
},
{
pos = (428,0);
ref = brevecomb.case;
}
);
width = 851;
}
);
unicode = 258;
},
{
glyphname = Acircumflex;
lastChange = "2023-02-08 10:34:42 +0000";
layers = (
{
background = {
shapes = (
{
closed = 1;
nodes = (
(431,99,l,{
name = hr01;
}),
(588,99,l),
(592,0,l,{
name = hr02;
}),
(793,0,l),
(749,625,l),
(455,625,l),
(192,0,l),
(392,0,l)
);
},
{
closed = 1;
nodes = (
(573,433,l,{
name = hr03;
}),
(573,258,l),
(493,258,l),
(563,433,l)
);
},
{
closed = 1;
nodes = (
(179,48,l),
(-250,48,l),
(160,4,l)
);
},
{
closed = 1;
nodes = (
(220,145,l,{
name = hr04;
}),
(-209,145,l),
(201,101,l)
);
},
{
closed = 1;
nodes = (
(260,241,l),
(-168,241,l),
(242,197,l)
);
},
{
closed = 1;
nodes = (
(301,337,l),
(-127,337,l),
(282,293,l)
);
},
{
closed = 1;
nodes = (
(341,433,l),
(-86,433,l),
(323,389,l)
);
},
{
closed = 1;
nodes = (
(422,625,l),
(-4,625,l),
(404,582,l)
);
},
{
closed = 1;
nodes = (
(381,529,l),
(-45,529,l),
(363,486,l)
);
},
{
closed = 1;
nodes = (
(422,625,l),
(-4,625,l),
(404,582,l)
);
},
{
closed = 1;
nodes = (
(614,880,o),
(608,877,o),
(603,871,cs),
(471,726,l),
(519,677,l),
(618,740,l),
(696,677,l),
(762,726,l),
(679,871,ls),
(676,876,o),
(673,880,o),
(666,880,cs),
(621,880,ls,{
name = hr05;
})
);
},
{
closed = 1;
nodes = (
(527,833,l),
(169,833,l),
(492,794,l)
);
},
{
closed = 1;
nodes = (
(454,752,l),
(88,752,l),
(418,713,l)
);
}
);
};
layerId = master01;
shapes = (
{
ref = A;
},
{
pos = (432,0);
ref = circumflexcomb.case;
}
);
width = 851;
}
);
unicode = 194;
},
{
glyphname = Adieresis;
lastChange = "2023-02-08 10:47:00 +0000";
layers = (
{
background = {
shapes = (
{
closed = 1;
nodes = (
(431,99,l,{
name = hr01;
}),
(588,99,l),
(592,0,l,{
name = hr02;
}),
(793,0,l),
(749,625,l),
(455,625,l),
(192,0,l),
(392,0,l)
);
},
{
closed = 1;
nodes = (
(573,433,l,{
name = hr03;
}),
(573,258,l),
(493,258,l),
(563,433,l)
);
},
{
closed = 1;
nodes = (
(179,48,l),
(-250,48,l),
(160,4,l)
);
},
{
closed = 1;
nodes = (
(220,145,l,{
name = hr04;
}),
(-209,145,l),
(201,101,l)
);
},
{
closed = 1;
nodes = (
(260,241,l),
(-168,241,l),
(242,197,l)
);
},
{
closed = 1;
nodes = (
(301,337,l),
(-127,337,l),
(282,293,l)
);
},
{
closed = 1;
nodes = (
(341,433,l),
(-86,433,l),
(323,389,l)
);
},
{
closed = 1;
nodes = (
(422,625,l),
(-4,625,l),
(404,582,l)
);
},
{
closed = 1;
nodes = (
(381,529,l),
(-45,529,l),
(363,486,l)
);
},
{
closed = 1;
nodes = (
(422,625,l),
(-4,625,l),
(404,582,l)
);
},
{
closed = 1;
nodes = (
(661,848,o),
(636,819,o),
(636,740,cs),
(636,706,o),
(652,692,o),
(700,692,cs),
(766,692,o),
(791,721,o),
(791,800,cs),
(791,834,o),
(775,848,o),
(727,848,cs,{
name = hr05;
})
);
},
{
closed = 1;
nodes = (
(453,848,o),
(428,819,o),
(428,740,cs),
(428,706,o),
(444,692,o),
(492,692,cs),
(557,692,o),
(583,721,o),
(583,800,cs),
(583,834,o),
(566,848,o),
(519,848,cs)
);
},
{
closed = 1;
nodes = (
(99,833,l),
(401,787,l),
(404,805,o),
(408,820,o),
(415,833,c,{
name = hr06;
})
);
},
{
closed = 1;
nodes = (
(398,754,l,{
name = hr07;
}),
(99,754,l),
(401,708,l),
(399,717,o),
(398,728,o),
(398,740,c)
);
}
);
};
layerId = master01;
shapes = (
{
ref = A;
},
{
pos = (385,0);
ref = dieresiscomb.case;
}
);
width = 851;
}
);
unicode = 196;
},
{
glyphname = Agrave;
lastChange = "2023-02-08 10:34:42 +0000";
layers = (
{
background = {
shapes = (
{
closed = 1;
nodes = (
(431,99,l,{
name = hr01;
}),
(588,99,l),
(592,0,l,{
name = hr02;
}),
(793,0,l),
(749,625,l),
(455,625,l),
(192,0,l),
(392,0,l)
);
},
{
closed = 1;
nodes = (
(573,433,l,{
name = hr03;
}),
(573,258,l),
(493,258,l),
(563,433,l)
);
},
{
closed = 1;
nodes = (
(179,48,l),
(-250,48,l),
(160,4,l)
);
},
{
closed = 1;
nodes = (
(220,145,l,{
name = hr04;
}),
(-209,145,l),
(201,101,l)
);
},
{
closed = 1;
nodes = (
(260,241,l),
(-168,241,l),
(242,197,l)
);
},
{
closed = 1;
nodes = (
(301,337,l),
(-127,337,l),
(282,293,l)
);
},
{
closed = 1;
nodes = (
(341,433,l),
(-86,433,l),
(323,389,l)
);
},
{
closed = 1;
nodes = (
(422,625,l),
(-4,625,l),
(404,582,l)
);
},
{
closed = 1;
nodes = (
(381,529,l),
(-45,529,l),
(363,486,l)
);
},
{
closed = 1;
nodes = (
(422,625,l),
(-4,625,l),
(404,582,l)
);
},
{
closed = 1;
nodes = (
(771,736,l),
(582,875,ls),
(579,877,o),
(575,879,o),
(571,879,cs),
(564,879,o),
(558,874,o),
(553,868,cs),
(490,794,ls),
(485,788,o),
(481,781,o),
(481,775,cs),
(481,772,o),
(482,768,o),
(485,765,cs),
(530,726,ls),
(537,720,o),
(541,717,o),
(556,714,cs),
(730,679,l,{
name = hr05;
})
);
},
{
closed = 1;
nodes = (
(462,810,o),
(474,820,o),
(484,833,c),
(60,833,l),
(455,794,l)
);
},
{
closed = 1;
nodes = (
(471,736,o),
(463,743,o),
(457,752,c),
(90,752,l),
(498,713,l)
);
}
);
};
layerId = master01;
shapes = (
{
ref = A;
},
{
pos = (502,0);
ref = gravecomb.case;
}
);
width = 851;
}
);
unicode = 192;
},
{
glyphname = Amacron;
lastChange = "2023-02-08 10:34:42 +0000";
layers = (
{
background = {
shapes = (
{
closed = 1;
nodes = (
(431,99,l,{
name = hr01;
}),
(588,99,l),
(592,0,l,{
name = hr02;
}),
(793,0,l),
(749,625,l),
(455,625,l),
(192,0,l),
(392,0,l)
);
},
{
closed = 1;
nodes = (
(573,433,l,{
name = hr03;
}),
(573,258,l),
(493,258,l),
(563,433,l)
);
},
{
closed = 1;
nodes = (
(179,48,l),
(-250,48,l),
(160,4,l)
);
},
{
closed = 1;
nodes = (
(220,145,l,{
name = hr04;
}),
(-209,145,l),
(201,101,l)
);
},
{
closed = 1;
nodes = (
(260,241,l),
(-168,241,l),
(242,197,l)
);
},
{
closed = 1;
nodes = (
(301,337,l),
(-127,337,l),
(282,293,l)
);
},
{
closed = 1;
nodes = (
(341,433,l),
(-86,433,l),
(323,389,l)
);
},
{
closed = 1;
nodes = (
(422,625,l),
(-4,625,l),
(404,582,l)
);
},
{
closed = 1;
nodes = (
(381,529,l),
(-45,529,l),
(363,486,l)
);
},
{
closed = 1;
nodes = (
(422,625,l),
(-4,625,l),
(404,582,l)
);
},
{
closed = 1;
nodes = (
(761,770,ls),
(763,784,o),
(765,796,o),
(765,804,cs),
(765,826,o),
(755,833,o),
(722,833,cs),
(487,833,l),
(476,770,ls),
(473,756,o),
(472,745,o),
(472,737,cs),
(472,714,o),
(483,706,o),
(516,706,cs),
(750,706,l,{
name = hr00;
})
);
},
{
closed = 1;
nodes = (
(456,833,l),
(89,833,l),
(449,794,l)
);
},
{
closed = 1;
nodes = (
(443,719,o),
(442,729,o),
(442,738,cs),
(442,743,o),
(442,748,o),
(443,752,c),
(85,752,l),
(445,711,l)
);
}
);
};
layerId = master01;
shapes = (
{
ref = A;
},
{
pos = (416,0);
ref = macroncomb.case;
}
);
width = 851;
}
);
unicode = 256;
},
{
glyphname = Aogonek;
lastChange = "2023-02-08 10:35:52 +0000";
layers = (
{
background = {
shapes = (
{
closed = 1;
nodes = (
(431,99,l,{
name = hr01;
}),
(588,99,l),
(592,0,l,{
name = hr02;
}),
(793,0,l),
(749,625,l),
(455,625,l),
(192,0,l),
(392,0,l)
);
},
{
closed = 1;
nodes = (
(573,433,l,{
name = hr03;
}),
(573,258,l),
(493,258,l),
(563,433,l)
);
},
{
closed = 1;
nodes = (
(179,48,l),
(-250,48,l),
(160,4,l)
);
},
{
closed = 1;
nodes = (
(220,145,l,{
name = hr04;
}),
(-209,145,l),
(201,101,l)
);
},
{
closed = 1;
nodes = (
(260,241,l),
(-168,241,l),
(242,197,l)
);
},
{
closed = 1;
nodes = (
(301,337,l),
(-127,337,l),
(282,293,l)
);
},
{
closed = 1;
nodes = (
(341,433,l),
(-86,433,l),
(323,389,l)
);
},
{
closed = 1;
nodes = (
(422,625,l),
(-4,625,l),
(404,582,l)
);
},
{
closed = 1;
nodes = (
(381,529,l),
(-45,529,l),
(363,486,l)
);
},
{
closed = 1;
nodes = (
(422,625,l),
(-4,625,l),
(404,582,l)
);
},
{
closed = 1;
nodes = (
(702,21,l),
(643,-6,o),
(608,-50,o),
(608,-96,cs),
(608,-134,o),
(636,-165,o),
(701,-165,cs),
(728,-165,o),
(768,-160,o),
(804,-146,c),
(809,-58,l,{
name = hr01;
}),
(762,-58,ls),
(742,-58,o),
(735,-56,o),
(735,-42,cs),
(735,-38,o),
(736,-33,o),
(737,-26,c,{
name = hr02;
}),
(793,0,l),
(778,21,l)
);
},
{
closed = 1;
nodes = (
(578,-78,o),
(581,-68,o),
(584,-58,c,{
name = hr03;
}),
(396,-58,l),
(578,-89,l)
);
},
{
closed = 1;
nodes = (
(593,-152,o),
(587,-141,o),
(583,-130,c),
(428,-130,l),
(602,-161,l)
);
}
);
};
layerId = master01;
shapes = (
{
ref = A;
},
{
pos = (467,0);
ref = ogonekcomb;
}
);
width = 851;
}
);
unicode = 260;
},
{
glyphname = Aring;
lastChange = "2023-02-08 10:37:18 +0000";
layers = (
{
background = {
shapes = (
{
closed = 1;
nodes = (
(431,99,l,{
name = hr01;
}),
(588,99,l),
(592,0,l,{
name = hr02;
}),
(793,0,l),
(749,625,l),
(455,625,l),
(192,0,l),
(392,0,l)
);
},
{
closed = 1;
nodes = (
(573,433,l,{
name = hr03;
}),
(573,258,l),
(493,258,l),
(563,433,l)
);
},
{
closed = 1;
nodes = (
(179,48,l),
(-250,48,l),
(160,4,l)
);
},
{
closed = 1;
nodes = (
(220,145,l,{
name = hr04;
}),
(-209,145,l),
(201,101,l)
);
},
{
closed = 1;
nodes = (
(260,241,l),
(-168,241,l),
(242,197,l)
);
},
{
closed = 1;
nodes = (
(301,337,l),
(-127,337,l),
(282,293,l)
);
},
{
closed = 1;
nodes = (
(341,433,l),
(-86,433,l),
(323,389,l)
);
},
{
closed = 1;
nodes = (
(422,625,l),
(-4,625,l),
(404,582,l)
);
},
{
closed = 1;
nodes = (
(381,529,l),
(-45,529,l),
(363,486,l)
);
},
{
closed = 1;
nodes = (
(422,625,l),
(-4,625,l),
(404,582,l)
);
},
{
closed = 1;
nodes = (
(592,828,o),
(610,829,o),
(635,829,cs),
(672,829,l),
(660,762,ls),
(655,737,o),
(640,736,o),
(616,736,cs),
(576,736,l),
(588,804,ls,{
name = hr05;
})
);
},
{
closed = 1;
nodes = (
(560,898,o),
(511,847,o),
(511,747,cs),
(511,694,o),
(538,667,o),
(604,667,cs),
(689,667,o),
(738,718,o),
(738,818,cs),
(738,871,o),
(711,898,o),
(645,898,cs)
);
},
{
closed = 1;
nodes = (
(486,803,o),
(490,819,o),
(494,833,c,{
name = hr06;
}),
(186,833,l),
(484,787,l)
);
},
{
closed = 1;
nodes = (
(481,754,l,{
name = hr07;
}),
(188,754,l),
(486,708,l),
(483,719,o),
(481,732,o),
(481,747,c)
);
}
);
};
layerId = master01;
shapes = (
{
ref = A;
},
{
pos = (486,0);
ref = ringcomb.case;
}
);
width = 851;
}
);
unicode = 197;
},
{
glyphname = Aringacute;
lastChange = "2023-02-08 10:37:52 +0000";
layers = (
{
background = {
shapes = (
{
closed = 1;
nodes = (
(431,99,l,{
name = hr01;
}),
(588,99,l),
(592,0,l,{
name = hr02;
}),
(793,0,l),
(749,625,l),
(455,625,l),
(192,0,l),
(392,0,l)
);
},
{
closed = 1;
nodes = (
(573,433,l,{
name = hr03;
}),
(573,258,l),
(493,258,l),
(563,433,l)
);
},
{
closed = 1;
nodes = (
(179,48,l),
(-250,48,l),
(160,4,l)
);
},
{
closed = 1;
nodes = (
(220,145,l,{
name = hr04;
}),
(-209,145,l),
(201,101,l)
);
},
{
closed = 1;
nodes = (
(260,241,l),
(-168,241,l),
(242,197,l)
);
},
{
closed = 1;
nodes = (
(301,337,l),
(-127,337,l),
(282,293,l)
);
},
{
closed = 1;
nodes = (
(341,433,l),
(-86,433,l),
(323,389,l)
);
},
{
closed = 1;
nodes = (
(422,625,l),
(-4,625,l),
(404,582,l)
);
},
{
closed = 1;
nodes = (
(381,529,l),
(-45,529,l),
(363,486,l)
);
},
{
closed = 1;
nodes = (
(422,625,l),
(-4,625,l),
(404,582,l)
);
},
{
closed = 1;
nodes = (
(592,828,o),
(610,829,o),
(635,829,cs),
(672,829,l),
(660,762,ls),
(655,737,o),
(640,736,o),
(616,736,cs),
(576,736,l),
(588,804,ls)
);
},
{
closed = 1;
nodes = (
(486,803,o),
(490,819,o),
(494,833,c,{
name = hr01;
}),
(186,833,l),
(484,787,l)
);
},
{
closed = 1;
nodes = (
(481,754,l,{
name = hr02;
}),
(188,754,l),
(486,708,l),
(483,719,o),
(481,732,o),
(481,747,c)
);
},
{
closed = 1;
nodes = (
(648,976,l),
(235,976,l),
(595,937,l)
);
},
{
closed = 1;
nodes = (
(523,881,o),
(537,893,o),
(554,905,c),
(141,905,l),
(508,865,l)
);
},
{
closed = 1;
nodes = (
(770,864,o),
(779,869,o),
(785,875,cs),
(809,896,ls),
(815,902,o),
(816,906,o),
(816,910,cs),
(816,914,o),
(813,919,o),
(808,925,cs),
(754,989,ls),
(749,995,o),
(744,999,o),
(738,999,cs),
(735,999,o),
(731,997,o),
(729,996,cs),
(576,883,ls),
(538,855,o),
(511,815,o),
(511,747,cs),
(511,694,o),
(538,667,o),
(604,667,cs),
(689,667,o),
(738,718,o),
(738,818,cs),
(738,836,o),
(734,852,o),
(727,864,c),
(757,864,ls,{
name = hr03;
})
);
}
);
};
layerId = master01;
shapes = (
{
closed = 1;
nodes = (
(689,667,o),
(738,718,o),
(738,818,cs),
(738,836,o),
(734,852,o),
(727,864,c),
(757,864,ls,{
name = hr03;
}),
(770,864,o),
(779,869,o),
(785,875,cs),
(809,896,ls),
(815,902,o),
(816,906,o),
(816,910,cs),
(816,914,o),
(813,919,o),
(808,925,cs),
(754,989,ls),
(749,995,o),
(744,999,o),
(738,999,cs),
(735,999,o),
(731,997,o),
(729,996,cs),
(576,883,ls),
(538,855,o),
(511,815,o),
(511,747,cs),
(511,694,o),
(538,667,o),
(604,667,cs)
);
},
{
ref = A;
},
{
closed = 1;
nodes = (
(483,719,o),
(481,732,o),
(481,747,c),
(481,754,l,{
name = hr02;
}),
(188,754,l),
(486,708,l)
);
},
{
closed = 1;
nodes = (
(486,803,o),
(490,819,o),
(494,833,c,{
name = hr01;
}),
(186,833,l),
(484,787,l)
);
},
{
closed = 1;
nodes = (
(523,881,o),
(537,893,o),
(554,905,c),
(141,905,l),
(508,865,l)
);
},
{
closed = 1;
nodes = (
(648,976,l),
(235,976,l),
(595,937,l)
);
},
{
closed = 1;
nodes = (
(588,804,ls),
(592,828,o),
(610,829,o),
(635,829,cs),
(672,829,l),
(660,762,ls),
(655,737,o),
(640,736,o),
(616,736,cs),
(576,736,l)
);
}
);
width = 851;
}
);
unicode = 506;
},
{
glyphname = Atilde;
lastChange = "2023-02-08 10:37:31 +0000";
layers = (
{
background = {
shapes = (
{
closed = 1;
nodes = (
(431,99,l,{
name = hr01;
}),
(588,99,l),
(592,0,l,{
name = hr02;
}),
(793,0,l),
(749,625,l),
(455,625,l),
(192,0,l),
(392,0,l)
);
},
{
closed = 1;
nodes = (
(573,433,l,{
name = hr03;
}),
(573,258,l),
(493,258,l),
(563,433,l)
);
},
{
closed = 1;
nodes = (
(179,48,l),
(-250,48,l),
(160,4,l)
);
},
{
closed = 1;
nodes = (
(220,145,l,{
name = hr04;
}),
(-209,145,l),
(201,101,l)
);
},
{
closed = 1;
nodes = (
(260,241,l),
(-168,241,l),
(242,197,l)
);
},
{
closed = 1;
nodes = (
(301,337,l),
(-127,337,l),
(282,293,l)
);
},
{
closed = 1;
nodes = (
(341,433,l),
(-86,433,l),
(323,389,l)
);
},
{
closed = 1;
nodes = (
(422,625,l),
(-4,625,l),
(404,582,l)
);
},
{
closed = 1;
nodes = (
(381,529,l),
(-45,529,l),
(363,486,l)
);
},
{
closed = 1;
nodes = (
(422,625,l),
(-4,625,l),
(404,582,l)
);
},
{
closed = 1;
nodes = (
(654,839,o),
(637,861,o),
(605,861,cs),
(573,861,o),
(567,854,o),
(431,769,c),
(465,688,l),
(550,728,l),
(576,705,o),
(593,683,o),
(625,683,cs),
(657,683,o),
(663,690,o),
(799,775,c),
(766,856,l),
(680,816,l,{
name = hr05;
})
);
},
{
closed = 1;
nodes = (
(111,833,l),
(405,787,l),
(477,833,l)
);
},
{
closed = 1;
nodes = (
(111,754,l),
(424,708,l),
(405,754,l)
);
}
);
};
layerId = master01;
shapes = (
{
ref = A;
},
{
pos = (370,0);
ref = tildecomb.case;
}
);
width = 851;
}
);
unicode = 195;
},
{
glyphname = AE;
lastChange = "2023-02-08 10:37:52 +0000";
layers = (
{
anchors = (
{
name = bottom;
pos = (505,0);
},
{
name = top;
pos = (505,625);
}
);
background = {
shapes = (
{
closed = 1;
nodes = (
(431,99,l,{
name = hr01;
}),
(588,99,l),
(592,0,l,{
name = hr02;
}),
(954,0,l),
(982,160,l,{
name = hr03;
}),
(782,160,l),
(776,236,l),
(909,236,l),
(935,381,l),
(766,381,l),
(760,465,l),
(964,465,l),
(1016,625,l),
(455,625,l),
(192,0,l),
(392,0,l)
);
},
{
closed = 1;
nodes = (
(179,48,l),
(-250,48,l),
(160,4,l)
);
},
{
closed = 1;
nodes = (
(220,145,l),
(-209,145,l),
(201,101,l)
);
},
{
closed = 1;
nodes = (
(260,241,l),
(-168,241,l),
(242,197,l)
);
},
{
closed = 1;
nodes = (
(301,337,l),
(-127,337,l),
(282,293,l)
);
},
{
closed = 1;
nodes = (
(341,433,l),
(-86,433,l),
(323,389,l)
);
},
{
closed = 1;
nodes = (
(422,625,l),
(-4,625,l),
(404,582,l)
);
},
{
closed = 1;
nodes = (
(381,529,l),
(-45,529,l),
(363,486,l)
);
},
{
closed = 1;
nodes = (
(573,433,l),
(573,258,l,{
name = hr04;
}),
(493,258,l),
(563,433,l)
);
}
);
};
layerId = master01;
shapes = (
{
closed = 1;
nodes = (
(392,0,l),
(431,99,l,{
name = hr01;
}),
(588,99,l),
(592,0,l,{
name = hr02;
}),
(954,0,l),
(982,160,l,{
name = hr03;
}),
(782,160,l),
(776,236,l),
(909,236,l),
(935,381,l),
(766,381,l),
(760,465,l),
(964,465,l),
(1016,625,l),
(455,625,l),
(192,0,l)
);
},
{
closed = 1;
nodes = (
(179,48,l),
(-250,48,l),
(160,4,l)
);
},
{
closed = 1;
nodes = (
(220,145,l),
(-209,145,l),
(201,101,l)
);
},
{
closed = 1;
nodes = (
(260,241,l),
(-168,241,l),
(242,197,l)
);
},
{
closed = 1;
nodes = (
(301,337,l),
(-127,337,l),
(282,293,l)
);
},
{
closed = 1;
nodes = (
(341,433,l),
(-86,433,l),
(323,389,l)
);
},
{
closed = 1;
nodes = (
(381,529,l),
(-45,529,l),
(363,486,l)
);
},
{
closed = 1;
nodes = (
(422,625,l),
(-4,625,l),
(404,582,l)
);
},
{
closed = 1;
nodes = (
(563,433,l),
(573,433,l),
(573,258,l,{
name = hr04;
}),
(493,258,l)
);
}
);
width = 1010;
}
);
unicode = 198;
},
{
glyphname = AEacute;
lastChange = "2023-02-08 10:34:42 +0000";
layers = (
{
background = {
shapes = (
{
closed = 1;
nodes = (
(431,99,l,{
name = hr01;
}),
(588,99,l),
(592,0,l,{
name = hr02;
}),
(954,0,l),
(982,160,l,{
name = hr03;
}),
(782,160,l),
(776,236,l),
(909,236,l),
(935,381,l),
(766,381,l),
(760,465,l),
(964,465,l),
(1016,625,l),
(455,625,l),
(192,0,l),
(392,0,l)
);
},
{
closed = 1;
nodes = (
(179,48,l),
(-250,48,l),
(160,4,l)
);
},
{
closed = 1;
nodes = (
(220,145,l),
(-209,145,l),
(201,101,l)
);
},
{
closed = 1;
nodes = (
(260,241,l),
(-168,241,l),
(242,197,l)
);
},
{
closed = 1;
nodes = (
(301,337,l),
(-127,337,l),
(282,293,l)
);
},
{
closed = 1;
nodes = (
(341,433,l),
(-86,433,l),
(323,389,l)
);
},
{
closed = 1;
nodes = (
(422,625,l),
(-4,625,l),
(404,582,l)
);
},
{
closed = 1;
nodes = (
(381,529,l),
(-45,529,l),
(363,486,l)
);
},
{
closed = 1;
nodes = (
(573,433,l),
(573,258,l,{
name = hr04;
}),
(493,258,l),
(563,433,l)
);
},
{
closed = 1;
nodes = (
(812,717,o),
(816,720,o),
(823,726,cs),
(867,764,o),
(868,765,o),
(868,765,c),
(870,768,o),
(872,771,o),
(872,776,cs),
(872,781,o),
(869,787,o),
(863,794,cs),
(800,868,ls),
(795,874,o),
(789,879,o),
(782,879,cs),
(778,879,o),
(774,877,o),
(771,875,cs),
(582,736,l),
(623,679,l),
(797,714,ls,{
name = hr00;
})
);
},
{
closed = 1;
nodes = (
(662,833,l),
(249,833,l),
(609,794,l)
);
},
{
closed = 1;
nodes = (
(551,752,l),
(138,752,l),
(498,713,l)
);
}
);
};
layerId = master01;
shapes = (
{
ref = AE;
},
{
pos = (542,0);
ref = acutecomb.case;
}
);
width = 1010;
}
);
unicode = 508;
},
{
glyphname = B;
lastChange = "2023-02-08 10:37:52 +0000";
layers = (
{
anchors = (
{
name = bottom;
pos = (387,0);
},
{
name = center;
pos = (387,313);
},
{
name = top;
pos = (387,625);
}
);
background = {
shapes = (
{
closed = 1;
nodes = (
(546,0,ls),
(671,0,o),
(733,99,o),
(733,212,cs),
(733,273,o),
(708,319,o),
(643,331,c),
(644,337,l),
(703,352,o),
(759,416,o),
(759,523,cs,{
name = hr01;
}),
(759,592,o),
(719,625,o),
(622,625,cs),
(314,625,l),
(204,0,l)
);
},
{
closed = 1;
nodes = (
(536,249,o),
(544,236,o),
(544,217,cs,{
name = hr02;
}),
(544,180,o),
(529,147,o),
(493,147,cs),
(419,147,l),
(437,249,l),
(512,249,ls)
);
},
{
closed = 1;
nodes = (
(561,488,o),
(568,477,o),
(568,460,cs,{
name = hr03;
}),
(568,427,o),
(556,395,o),
(522,395,cs),
(463,395,l),
(480,488,l),
(540,488,ls)
);
},
{
closed = 1;
nodes = (
(182,48,l),
(-250,48,l),
(174,3,l)
);
},
{
closed = 1;
nodes = (
(216,241,l),
(-216,241,l),
(208,196,l)
);
},
{
closed = 1;
nodes = (
(233,337,l),
(-199,337,l),
(225,292,l)
);
},
{
closed = 1;
nodes = (
(250,433,l),
(-182,433,l),
(242,388,l)
);
},
{
closed = 1;
nodes = (
(266,529,l),
(-165,529,l),
(259,484,l)
);
},
{
closed = 1;
nodes = (
(199,145,l),
(-233,145,l),
(191,100,l)
);
},
{
closed = 1;
nodes = (
(283,625,l),
(-148,625,l),
(275,580,l)
);
}
);
};
layerId = master01;
shapes = (
{
closed = 1;
nodes = (
(546,0,ls),
(671,0,o),
(733,99,o),
(733,212,cs),
(733,273,o),
(708,319,o),
(643,331,c),
(644,337,l),
(703,352,o),
(759,416,o),
(759,523,cs,{
name = hr01;
}),
(759,592,o),
(719,625,o),
(622,625,cs),
(314,625,l),
(204,0,l)
);
},
{
closed = 1;
nodes = (
(182,48,l),
(-250,48,l),
(174,3,l)
);
},
{
closed = 1;
nodes = (
(199,145,l),
(-233,145,l),
(191,100,l)
);
},
{
closed = 1;
nodes = (
(216,241,l),
(-216,241,l),
(208,196,l)
);
},
{
closed = 1;
nodes = (
(233,337,l),
(-199,337,l),
(225,292,l)
);
},
{
closed = 1;
nodes = (
(250,433,l),
(-182,433,l),
(242,388,l)
);
},
{
closed = 1;
nodes = (
(266,529,l),
(-165,529,l),
(259,484,l)
);
},
{
closed = 1;
nodes = (
(283,625,l),
(-148,625,l),
(275,580,l)
);
},
{
closed = 1;
nodes = (
(437,249,l),
(512,249,ls),
(536,249,o),
(544,236,o),
(544,217,cs,{
name = hr02;
}),
(544,180,o),
(529,147,o),
(493,147,cs),
(419,147,l)
);
},
{
closed = 1;
nodes = (
(480,488,l),
(540,488,ls),
(561,488,o),
(568,477,o),
(568,460,cs,{
name = hr03;
}),
(568,427,o),
(556,395,o),
(522,395,cs),
(463,395,l)
);
}
);
width = 774;
}
);
unicode = 66;
},
{
glyphname = C;
lastChange = "2023-02-08 10:38:09 +0000";
layers = (
{
anchors = (
{
name = bottom;
pos = (272,0);
},
{
name = top;
pos = (342,625);
}
);
background = {
shapes = (
{
closed = 1;
nodes = (
(195,337,l),
(-205,337,l),
(188,295,l),
(189,302,o),
(190,309,o),
(192,317,c)
);
},
{
closed = 1;
nodes = (
(-216,241,l),
(178,199,l),
(178,212,o),
(179,226,o),
(181,241,c)
);
},
{
closed = 1;
nodes = (
(-181,433,l),
(207,392,l),
(219,433,l)
);
},
{
closed = 1;
nodes = (
(-203,145,l),
(186,103,l),
(183,116,o),
(181,130,o),
(179,145,c)
);
},
{
closed = 1;
nodes = (
(-134,529,l),
(240,489,l),
(246,503,o),
(253,516,o),
(260,529,c)
);
},
{
closed = 1;
nodes = (
(-107,48,l),
(239,11,l),
(227,21,o),
(217,34,o),
(209,48,c,{
name = hr01;
})
);
},
{
closed = 1;
nodes = (
(4,625,l),
(310,592,l),
(324,605,o),
(339,615,o),
(355,625,c)
);
},
{
closed = 1;
nodes = (
(579,164,o),
(523,155,o),
(473,155,cs),
(450,155,o),
(426,157,o),
(399,163,c),
(445,425,ls),
(452,467,o),
(482,475,o),
(544,475,cs,{
name = hr02;
}),
(570,475,o),
(618,470,o),
(656,461,c),
(712,614,l),
(681,630,o),
(602,640,o),
(558,640,cs),
(336,640,o),
(260,529,o),
(222,312,cs),
(214,264,o),
(208,222,o),
(208,185,cs),
(208,53,o),
(270,-15,o),
(443,-15,cs),
(510,-15,o),
(558,-8,o),
(605,11,c),
(621,179,l)
);
}
);
};
layerId = master01;
shapes = (
{
closed = 1;
nodes = (
(510,-15,o),
(558,-8,o),
(605,11,c),
(621,179,l),
(579,164,o),
(523,155,o),
(473,155,cs),
(450,155,o),
(426,157,o),
(399,163,c),
(445,425,ls),
(452,467,o),
(482,475,o),
(544,475,cs,{
name = hr02;
}),
(570,475,o),
(618,470,o),
(656,461,c),
(712,614,l),
(681,630,o),
(602,640,o),
(558,640,cs),
(336,640,o),
(260,529,o),
(222,312,cs),
(214,264,o),
(208,222,o),
(208,185,cs),
(208,53,o),
(270,-15,o),
(443,-15,cs)
);
},
{
closed = 1;
nodes = (
(227,21,o),
(217,34,o),
(209,48,c,{
name = hr01;
}),
(-107,48,l),
(239,11,l)
);
},
{
closed = 1;
nodes = (
(183,116,o),
(181,130,o),
(179,145,c),
(-203,145,l),
(186,103,l)
);
},
{
closed = 1;
nodes = (
(178,212,o),
(179,226,o),
(181,241,c),
(-216,241,l),
(178,199,l)
);
},
{
closed = 1;
nodes = (
(189,302,o),
(190,309,o),
(192,317,c),
(195,337,l),
(-205,337,l),
(188,295,l)
);
},
{
closed = 1;
nodes = (
(219,433,l),
(-181,433,l),
(207,392,l)
);
},
{
closed = 1;
nodes = (
(246,503,o),
(253,516,o),
(260,529,c),
(-134,529,l),
(240,489,l)
);
},
{
closed = 1;
nodes = (
(324,605,o),
(339,615,o),
(355,625,c),
(4,625,l),
(310,592,l)
);
}
);
width = 683;
}
);
unicode = 67;
},
{
glyphname = Cacute;
lastChange = "2023-02-08 10:34:42 +0000";
layers = (
{
background = {
shapes = (
{
closed = 1;
nodes = (
(195,337,l),
(-205,337,l),
(188,295,l),
(189,302,o),
(190,309,o),
(192,317,c)
);
},
{
closed = 1;
nodes = (
(-216,241,l),
(178,199,l),
(178,212,o),
(179,226,o),
(181,241,c)
);
},
{
closed = 1;
nodes = (
(-181,433,l),
(207,392,l),
(219,433,l)
);
},
{
closed = 1;
nodes = (
(-203,145,l),
(186,103,l),
(183,116,o),
(181,130,o),
(179,145,c)
);
},
{
closed = 1;
nodes = (
(-134,529,l),
(240,489,l),
(246,503,o),
(253,516,o),
(260,529,c)
);
},
{
closed = 1;
nodes = (
(-107,48,l),
(239,11,l),
(227,21,o),
(217,34,o),
(209,48,c,{
name = hr01;
})
);
},
{
closed = 1;
nodes = (
(4,625,l),
(310,592,l),
(324,605,o),
(339,615,o),
(355,625,c)
);
},
{
closed = 1;
nodes = (
(579,164,o),
(523,155,o),
(473,155,cs),
(450,155,o),
(426,157,o),
(399,163,c),
(445,425,ls),
(452,467,o),
(482,475,o),
(544,475,cs,{
name = hr02;
}),
(570,475,o),
(618,470,o),
(656,461,c),
(712,614,l),
(681,630,o),
(602,640,o),
(558,640,cs),
(336,640,o),
(260,529,o),
(222,312,cs),
(214,264,o),
(208,222,o),
(208,185,cs),
(208,53,o),
(270,-15,o),
(443,-15,cs),
(510,-15,o),
(558,-8,o),
(605,11,c),
(621,179,l)
);
},
{
closed = 1;
nodes = (
(648,717,o),
(652,720,o),
(659,726,cs),
(703,764,o),
(704,765,o),
(704,765,c),
(706,768,o),
(708,771,o),
(708,776,cs),
(708,781,o),
(705,787,o),
(699,794,cs),
(636,868,ls),
(631,874,o),
(625,879,o),
(618,879,cs),
(614,879,o),
(610,877,o),
(607,875,cs),
(418,736,l),
(459,679,l),
(633,714,ls,{
name = hr00;
})
);
},
{
closed = 1;
nodes = (
(498,833,l),
(85,833,l),
(445,794,l)
);
},
{
closed = 1;
nodes = (
(387,752,l),
(-26,752,l),
(334,713,l)
);
}
);
};
layerId = master01;
shapes = (
{
ref = C;
},
{
pos = (379,0);
ref = acutecomb.case;
}
);
width = 683;
}
);
unicode = 262;
},
{
glyphname = Ccaron;
lastChange = "2023-02-08 10:52:54 +0000";
layers = (
{
background = {
anchors = (
{
name = top;
pos = (341,866);
}
);
shapes = (
{
closed = 1;
nodes = (
(195,337,l),
(-205,337,l),
(188,295,l),
(189,302,o),
(190,309,o),
(192,317,c)
);
},
{
closed = 1;
nodes = (
(-216,241,l),
(178,199,l),
(178,212,o),
(179,226,o),
(181,241,c)
);
},
{
closed = 1;
nodes = (
(-181,433,l),
(207,392,l),
(219,433,l)
);
},
{
closed = 1;
nodes = (
(-203,145,l),
(186,103,l),
(183,116,o),
(181,130,o),
(179,145,c)
);
},
{
closed = 1;
nodes = (
(-134,529,l),
(240,489,l),
(246,503,o),
(253,516,o),
(260,529,c)
);
},
{
closed = 1;
nodes = (
(-107,48,l),
(239,11,l),
(227,21,o),
(217,34,o),
(209,48,c,{
name = hr01;
})
);
},
{
closed = 1;
nodes = (
(4,625,l),
(310,592,l),
(324,605,o),
(339,615,o),
(355,625,c)
);
},
{
closed = 1;
nodes = (
(579,164,o),
(523,155,o),
(473,155,cs),
(450,155,o),
(426,157,o),
(399,163,c),
(445,425,ls),
(452,467,o),
(482,475,o),
(544,475,cs,{
name = hr02;
}),
(570,475,o),
(618,470,o),
(656,461,c),
(712,614,l),
(681,630,o),
(602,640,o),
(558,640,cs),
(336,640,o),
(260,529,o),
(222,312,cs),
(214,264,o),
(208,222,o),
(208,185,cs),
(208,53,o),
(270,-15,o),
(443,-15,cs),
(510,-15,o),
(558,-8,o),
(605,11,c),
(621,179,l)
);
},
{
closed = 1;
nodes = (
(551,663,o),
(557,666,o),
(562,672,cs),
(694,817,l),
(646,866,l),
(547,803,l),
(469,866,l),
(403,817,l),
(486,672,ls),
(489,667,o),
(492,663,o),
(499,663,cs),
(544,663,ls,{
name = hr00;
})
);
},
{
closed = 1;
nodes = (
(366,819,l),
(-12,819,l),
(389,780,l)
);
},
{
closed = 1;
nodes = (
(413,738,l),
(27,738,l),
(435,699,l)
);
}
);
};
layerId = master01;
shapes = (
{
ref = C;
},
{
pos = (341,1);
ref = caroncomb.case;
}
);
width = 683;
}
);
unicode = 268;
},
{
glyphname = Ccedilla;
lastChange = "2023-02-08 10:38:09 +0000";
layers = (
{
background = {
shapes = (
{
closed = 1;
nodes = (
(195,337,l),
(-205,337,l),
(188,295,l),
(189,302,o),
(190,309,o),
(192,317,c)
);
},
{
closed = 1;
nodes = (
(-216,241,l),
(178,199,l),
(178,212,o),
(179,226,o),
(181,241,c)
);
},
{
closed = 1;
nodes = (
(-181,433,l),
(207,392,l),
(219,433,l)
);
},
{
closed = 1;
nodes = (
(-203,145,l),
(186,103,l),
(183,116,o),
(181,130,o),
(179,145,c)
);
},
{
closed = 1;
nodes = (
(-134,529,l),
(240,489,l),
(246,503,o),
(253,516,o),
(260,529,c)
);
},
{
closed = 1;
nodes = (
(-107,48,l),
(239,11,l),
(227,21,o),
(217,34,o),
(209,48,c,{
name = hr01;
})
);
},
{
closed = 1;
nodes = (
(4,625,l),
(310,592,l),
(324,605,o),
(339,615,o),
(355,625,c)
);
},
{
closed = 1;
nodes = (
(579,164,o),
(523,155,o),
(473,155,cs),
(450,155,o),
(426,157,o),
(399,163,c),
(445,425,ls),
(452,467,o),
(482,475,o),
(544,475,cs,{
name = hr02;
}),
(570,475,o),
(618,470,o),
(656,461,c),
(712,614,l),
(681,630,o),
(602,640,o),
(558,640,cs),
(336,640,o),
(260,529,o),
(222,312,cs),
(214,264,o),
(208,222,o),
(208,185,cs),
(208,53,o),
(270,-15,o),
(443,-15,cs),
(510,-15,o),
(558,-8,o),
(605,11,c),
(621,179,l)
);
},
{
closed = 1;
nodes = (
(357,-54,o),
(351,-58,o),
(325,-58,cs),
(294,-58,l),
(268,-146,l),
(297,-158,o),
(329,-165,o),
(363,-165,cs),
(446,-165,o),
(485,-114,o),
(485,-64,cs),
(485,-29,o),
(466,5,o),
(428,21,c,{
name = hr04;
}),
(370,21,l),
(362,-26,ls,{
name = hr03;
})
);
},
{
closed = 1;
nodes = (
(262,-58,l,{
name = hr05;
}),
(71,-58,l),
(253,-89,l)
);
},
{
closed = 1;
nodes = (
(241,-130,l),
(58,-130,l),
(232,-161,l)
);
}
);
};
layerId = master01;
shapes = (
{
ref = C;
},
{
pos = (159,0);
ref = cedillacomb;
}
);
width = 683;
}
);
unicode = 199;
},
{
glyphname = Ccircumflex;
lastChange = "2023-02-08 10:34:42 +0000";
layers = (
{
background = {
shapes = (
{
closed = 1;
nodes = (
(195,337,l),
(-205,337,l),
(188,295,l),
(189,302,o),
(190,309,o),
(192,317,c)
);
},
{
closed = 1;
nodes = (
(-216,241,l),
(178,199,l),
(178,212,o),
(179,226,o),
(181,241,c)
);
},
{
closed = 1;
nodes = (
(-181,433,l),
(207,392,l),
(219,433,l)
);
},
{
closed = 1;
nodes = (
(-203,145,l),
(186,103,l),
(183,116,o),
(181,130,o),
(179,145,c)
);
},
{
closed = 1;
nodes = (
(-134,529,l),
(240,489,l),
(246,503,o),
(253,516,o),
(260,529,c)
);
},
{
closed = 1;
nodes = (
(-107,48,l),
(239,11,l),
(227,21,o),
(217,34,o),
(209,48,c,{
name = hr01;
})
);
},
{
closed = 1;
nodes = (
(4,625,l),
(310,592,l),
(324,605,o),
(339,615,o),
(355,625,c)
);
},
{
closed = 1;
nodes = (
(579,164,o),
(523,155,o),
(473,155,cs),
(450,155,o),
(426,157,o),
(399,163,c),
(445,425,ls),
(452,467,o),
(482,475,o),
(544,475,cs,{
name = hr02;
}),
(570,475,o),
(618,470,o),
(656,461,c),
(712,614,l),
(681,630,o),
(602,640,o),
(558,640,cs),
(336,640,o),
(260,529,o),
(222,312,cs),
(214,264,o),
(208,222,o),
(208,185,cs),
(208,53,o),
(270,-15,o),
(443,-15,cs),
(510,-15,o),
(558,-8,o),
(605,11,c),
(621,179,l)
);
},
{
closed = 1;
nodes = (
(530,880,o),
(524,877,o),
(519,871,cs),
(387,726,l),
(435,677,l),
(534,740,l),
(612,677,l),
(678,726,l),
(595,871,ls),
(592,876,o),
(589,880,o),
(582,880,cs),
(537,880,ls,{
name = hr00;
})
);
},
{
closed = 1;
nodes = (
(443,833,l),
(85,833,l),
(408,794,l)
);
},
{
closed = 1;
nodes = (
(370,752,l),
(4,752,l),
(334,713,l)
);
}
);
};
layerId = master01;
shapes = (
{
ref = C;
},
{
pos = (348,0);
ref = circumflexcomb.case;
}
);
width = 683;
}
);
unicode = 264;
},
{
glyphname = Cdotaccent;
lastChange = "2023-02-08 10:34:42 +0000";
layers = (
{
background = {
shapes = (
{
closed = 1;
nodes = (
(195,337,l),
(-205,337,l),
(188,295,l),
(189,302,o),
(190,309,o),
(192,317,c)
);
},
{
closed = 1;
nodes = (
(-216,241,l),
(178,199,l),
(178,212,o),
(179,226,o),
(181,241,c)
);
},
{
closed = 1;
nodes = (
(-181,433,l),
(207,392,l),
(219,433,l)
);
},
{
closed = 1;
nodes = (
(-203,145,l),
(186,103,l),
(183,116,o),
(181,130,o),
(179,145,c)
);
},
{
closed = 1;
nodes = (
(-134,529,l),
(240,489,l),
(246,503,o),
(253,516,o),
(260,529,c)
);
},
{
closed = 1;
nodes = (
(-107,48,l),
(239,11,l),
(227,21,o),
(217,34,o),
(209,48,c,{
name = hr01;
})
);
},
{
closed = 1;
nodes = (
(4,625,l),
(310,592,l),
(324,605,o),
(339,615,o),
(355,625,c)
);
},
{
closed = 1;
nodes = (
(579,164,o),
(523,155,o),
(473,155,cs),
(450,155,o),
(426,157,o),
(399,163,c),
(445,425,ls),
(452,467,o),
(482,475,o),
(544,475,cs,{
name = hr02;
}),
(570,475,o),
(618,470,o),
(656,461,c),
(712,614,l),
(681,630,o),
(602,640,o),
(558,640,cs),
(336,640,o),
(260,529,o),
(222,312,cs),
(214,264,o),
(208,222,o),
(208,185,cs),
(208,53,o),
(270,-15,o),
(443,-15,cs),
(510,-15,o),
(558,-8,o),
(605,11,c),
(621,179,l)
);
},
{
closed = 1;
nodes = (
(443,692,o),
(464,677,o),
(522,677,cs),
(609,677,o),
(634,736,o),
(634,810,cs),
(634,852,o),
(614,869,o),
(556,869,cs),
(468,869,o),
(443,806,o),
(443,732,cs)
);
},
{
closed = 1;
nodes = (
(422,809,o),
(429,827,o),
(433,833,c,{
name = hr01;
}),
(68,833,l),
(419,794,l)
);
},
{
closed = 1;
nodes = (
(413,721,o),
(413,728,o),
(413,736,cs),
(413,741,o),
(413,747,o),
(414,752,c,{
name = hr02;
}),
(48,752,l),
(414,713,l)
);
}
);
};
layerId = master01;
shapes = (
{
ref = C;
},
{
pos = (407,0);
ref = dotaccentcomb.case;
}
);
width = 683;
}
);
unicode = 266;
},
{
glyphname = D;
lastChange = "2023-02-08 10:39:13 +0000";
layers = (
{
anchors = (
{
name = bottom;
pos = (421,0);
},
{
name = center;
pos = (421,313);
},
{
name = top;
pos = (389,625);
}
);
background = {
shapes = (
{
closed = 1;
nodes = (
(470,0,ls),
(691,0,o),
(767,96,o),
(806,312,cs),
(814,357,o),
(818,397,o),
(818,432,cs),
(818,565,o),
(755,625,o),
(580,625,cs),
(314,625,l),
(204,0,l,{
name = hr00;
})
);
},
{
closed = 1;
nodes = (
(593,465,o),
(620,462,o),
(620,428,cs),
(620,423,o),
(620,418,o),
(619,412,cs),
(584,213,ls),
(575,164,o),
(545,160,o),
(501,160,cs),
(422,160,l),
(475,465,l),
(554,465,ls)
);
},
{
closed = 1;
nodes = (
(182,48,l),
(-250,48,l),
(174,3,l)
);
},
{
closed = 1;
nodes = (
(216,241,l),
(-216,241,l),
(208,196,l)
);
},
{
closed = 1;
nodes = (
(233,337,l),
(-199,337,l),
(225,292,l)
);
},
{
closed = 1;
nodes = (
(250,433,l),
(-182,433,l),
(242,388,l)
);
},
{
closed = 1;
nodes = (
(266,529,l),
(-165,529,l),
(259,484,l)
);
},
{
closed = 1;
nodes = (
(199,145,l),
(-233,145,l),
(191,100,l)
);
},
{
closed = 1;
nodes = (
(283,625,l),
(-148,625,l),
(275,580,l)
);
}
);
};
layerId = master01;
shapes = (
{
closed = 1;
nodes = (
(470,0,ls),
(691,0,o),
(767,96,o),
(806,312,cs),
(814,357,o),
(818,397,o),
(818,432,cs),
(818,565,o),
(755,625,o),
(580,625,cs),
(314,625,l),
(204,0,l,{
name = hr00;
})
);
},
{
closed = 1;
nodes = (
(182,48,l),
(-250,48,l),
(174,3,l)
);
},
{
closed = 1;
nodes = (
(199,145,l),
(-233,145,l),
(191,100,l)
);
},
{
closed = 1;
nodes = (
(216,241,l),
(-216,241,l),
(208,196,l)
);
},
{
closed = 1;
nodes = (
(233,337,l),
(-199,337,l),
(225,292,l)
);
},
{
closed = 1;
nodes = (
(250,433,l),
(-182,433,l),
(242,388,l)
);
},
{
closed = 1;
nodes = (
(266,529,l),
(-165,529,l),
(259,484,l)
);
},
{
closed = 1;
nodes = (
(283,625,l),
(-148,625,l),
(275,580,l)
);
},
{
closed = 1;
nodes = (
(475,465,l),
(554,465,ls),
(593,465,o),
(620,462,o),
(620,428,cs),
(620,423,o),
(620,418,o),
(619,412,cs),
(584,213,ls),
(575,164,o),
(545,160,o),
(501,160,cs),
(422,160,l)
);
}
);
width = 841;
}
);
unicode = 68;
},
{
glyphname = Eth;
lastChange = "2023-02-08 10:38:31 +0000";
layers = (
{
background = {
shapes = (
{
closed = 1;
nodes = (
(344,255,l),
(471,255,ls),
(499,255,o),
(518,258,o),
(523,286,cs),
(537,363,l),
(363,363,l)
);
},
{
closed = 1;
nodes = (
(470,0,ls),
(691,0,o),
(767,96,o),
(806,312,cs),
(814,357,o),
(818,397,o),
(818,432,cs),
(818,565,o),
(755,625,o),
(580,625,cs),
(314,625,l),
(204,0,l,{
name = hr01;
})
);
},
{
closed = 1;
nodes = (
(593,465,o),
(620,462,o),
(620,428,cs),
(620,423,o),
(620,418,o),
(619,412,cs),
(584,213,ls),
(575,164,o),
(545,160,o),
(501,160,cs),
(422,160,l),
(475,465,l),
(554,465,ls)
);
},
{
closed = 1;
nodes = (
(182,48,l),
(-250,48,l),
(174,3,l)
);
},
{
closed = 1;
nodes = (
(216,241,l),
(-216,241,l),
(208,196,l)
);
},
{
closed = 1;
nodes = (
(233,337,l),
(-199,337,l),
(225,292,l)
);
},
{
closed = 1;
nodes = (
(250,433,l),
(-182,433,l),
(242,388,l)
);
},
{
closed = 1;
nodes = (
(266,529,l),
(-165,529,l),
(259,484,l)
);
},
{
closed = 1;
nodes = (
(199,145,l),
(-233,145,l),
(191,100,l)
);
},
{
closed = 1;
nodes = (
(283,625,l),
(-148,625,l),
(275,580,l)
);
}
);
};
layerId = master01;
shapes = (
{
closed = 1;
nodes = (
(470,0,ls),
(691,0,o),
(767,96,o),
(806,312,cs),
(814,357,o),
(818,397,o),
(818,432,cs),
(818,565,o),
(755,625,o),
(580,625,cs),
(314,625,l),
(204,0,l,{
name = hr01;
})
);
},
{
closed = 1;
nodes = (
(182,48,l),
(-250,48,l),
(174,3,l)
);
},
{
closed = 1;
nodes = (
(199,145,l),
(-233,145,l),
(191,100,l)
);
},
{
closed = 1;
nodes = (
(216,241,l),
(-216,241,l),
(208,196,l)
);
},
{
closed = 1;
nodes = (
(233,337,l),
(-199,337,l),
(225,292,l)
);
},
{
closed = 1;
nodes = (
(250,433,l),
(-182,433,l),
(242,388,l)
);
},
{
closed = 1;
nodes = (
(266,529,l),
(-165,529,l),
(259,484,l)
);
},
{
closed = 1;
nodes = (
(283,625,l),
(-148,625,l),
(275,580,l)
);
},
{
closed = 1;
nodes = (
(471,255,ls),
(499,255,o),
(518,258,o),
(523,286,cs),
(537,363,l),
(363,363,l),
(344,255,l)
);
},
{
closed = 1;
nodes = (
(475,465,l),
(554,465,ls),
(593,465,o),
(620,462,o),
(620,428,cs),
(620,423,o),
(620,418,o),
(619,412,cs),
(584,213,ls),
(575,164,o),
(545,160,o),
(501,160,cs),
(422,160,l)
);
}
);
width = 841;
}
);
unicode = 208;
},
{
glyphname = Dcaron;
lastChange = "2023-02-08 10:52:54 +0000";
layers = (
{
background = {
anchors = (
{
name = top;
pos = (390,866);
}
);
shapes = (
{
closed = 1;
nodes = (
(470,0,ls),
(691,0,o),
(767,96,o),
(806,312,cs),
(814,357,o),
(818,397,o),
(818,432,cs),
(818,565,o),
(755,625,o),
(580,625,cs),
(314,625,l),
(204,0,l,{
name = hr00;
})
);
},
{
closed = 1;
nodes = (
(593,465,o),
(620,462,o),
(620,428,cs),
(620,423,o),
(620,418,o),
(619,412,cs),
(584,213,ls),
(575,164,o),
(545,160,o),
(501,160,cs),
(422,160,l),
(475,465,l),
(554,465,ls)
);
},
{
closed = 1;
nodes = (
(182,48,l),
(-250,48,l),
(174,3,l)
);
},
{
closed = 1;
nodes = (
(216,241,l),
(-216,241,l),
(208,196,l)
);
},
{
closed = 1;
nodes = (
(233,337,l),
(-199,337,l),
(225,292,l)
);
},
{
closed = 1;
nodes = (
(250,433,l),
(-182,433,l),
(242,388,l)
);
},
{
closed = 1;
nodes = (
(266,529,l),
(-165,529,l),
(259,484,l)
);
},
{
closed = 1;
nodes = (
(199,145,l),
(-233,145,l),
(191,100,l)
);
},
{
closed = 1;
nodes = (
(283,625,l),
(-148,625,l),
(275,580,l)
);
},
{
closed = 1;
nodes = (
(600,663,o),
(606,666,o),
(611,672,cs),
(743,817,l),
(695,866,l),
(596,803,l),
(518,866,l),
(452,817,l),
(535,672,ls),
(538,667,o),
(541,663,o),
(548,663,cs),
(593,663,ls,{
name = hr00;
})
);
},
{
closed = 1;
nodes = (
(415,819,l),
(37,819,l),
(438,780,l)
);
},
{
closed = 1;
nodes = (
(462,738,l),
(76,738,l),
(484,699,l)
);
}
);
};
layerId = master01;
shapes = (
{
ref = D;
},
{
pos = (388,1);
ref = caroncomb.case;
}
);
width = 841;
}
);
unicode = 270;
},
{
glyphname = Dcroat;
lastChange = "2023-02-08 10:34:42 +0000";
layers = (
{
background = {
shapes = (
{
closed = 1;
nodes = (
(344,255,l),
(471,255,ls),
(499,255,o),
(518,258,o),
(523,286,cs),
(537,363,l),
(363,363,l)
);
},
{
closed = 1;
nodes = (
(470,0,ls),
(691,0,o),
(767,96,o),
(806,312,cs),
(814,357,o),
(818,397,o),
(818,432,cs),
(818,565,o),
(755,625,o),
(580,625,cs),
(314,625,l),
(204,0,l,{
name = hr01;
})
);
},
{
closed = 1;
nodes = (
(593,465,o),
(620,462,o),
(620,428,cs),
(620,423,o),
(620,418,o),
(619,412,cs),
(584,213,ls),
(575,164,o),
(545,160,o),
(501,160,cs),
(422,160,l),
(475,465,l),
(554,465,ls)
);
},
{
closed = 1;
nodes = (
(182,48,l),
(-250,48,l),
(174,3,l)
);
},
{
closed = 1;
nodes = (
(216,241,l),
(-216,241,l),
(208,196,l)
);
},
{
closed = 1;
nodes = (
(233,337,l),
(-199,337,l),
(225,292,l)
);
},
{
closed = 1;
nodes = (
(250,433,l),
(-182,433,l),
(242,388,l)
);
},
{
closed = 1;
nodes = (
(266,529,l),
(-165,529,l),
(259,484,l)
);
},
{
closed = 1;
nodes = (
(199,145,l),
(-233,145,l),
(191,100,l)
);
},
{
closed = 1;
nodes = (
(283,625,l),
(-148,625,l),
(275,580,l)
);
}
);
};
layerId = master01;
shapes = (
{
ref = Eth;
}
);
width = 841;
}
);
unicode = 272;
},
{
glyphname = E;
lastChange = "2023-02-08 10:40:30 +0000";
layers = (
{
anchors = (
{
name = bottom;
pos = (363,0);
},
{
name = ogonek;
pos = (643,21);
},
{
name = top;
pos = (346,625);
},
{
name = topleft;
pos = (20,625);
}
);
background = {
shapes = (
{
closed = 1;
nodes = (
(651,381,l),
(461,381,l),
(475,465,l),
(680,465,l),
(732,625,l),
(314,625,l),
(204,0,l),
(627,0,l),
(655,160,l),
(422,160,l),
(435,236,l),
(625,236,l,{
name = hr00;
})
);
},
{
closed = 1;
nodes = (
(182,48,l),
(-250,48,l),
(174,3,l)
);
},
{
closed = 1;
nodes = (
(216,241,l),
(-216,241,l),
(208,196,l)
);
},
{
closed = 1;
nodes = (
(233,337,l),
(-199,337,l),
(225,292,l)
);
},
{
closed = 1;
nodes = (
(250,433,l),
(-182,433,l),
(242,388,l)
);
},
{
closed = 1;
nodes = (
(266,529,l),
(-165,529,l),
(259,484,l)
);
},
{
closed = 1;
nodes = (
(199,145,l),
(-233,145,l),
(191,100,l)
);
},
{
closed = 1;
nodes = (
(283,625,l),
(-148,625,l),
(275,580,l)
);
}
);
};
layerId = master01;
shapes = (
{
closed = 1;
nodes = (
(627,0,l),
(655,160,l),
(422,160,l),
(435,236,l),
(625,236,l,{
name = hr00;
}),
(651,381,l),
(461,381,l),
(475,465,l),
(680,465,l),
(732,625,l),
(314,625,l),
(204,0,l)
);
},
{
closed = 1;
nodes = (
(182,48,l),
(-250,48,l),
(174,3,l)
);
},
{
closed = 1;
nodes = (
(199,145,l),
(-233,145,l),
(191,100,l)
);
},
{
closed = 1;
nodes = (
(216,241,l),
(-216,241,l),
(208,196,l)
);
},
{
closed = 1;
nodes = (
(233,337,l),
(-199,337,l),
(225,292,l)
);
},
{
closed = 1;
nodes = (
(250,433,l),
(-182,433,l),
(242,388,l)
);
},
{
closed = 1;
nodes = (
(266,529,l),
(-165,529,l),
(259,484,l)
);
},
{
closed = 1;
nodes = (
(283,625,l),
(-148,625,l),
(275,580,l)
);
}
);
width = 726;
}
);
unicode = 69;
},
{
glyphname = Eacute;
lastChange = "2023-02-08 10:39:36 +0000";
layers = (
{
background = {
shapes = (
{
closed = 1;
nodes = (
(651,381,l),
(461,381,l),
(475,465,l),
(680,465,l),
(732,625,l),
(314,625,l),
(204,0,l),
(627,0,l),
(655,160,l),
(422,160,l),
(435,236,l),
(625,236,l)
);
},
{
closed = 1;
nodes = (
(182,48,l),
(-250,48,l),
(174,3,l)
);
},
{
closed = 1;
nodes = (
(216,241,l),
(-216,241,l),
(208,196,l)
);
},
{
closed = 1;
nodes = (
(233,337,l),
(-199,337,l),
(225,292,l)
);
},
{
closed = 1;
nodes = (
(250,433,l),
(-182,433,l),
(242,388,l)
);
},
{
closed = 1;
nodes = (
(266,529,l),
(-165,529,l),
(259,484,l)
);
},
{
closed = 1;
nodes = (
(199,145,l),
(-233,145,l),
(191,100,l)
);
},
{
closed = 1;
nodes = (
(283,625,l),
(-148,625,l),
(275,580,l)
);
},
{
closed = 1;
nodes = (
(638,717,o),
(642,720,o),
(649,726,cs),
(693,764,o),
(694,765,o),
(694,765,c),
(696,768,o),
(698,771,o),
(698,776,cs),
(698,781,o),
(695,787,o),
(689,794,cs),
(626,868,ls),
(621,874,o),
(615,879,o),
(608,879,cs),
(604,879,o),
(600,877,o),
(597,875,cs),
(408,736,l),
(449,679,l),
(623,714,ls,{
name = hr01;
})
);
},
{
closed = 1;
nodes = (
(488,833,l),
(75,833,l),
(435,794,l)
);
},
{
closed = 1;
nodes = (
(377,752,l),
(-36,752,l),
(324,713,l)
);
}
);
};
layerId = master01;
shapes = (
{
ref = E;
},
{
pos = (383,0);
ref = acutecomb.case;
}
);
width = 726;
}
);
unicode = 201;
},
{
glyphname = Ebreve;
lastChange = "2023-02-08 10:39:36 +0000";
layers = (
{
background = {
shapes = (
{
closed = 1;
nodes = (
(651,381,l),
(461,381,l),
(475,465,l),
(680,465,l),
(732,625,l),
(314,625,l),
(204,0,l),
(627,0,l),
(655,160,l),
(422,160,l),
(435,236,l),
(625,236,l,{
name = hr00;
})
);
},
{
closed = 1;
nodes = (
(182,48,l),
(-250,48,l),
(174,3,l)
);
},
{
closed = 1;
nodes = (
(216,241,l),
(-216,241,l),
(208,196,l)
);
},
{
closed = 1;
nodes = (
(233,337,l),
(-199,337,l),
(225,292,l)
);
},
{
closed = 1;
nodes = (
(250,433,l),
(-182,433,l),
(242,388,l)
);
},
{
closed = 1;
nodes = (
(266,529,l),
(-165,529,l),
(259,484,l)
);
},
{
closed = 1;
nodes = (
(199,145,l),
(-233,145,l),
(191,100,l)
);
},
{
closed = 1;
nodes = (
(283,625,l),
(-148,625,l),
(275,580,l)
);
},
{
closed = 1;
nodes = (
(410,724,o),
(402,737,o),
(393,752,c),
(24,752,l),
(422,713,l,{
name = hr00;
})
);
},
{
closed = 1;
nodes = (
(-4,833,l),
(382,795,l),
(379,807,o),
(376,819,o),
(374,833,c)
);
},
{
closed = 1;
nodes = (
(405,829,l),
(409,736,o),
(471,690,o),
(542,690,cs),
(614,690,o),
(693,736,o),
(730,829,c),
(632,844,l),
(617,808,o),
(587,789,o),
(560,789,cs),
(534,789,o),
(510,808,o),
(509,844,c)
);
}
);
};
layerId = master01;
shapes = (
{
ref = E;
},
{
pos = (348,0);
ref = brevecomb.case;
}
);
width = 726;
}
);
unicode = 276;
},
{
glyphname = Ecaron;
lastChange = "2023-02-08 10:52:54 +0000";
layers = (
{
background = {
anchors = (
{
name = top;
pos = (313,866);
}
);
shapes = (
{
closed = 1;
nodes = (
(651,381,l),
(461,381,l),
(475,465,l),
(680,465,l),
(732,625,l),
(314,625,l),
(204,0,l),
(627,0,l),
(655,160,l),
(422,160,l),
(435,236,l),
(625,236,l,{
name = hr00;
})
);
},
{
closed = 1;
nodes = (
(182,48,l),
(-250,48,l),
(174,3,l)
);
},
{
closed = 1;
nodes = (
(216,241,l),
(-216,241,l),
(208,196,l)
);
},
{
closed = 1;
nodes = (
(233,337,l),
(-199,337,l),
(225,292,l)
);
},
{
closed = 1;
nodes = (
(250,433,l),
(-182,433,l),
(242,388,l)
);
},
{
closed = 1;
nodes = (
(266,529,l),
(-165,529,l),
(259,484,l)
);
},
{
closed = 1;
nodes = (
(199,145,l),
(-233,145,l),
(191,100,l)
);
},
{
closed = 1;
nodes = (
(283,625,l),
(-148,625,l),
(275,580,l)
);
},
{
closed = 1;
nodes = (
(523,663,o),
(529,666,o),
(534,672,cs),
(666,817,l),
(618,866,l),
(519,803,l),
(441,866,l),
(375,817,l),
(458,672,ls),
(461,667,o),
(464,663,o),
(471,663,cs),
(516,663,ls,{
name = hr00;
})
);
},
{
closed = 1;
nodes = (
(338,819,l),
(-40,819,l),
(361,780,l)
);
},
{
closed = 1;
nodes = (
(385,738,l),
(-1,738,l),
(407,699,l)
);
}
);
};
layerId = master01;
shapes = (
{
ref = E;
},
{
pos = (345,1);
ref = caroncomb.case;
}
);
width = 726;
}
);
unicode = 282;
},
{
glyphname = Ecircumflex;
lastChange = "2023-02-08 10:39:36 +0000";
layers = (
{
background = {
shapes = (
{
closed = 1;
nodes = (
(651,381,l),
(461,381,l),
(475,465,l),
(680,465,l),
(732,625,l),
(314,625,l),
(204,0,l),
(627,0,l),
(655,160,l),
(422,160,l),
(435,236,l),
(625,236,l)
);
},
{
closed = 1;
nodes = (
(182,48,l),
(-250,48,l),
(174,3,l)
);
},
{
closed = 1;
nodes = (
(216,241,l),
(-216,241,l),
(208,196,l)
);
},
{
closed = 1;
nodes = (
(233,337,l),
(-199,337,l),
(225,292,l)
);
},
{
closed = 1;
nodes = (
(250,433,l),
(-182,433,l),
(242,388,l)
);
},
{
closed = 1;
nodes = (
(266,529,l),
(-165,529,l),
(259,484,l)
);
},
{
closed = 1;
nodes = (
(199,145,l),
(-233,145,l),
(191,100,l)
);
},
{
closed = 1;
nodes = (
(283,625,l),
(-148,625,l),
(275,580,l)
);
},
{
closed = 1;
nodes = (
(531,880,o),
(525,877,o),
(520,871,cs),
(388,726,l),
(436,677,l),
(535,740,l),
(613,677,l),
(679,726,l),
(596,871,ls),
(593,876,o),
(590,880,o),
(583,880,cs),
(538,880,ls,{
name = hr01;
})
);
},
{
closed = 1;
nodes = (
(444,833,l),
(86,833,l),
(409,794,l)
);
},
{
closed = 1;
nodes = (
(371,752,l),
(5,752,l),
(335,713,l)
);
}
);
};
layerId = master01;
shapes = (
{
ref = E;
},
{
pos = (352,0);
ref = circumflexcomb.case;
}
);
width = 726;
}
);
unicode = 202;
},
{
glyphname = Edieresis;
lastChange = "2023-02-08 10:47:00 +0000";
layers = (
{
background = {
shapes = (
{
closed = 1;
nodes = (
(651,381,l),
(461,381,l),
(475,465,l),
(680,465,l),
(732,625,l),
(314,625,l),
(204,0,l),
(627,0,l),
(655,160,l),
(422,160,l),
(435,236,l),
(625,236,l)
);
},
{
closed = 1;
nodes = (
(182,48,l),
(-250,48,l),
(174,3,l)
);
},
{
closed = 1;
nodes = (
(216,241,l),
(-216,241,l),
(208,196,l)
);
},
{
closed = 1;
nodes = (
(233,337,l),
(-199,337,l),
(225,292,l)
);
},
{
closed = 1;
nodes = (
(250,433,l),
(-182,433,l),
(242,388,l)
);
},
{
closed = 1;
nodes = (
(266,529,l),
(-165,529,l),
(259,484,l)
);
},
{
closed = 1;
nodes = (
(199,145,l),
(-233,145,l),
(191,100,l)
);
},
{
closed = 1;
nodes = (
(283,625,l),
(-148,625,l),
(275,580,l)
);
},
{
closed = 1;
nodes = (
(599,848,o),
(574,819,o),
(574,740,cs),
(574,706,o),
(590,692,o),
(638,692,cs),
(704,692,o),
(729,721,o),
(729,800,cs),
(729,834,o),
(713,848,o),
(665,848,cs,{
name = hr01;
})
);
},
{
closed = 1;
nodes = (
(391,848,o),
(366,819,o),
(366,740,cs),
(366,706,o),
(382,692,o),
(430,692,cs),
(495,692,o),
(521,721,o),
(521,800,cs),
(521,834,o),
(504,848,o),
(457,848,cs)
);
},
{
closed = 1;
nodes = (
(37,833,l),
(339,787,l),
(342,805,o),
(346,820,o),
(353,833,c,{
name = hr02;
})
);
},
{
closed = 1;
nodes = (
(336,754,l,{
name = hr03;
}),
(37,754,l),
(339,708,l),
(337,717,o),
(336,728,o),
(336,740,c)
);
}
);
};
layerId = master01;
shapes = (
{
ref = E;
},
{
pos = (305,0);
ref = dieresiscomb.case;
}
);
width = 726;
}
);
unicode = 203;
},
{
glyphname = Edotaccent;
lastChange = "2023-02-08 10:39:36 +0000";
layers = (
{
background = {
shapes = (
{
closed = 1;
nodes = (
(651,381,l),
(461,381,l),
(475,465,l),
(680,465,l),
(732,625,l),
(314,625,l),
(204,0,l),
(627,0,l),
(655,160,l),
(422,160,l),
(435,236,l),
(625,236,l,{
name = hr00;
})
);
},
{
closed = 1;
nodes = (
(182,48,l),
(-250,48,l),
(174,3,l)
);
},
{
closed = 1;
nodes = (
(216,241,l),
(-216,241,l),
(208,196,l)
);
},
{
closed = 1;
nodes = (
(233,337,l),
(-199,337,l),
(225,292,l)
);
},
{
closed = 1;
nodes = (
(250,433,l),
(-182,433,l),
(242,388,l)
);
},
{
closed = 1;
nodes = (
(266,529,l),
(-165,529,l),
(259,484,l)
);
},
{
closed = 1;
nodes = (
(199,145,l),
(-233,145,l),
(191,100,l)
);
},
{
closed = 1;
nodes = (
(283,625,l),
(-148,625,l),
(275,580,l)
);
},
{
closed = 1;
nodes = (
(465,692,o),
(486,677,o),
(544,677,cs),
(631,677,o),
(656,736,o),
(656,810,cs),
(656,852,o),
(636,869,o),
(578,869,cs),
(490,869,o),
(465,806,o),
(465,732,cs)
);
},
{
closed = 1;
nodes = (
(444,809,o),
(451,827,o),
(455,833,c,{
name = hr01;
}),
(90,833,l),
(441,794,l)
);
},
{
closed = 1;
nodes = (
(435,721,o),
(435,728,o),
(435,736,cs),
(435,741,o),
(435,747,o),
(436,752,c,{
name = hr02;
}),
(70,752,l),
(436,713,l)
);
}
);
};
layerId = master01;
shapes = (
{
ref = E;
},
{
pos = (411,0);
ref = dotaccentcomb.case;
}
);
width = 726;
}
);
unicode = 278;
},
{
glyphname = Egrave;
lastChange = "2023-02-08 10:39:36 +0000";
layers = (
{
background = {
shapes = (
{
closed = 1;
nodes = (
(651,381,l),
(461,381,l),
(475,465,l),
(680,465,l),
(732,625,l),
(314,625,l),
(204,0,l),
(627,0,l),
(655,160,l),
(422,160,l),
(435,236,l),
(625,236,l)
);
},
{
closed = 1;
nodes = (
(182,48,l),
(-250,48,l),
(174,3,l)
);
},
{
closed = 1;
nodes = (
(216,241,l),
(-216,241,l),
(208,196,l)
);
},
{
closed = 1;
nodes = (
(233,337,l),
(-199,337,l),
(225,292,l)
);
},
{
closed = 1;
nodes = (
(250,433,l),
(-182,433,l),
(242,388,l)
);
},
{
closed = 1;
nodes = (
(266,529,l),
(-165,529,l),
(259,484,l)
);
},
{
closed = 1;
nodes = (
(199,145,l),
(-233,145,l),
(191,100,l)
);
},
{
closed = 1;
nodes = (
(283,625,l),
(-148,625,l),
(275,580,l)
);
},
{
closed = 1;
nodes = (
(669,736,l),
(480,875,ls),
(477,877,o),
(473,879,o),
(469,879,cs),
(462,879,o),
(456,874,o),
(451,868,cs),
(388,794,ls),
(383,788,o),
(379,781,o),
(379,775,cs),
(379,772,o),
(380,768,o),
(383,765,cs),
(428,726,ls),
(435,720,o),
(439,717,o),
(454,714,cs),
(628,679,l,{
name = hr01;
})
);
},
{
closed = 1;
nodes = (
(360,810,o),
(372,820,o),
(382,833,c),
(-42,833,l),
(353,794,l)
);
},
{
closed = 1;
nodes = (
(369,736,o),
(361,743,o),
(355,752,c),
(-12,752,l),
(396,713,l)
);
}
);
};
layerId = master01;
shapes = (
{
ref = E;
},
{
pos = (422,0);
ref = gravecomb.case;
}
);
width = 726;
}
);
unicode = 200;
},
{
glyphname = Emacron;
lastChange = "2023-02-08 10:39:36 +0000";
layers = (
{
background = {
shapes = (
{
closed = 1;
nodes = (
(651,381,l),
(461,381,l),
(475,465,l),
(680,465,l),
(732,625,l),
(314,625,l),
(204,0,l),
(627,0,l),
(655,160,l),
(422,160,l),
(435,236,l),
(625,236,l,{
name = hr00;
})
);
},
{
closed = 1;
nodes = (
(182,48,l),
(-250,48,l),
(174,3,l)
);
},
{
closed = 1;
nodes = (
(216,241,l),
(-216,241,l),
(208,196,l)
);
},
{
closed = 1;
nodes = (
(233,337,l),
(-199,337,l),
(225,292,l)
);
},
{
closed = 1;
nodes = (
(250,433,l),
(-182,433,l),
(242,388,l)
);
},
{
closed = 1;
nodes = (
(266,529,l),
(-165,529,l),
(259,484,l)
);
},
{
closed = 1;
nodes = (
(199,145,l),
(-233,145,l),
(191,100,l)
);
},
{
closed = 1;
nodes = (
(283,625,l),
(-148,625,l),
(275,580,l)
);
},
{
closed = 1;
nodes = (
(699,770,ls),
(701,784,o),
(703,796,o),
(703,804,cs),
(703,826,o),
(693,833,o),
(660,833,cs),
(425,833,l),
(414,770,ls),
(411,756,o),
(410,745,o),
(410,737,cs),
(410,714,o),
(421,706,o),
(454,706,cs),
(688,706,l,{
name = hr00;
})
);
},
{
closed = 1;
nodes = (
(394,833,l),
(27,833,l),
(387,794,l)
);
},
{
closed = 1;
nodes = (
(381,719,o),
(380,729,o),
(380,738,cs),
(380,743,o),
(380,748,o),
(381,752,c),
(23,752,l),
(383,711,l)
);
}
);
};
layerId = master01;
shapes = (
{
ref = E;
},
{
pos = (336,0);
ref = macroncomb.case;
}
);
width = 726;
}
);
unicode = 274;
},
{
glyphname = Eogonek;
lastChange = "2023-02-08 10:40:30 +0000";
layers = (
{
background = {
shapes = (
{
closed = 1;
nodes = (
(651,381,l),
(461,381,l),
(475,465,l),
(680,465,l),
(732,625,l),
(314,625,l),
(204,0,l),
(627,0,l),
(655,160,l),
(422,160,l),
(435,236,l),
(625,236,l,{
name = hr00;
})
);
},
{
closed = 1;
nodes = (
(182,48,l),
(-250,48,l),
(174,3,l)
);
},
{
closed = 1;
nodes = (
(216,241,l),
(-216,241,l),
(208,196,l)
);
},
{
closed = 1;
nodes = (
(233,337,l),
(-199,337,l),
(225,292,l)
);
},
{
closed = 1;
nodes = (
(250,433,l),
(-182,433,l),
(242,388,l)
);
},
{
closed = 1;
nodes = (
(266,529,l),
(-165,529,l),
(259,484,l)
);
},
{
closed = 1;
nodes = (
(199,145,l),
(-233,145,l),
(191,100,l)
);
},
{
closed = 1;
nodes = (
(283,625,l),
(-148,625,l),
(275,580,l)
);
},
{
closed = 1;
nodes = (
(536,21,l),
(477,-6,o),
(442,-50,o),
(442,-96,cs),
(442,-134,o),
(470,-165,o),
(535,-165,cs),
(562,-165,o),
(602,-160,o),
(638,-146,c),
(643,-58,l,{
name = hr01;
}),
(596,-58,ls),
(576,-58,o),
(569,-56,o),
(569,-42,cs),
(569,-38,o),
(570,-33,o),
(571,-26,c,{
name = hr02;
}),
(627,0,l),
(612,21,l)
);
},
{
closed = 1;
nodes = (
(412,-78,o),
(415,-68,o),
(418,-58,c,{
name = hr03;
}),
(230,-58,l),
(412,-89,l)
);
},
{
closed = 1;
nodes = (
(427,-152,o),
(421,-141,o),
(417,-130,c),
(262,-130,l),
(436,-161,l)
);
}
);
};
layerId = master01;
shapes = (
{
ref = E;
},
{
pos = (301,0);
ref = ogonekcomb;
}
);
width = 726;
}
);
unicode = 280;
},
{
glyphname = F;
lastChange = "2023-02-08 10:37:52 +0000";
layers = (
{
anchors = (
{
name = bottom;
pos = (333,0);
},
{
name = top;
pos = (333,625);
}
);
background = {
shapes = (
{
closed = 1;
nodes = (
(623,381,l),
(461,381,l),
(475,465,l),
(651,465,l),
(704,625,l),
(314,625,l),
(204,0,l),
(394,0,l),
(434,232,l),
(596,232,l,{
name = hr00;
})
);
},
{
closed = 1;
nodes = (
(182,48,l),
(-250,48,l),
(174,3,l)
);
},
{
closed = 1;
nodes = (
(216,241,l),
(-216,241,l),
(208,196,l)
);
},
{
closed = 1;
nodes = (
(233,337,l),
(-199,337,l),
(225,292,l)
);
},
{
closed = 1;
nodes = (
(250,433,l),
(-182,433,l),
(242,388,l)
);
},
{
closed = 1;
nodes = (
(266,529,l),
(-165,529,l),
(259,484,l)
);
},
{
closed = 1;
nodes = (
(199,145,l),
(-233,145,l),
(191,100,l)
);
},
{
closed = 1;
nodes = (
(283,625,l),
(-148,625,l),
(275,580,l)
);
}
);
};
layerId = master01;
shapes = (
{
closed = 1;
nodes = (
(394,0,l),
(434,232,l),
(596,232,l,{
name = hr00;
}),
(623,381,l),
(461,381,l),
(475,465,l),
(651,465,l),
(704,625,l),
(314,625,l),
(204,0,l)
);
},
{
closed = 1;
nodes = (
(182,48,l),
(-250,48,l),
(174,3,l)
);
},
{
closed = 1;
nodes = (
(199,145,l),
(-233,145,l),
(191,100,l)
);
},
{
closed = 1;
nodes = (
(216,241,l),
(-216,241,l),
(208,196,l)
);
},
{
closed = 1;
nodes = (
(233,337,l),
(-199,337,l),
(225,292,l)
);
},
{
closed = 1;
nodes = (
(250,433,l),
(-182,433,l),
(242,388,l)
);
},
{
closed = 1;
nodes = (
(266,529,l),
(-165,529,l),
(259,484,l)
);
},
{
closed = 1;
nodes = (
(283,625,l),
(-148,625,l),
(275,580,l)
);
}
);
width = 666;
}
);
unicode = 70;
},
{
glyphname = G;
lastChange = "2023-02-08 10:46:26 +0000";
layers = (
{
anchors = (
{
name = bottom;
pos = (304,0);
},
{
name = top;
pos = (384,625);
}
);
background = {
shapes = (
{
closed = 1;
nodes = (
(522,145,o),
(495,142,o),
(457,142,cs),
(394,142,l),
(443,425,ls),
(450,467,o),
(487,475,o),
(562,475,cs),
(596,475,o),
(654,470,o),
(702,461,c),
(757,614,l),
(721,627,o),
(627,640,o),
(578,640,cs),
(332,640,o),
(258,529,o),
(220,312,cs),
(212,264,o),
(206,222,o),
(206,185,cs),
(206,53,o),
(268,-15,o),
(441,-15,cs),
(508,-15,o),
(599,-1,o),
(683,30,c),
(742,364,l),
(513,364,l),
(486,211,l),
(534,211,l),
(529,184,ls)
);
},
{
closed = 1;
nodes = (
(195,337,l),
(-205,337,l),
(188,295,l),
(189,302,o),
(190,309,o),
(192,317,c)
);
},
{
closed = 1;
nodes = (
(-216,241,l),
(178,199,l),
(178,212,o),
(179,226,o),
(181,241,c)
);
},
{
closed = 1;
nodes = (
(-181,433,l),
(207,392,l),
(219,433,l)
);
},
{
closed = 1;
nodes = (
(-203,145,l),
(186,103,l),
(183,116,o),
(181,130,o),
(179,145,c)
);
},
{
closed = 1;
nodes = (
(-134,529,l),
(240,489,l),
(246,503,o),
(253,516,o),
(260,529,c)
);
},
{
closed = 1;
nodes = (
(-107,48,l),
(239,11,l),
(227,21,o),
(217,34,o),
(209,48,c,{
name = hr01;
})
);
},
{
closed = 1;
nodes = (
(4,625,l),
(310,592,l),
(324,605,o),
(339,615,o),
(355,625,c)
);
}
);
};
layerId = master01;
shapes = (
{
closed = 1;
nodes = (
(508,-15,o),
(599,-1,o),
(683,30,c),
(742,364,l),
(513,364,l),
(486,211,l),
(534,211,l),
(529,184,ls),
(522,145,o),
(495,142,o),
(457,142,cs),
(394,142,l),
(443,425,ls),
(450,467,o),
(487,475,o),
(562,475,cs),
(596,475,o),
(654,470,o),
(702,461,c),
(757,614,l),
(721,627,o),
(627,640,o),
(578,640,cs),
(332,640,o),
(258,529,o),
(220,312,cs),
(212,264,o),
(206,222,o),
(206,185,cs),
(206,53,o),
(268,-15,o),
(441,-15,cs)
);
},
{
closed = 1;
nodes = (
(227,21,o),
(217,34,o),
(209,48,c,{
name = hr01;
}),
(-107,48,l),
(239,11,l)
);
},
{
closed = 1;
nodes = (
(183,116,o),
(181,130,o),
(179,145,c),
(-203,145,l),
(186,103,l)
);
},
{
closed = 1;
nodes = (
(178,212,o),
(179,226,o),
(181,241,c),
(-216,241,l),
(178,199,l)
);
},
{
closed = 1;
nodes = (
(189,302,o),
(190,309,o),
(192,317,c),
(195,337,l),
(-205,337,l),
(188,295,l)
);
},
{
closed = 1;
nodes = (
(219,433,l),
(-181,433,l),
(207,392,l)
);
},
{
closed = 1;
nodes = (
(246,503,o),
(253,516,o),
(260,529,c),
(-134,529,l),
(240,489,l)
);
},
{
closed = 1;
nodes = (
(324,605,o),
(339,615,o),
(355,625,c),
(4,625,l),
(310,592,l)
);
}
);
width = 767;
}
);
unicode = 71;
},
{
glyphname = Gbreve;
lastChange = "2023-02-08 10:46:22 +0000";
layers = (
{
background = {
shapes = (
{
closed = 1;
nodes = (
(522,145,o),
(495,142,o),
(457,142,cs),
(394,142,l),
(443,425,ls),
(450,467,o),
(487,475,o),
(562,475,cs),
(596,475,o),
(654,470,o),
(702,461,c),
(757,614,l),
(721,627,o),
(627,640,o),
(578,640,cs),
(332,640,o),
(258,529,o),
(220,312,cs),
(212,264,o),
(206,222,o),
(206,185,cs),
(206,53,o),
(268,-15,o),
(441,-15,cs),
(508,-15,o),
(599,-1,o),
(683,30,c),
(742,364,l),
(513,364,l),
(486,211,l),
(534,211,l),
(529,184,ls)
);
},
{
closed = 1;
nodes = (
(195,337,l),
(-205,337,l),
(188,295,l),
(189,302,o),
(190,309,o),
(192,317,c)
);
},
{
closed = 1;
nodes = (
(-216,241,l),
(178,199,l),
(178,212,o),
(179,226,o),
(181,241,c)
);
},
{
closed = 1;
nodes = (
(-181,433,l),
(207,392,l),
(219,433,l)
);
},
{
closed = 1;
nodes = (
(-203,145,l),
(186,103,l),
(183,116,o),
(181,130,o),
(179,145,c)
);
},
{
closed = 1;
nodes = (
(-134,529,l),
(240,489,l),
(246,503,o),
(253,516,o),
(260,529,c)
);
},
{
closed = 1;
nodes = (
(-107,48,l),
(239,11,l),
(227,21,o),
(217,34,o),
(209,48,c,{
name = hr01;
})
);
},
{
closed = 1;
nodes = (
(4,625,l),
(310,592,l),
(324,605,o),
(339,615,o),
(355,625,c)
);
},
{
closed = 1;
nodes = (
(430,724,o),
(422,737,o),
(413,752,c),
(44,752,l),
(442,713,l,{
name = hr00;
})
);
},
{
closed = 1;
nodes = (
(16,833,l),
(402,795,l),
(399,807,o),
(396,819,o),
(394,833,c)
);
},
{
closed = 1;
nodes = (
(425,829,l),
(429,736,o),
(491,690,o),
(562,690,cs),
(634,690,o),
(713,736,o),
(750,829,c),
(652,844,l),
(637,808,o),
(607,789,o),
(580,789,cs),
(554,789,o),
(530,808,o),
(529,844,c)
);
}
);
};
layerId = master01;
shapes = (
{
ref = G;
},
{
pos = (386,0);
ref = brevecomb.case;
}
);
width = 767;
}
);
unicode = 286;
},
{
glyphname = Gcircumflex;
lastChange = "2023-02-08 10:46:22 +0000";
layers = (
{
background = {
shapes = (
{
closed = 1;
nodes = (
(522,145,o),
(495,142,o),
(457,142,cs),
(394,142,l),
(443,425,ls),
(450,467,o),
(487,475,o),
(562,475,cs),
(596,475,o),
(654,470,o),
(702,461,c),
(757,614,l),
(721,627,o),
(627,640,o),
(578,640,cs),
(332,640,o),
(258,529,o),
(220,312,cs),
(212,264,o),
(206,222,o),
(206,185,cs),
(206,53,o),
(268,-15,o),
(441,-15,cs),
(508,-15,o),
(599,-1,o),
(683,30,c),
(742,364,l),
(513,364,l),
(486,211,l),
(534,211,l),
(529,184,ls)
);
},
{
closed = 1;
nodes = (
(195,337,l),
(-205,337,l),
(188,295,l),
(189,302,o),
(190,309,o),
(192,317,c)
);
},
{
closed = 1;
nodes = (
(-216,241,l),
(178,199,l),
(178,212,o),
(179,226,o),
(181,241,c)
);
},
{
closed = 1;
nodes = (
(-181,433,l),
(207,392,l),
(219,433,l)
);
},
{
closed = 1;
nodes = (
(-203,145,l),
(186,103,l),
(183,116,o),
(181,130,o),
(179,145,c)
);
},
{
closed = 1;
nodes = (
(-134,529,l),
(240,489,l),
(246,503,o),
(253,516,o),
(260,529,c)
);
},
{
closed = 1;
nodes = (
(-107,48,l),
(239,11,l),
(227,21,o),
(217,34,o),
(209,48,c,{
name = hr01;
})
);
},
{
closed = 1;
nodes = (
(4,625,l),
(310,592,l),
(324,605,o),
(339,615,o),
(355,625,c)
);
},
{
closed = 1;
nodes = (
(572,880,o),
(566,877,o),
(561,871,cs),
(429,726,l),
(477,677,l),
(576,740,l),
(654,677,l),
(720,726,l),
(637,871,ls),
(634,876,o),
(631,880,o),
(624,880,cs),
(579,880,ls,{
name = hr00;
})
);
},
{
closed = 1;
nodes = (
(485,833,l),
(127,833,l),
(450,794,l)
);
},
{
closed = 1;
nodes = (
(412,752,l),
(46,752,l),
(376,713,l)
);
}
);
};
layerId = master01;
shapes = (
{
ref = G;
},
{
pos = (390,0);
ref = circumflexcomb.case;
}
);
width = 767;
}
);
unicode = 284;
},
{
glyphname = Gcommaaccent;
lastChange = "2023-02-08 10:46:26 +0000";
layers = (
{
background = {
anchors = (
{
name = bottom;
pos = (304,-371);
}
);
shapes = (
{
closed = 1;
nodes = (
(522,145,o),
(495,142,o),
(457,142,cs),
(394,142,l),
(443,425,ls),
(450,467,o),
(487,475,o),
(562,475,cs),
(596,475,o),
(654,470,o),
(702,461,c),
(757,614,l),
(721,627,o),
(627,640,o),
(578,640,cs),
(332,640,o),
(258,529,o),
(220,312,cs),
(212,264,o),
(206,222,o),
(206,185,cs),
(206,53,o),
(268,-15,o),
(441,-15,cs),
(508,-15,o),
(599,-1,o),
(683,30,c),
(742,364,l),
(513,364,l),
(486,211,l),
(534,211,l),
(529,184,ls)
);
},
{
closed = 1;
nodes = (
(195,337,l),
(-205,337,l),
(188,295,l),
(189,302,o),
(190,309,o),
(192,317,c)
);
},
{
closed = 1;
nodes = (
(-216,241,l),
(178,199,l),
(178,212,o),
(179,226,o),
(181,241,c)
);
},
{
closed = 1;
nodes = (
(-181,433,l),
(207,392,l),
(219,433,l)
);
},
{
closed = 1;
nodes = (
(-203,145,l),
(186,103,l),
(183,116,o),
(181,130,o),
(179,145,c)
);
},
{
closed = 1;
nodes = (
(-134,529,l),
(240,489,l),
(246,503,o),
(253,516,o),
(260,529,c)
);
},
{
closed = 1;
nodes = (
(-107,48,l),
(239,11,l),
(227,21,o),
(217,34,o),
(209,48,c,{
name = hr01;
})
);
},
{
closed = 1;
nodes = (
(4,625,l),
(310,592,l),
(324,605,o),
(339,615,o),
(355,625,c)
);
},
{
closed = 1;
nodes = (
(322,-165,o),
(321,-174,o),
(321,-182,cs),
(321,-210,o),
(333,-226,o),
(367,-232,c),
(325,-342,l),
(405,-371,l),
(479,-269,ls),
(512,-218,o),
(535,-170,o),
(535,-113,cs),
(535,-67,o),
(513,-48,o),
(447,-48,cs),
(362,-48,o),
(339,-79,o),
(324,-155,cs,{
name = hr00;
})
);
},
{
closed = 1;
nodes = (
(328,-255,l),
(306,-246,o),
(295,-222,o),
(290,-206,c),
(77,-206,l)
);
},
{
closed = 1;
nodes = (
(72,-109,l),
(294,-154,l),
(296,-136,o),
(299,-122,o),
(303,-109,c)
);
}
);
};
layerId = master01;
shapes = (
{
ref = G;
},
{
pos = (204,0);
ref = commaaccentcomb;
}
);
width = 767;
}
);
unicode = 290;
},
{
glyphname = Gdotaccent;
lastChange = "2023-02-08 10:46:22 +0000";
layers = (
{
background = {
shapes = (
{
closed = 1;
nodes = (
(522,145,o),
(495,142,o),
(457,142,cs),
(394,142,l),
(443,425,ls),
(450,467,o),
(487,475,o),
(562,475,cs),
(596,475,o),
(654,470,o),
(702,461,c),
(757,614,l),
(721,627,o),
(627,640,o),
(578,640,cs),
(332,640,o),
(258,529,o),
(220,312,cs),
(212,264,o),
(206,222,o),
(206,185,cs),
(206,53,o),
(268,-15,o),
(441,-15,cs),
(508,-15,o),
(599,-1,o),
(683,30,c),
(742,364,l),
(513,364,l),
(486,211,l),
(534,211,l),
(529,184,ls)
);
},
{
closed = 1;
nodes = (
(195,337,l),
(-205,337,l),
(188,295,l),
(189,302,o),
(190,309,o),
(192,317,c)
);
},
{
closed = 1;
nodes = (
(-216,241,l),
(178,199,l),
(178,212,o),
(179,226,o),
(181,241,c)
);
},
{
closed = 1;
nodes = (
(-181,433,l),
(207,392,l),
(219,433,l)
);
},
{
closed = 1;
nodes = (
(-203,145,l),
(186,103,l),
(183,116,o),
(181,130,o),
(179,145,c)
);
},
{
closed = 1;
nodes = (
(-134,529,l),
(240,489,l),
(246,503,o),
(253,516,o),
(260,529,c)
);
},
{
closed = 1;
nodes = (
(-107,48,l),
(239,11,l),
(227,21,o),
(217,34,o),
(209,48,c,{
name = hr01;
})
);
},
{
closed = 1;
nodes = (
(4,625,l),
(310,592,l),
(324,605,o),
(339,615,o),
(355,625,c)
);
},
{
closed = 1;
nodes = (
(485,692,o),
(506,677,o),
(564,677,cs),
(651,677,o),
(676,736,o),
(676,810,cs),
(676,852,o),
(656,869,o),
(598,869,cs),
(510,869,o),
(485,806,o),
(485,732,cs)
);
},
{
closed = 1;
nodes = (
(464,809,o),
(471,827,o),
(475,833,c,{
name = hr01;
}),
(110,833,l),
(461,794,l)
);
},
{
closed = 1;
nodes = (
(455,721,o),
(455,728,o),
(455,736,cs),
(455,741,o),
(455,747,o),
(456,752,c,{
name = hr02;
}),
(90,752,l),
(456,713,l)
);
}
);
};
layerId = master01;
shapes = (
{
ref = G;
},
{
pos = (449,0);
ref = dotaccentcomb.case;
}
);
width = 767;
}
);
unicode = 288;
},
{
glyphname = H;
lastChange = "2023-02-08 10:46:36 +0000";
layers = (
{
anchors = (
{
name = bottom;
pos = (423,0);
},
{
name = center;
pos = (423,313);
},
{
name = top;
pos = (403,625);
},
{
name = topleft;
pos = (20,625);
}
);
background = {
shapes = (
{
closed = 1;
nodes = (
(727,0,l),
(837,625,l),
(647,625,l),
(608,404,l),
(465,404,l),
(504,625,l),
(314,625,l),
(204,0,l),
(394,0,l),
(432,221,l),
(575,221,l),
(537,0,l,{
name = hr00;
})
);
},
{
closed = 1;
nodes = (
(182,48,l),
(-250,48,l),
(174,3,l)
);
},
{
closed = 1;
nodes = (
(216,241,l),
(-216,241,l),
(208,196,l)
);
},
{
closed = 1;
nodes = (
(233,337,l),
(-199,337,l),
(225,292,l)
);
},
{
closed = 1;
nodes = (
(250,433,l),
(-182,433,l),
(242,388,l)
);
},
{
closed = 1;
nodes = (
(266,529,l),
(-165,529,l),
(259,484,l)
);
},
{
closed = 1;
nodes = (
(199,145,l),
(-233,145,l),
(191,100,l)
);
},
{
closed = 1;
nodes = (
(283,625,l),
(-148,625,l),
(275,580,l)
);
}
);
};
layerId = master01;
shapes = (
{
closed = 1;
nodes = (
(394,0,l),
(432,221,l),
(575,221,l),
(537,0,l,{
name = hr00;
}),
(727,0,l),
(837,625,l),
(647,625,l),
(608,404,l),
(465,404,l),
(504,625,l),
(314,625,l),
(204,0,l)
);
},
{
closed = 1;
nodes = (
(182,48,l),
(-250,48,l),
(174,3,l)
);
},
{
closed = 1;
nodes = (
(199,145,l),
(-233,145,l),
(191,100,l)
);
},
{
closed = 1;
nodes = (
(216,241,l),
(-216,241,l),
(208,196,l)
);
},
{
closed = 1;
nodes = (
(233,337,l),
(-199,337,l),
(225,292,l)
);
},
{
closed = 1;
nodes = (
(250,433,l),
(-182,433,l),
(242,388,l)
);
},
{
closed = 1;
nodes = (
(266,529,l),
(-165,529,l),
(259,484,l)
);
},
{
closed = 1;
nodes = (
(283,625,l),
(-148,625,l),
(275,580,l)
);
}
);
width = 846;
}
);
unicode = 72;
},
{
glyphname = Hbar;
lastChange = "2023-02-08 10:37:52 +0000";
layers = (
{
background = {
shapes = (
{
closed = 1;
nodes = (
(727,0,l),
(837,625,l),
(647,625,l),
(608,404,l),
(465,404,l),
(504,625,l),
(314,625,l),
(204,0,l),
(394,0,l),
(432,221,l),
(575,221,l),
(537,0,l,{
name = hr00;
})
);
},
{
closed = 1;
nodes = (
(182,48,l),
(-250,48,l),
(174,3,l)
);
},
{
closed = 1;
nodes = (
(216,241,l),
(-216,241,l),
(208,196,l)
);
},
{
closed = 1;
nodes = (
(233,337,l),
(-199,337,l),
(225,292,l)
);
},
{
closed = 1;
nodes = (
(250,433,l),
(-182,433,l),
(242,388,l)
);
},
{
closed = 1;
nodes = (
(199,145,l),
(-233,145,l),
(191,100,l)
);
},
{
closed = 1;
nodes = (
(283,625,l),
(-148,625,l),
(275,580,l)
);
},
{
closed = 1;
nodes = (
(917,483,l),
(926,529,l),
(201,529,l),
(193,483,l)
);
}
);
};
layerId = master01;
shapes = (
{
closed = 1;
nodes = (
(394,0,l),
(432,221,l),
(575,221,l),
(537,0,l,{
name = hr00;
}),
(727,0,l),
(837,625,l),
(647,625,l),
(608,404,l),
(465,404,l),
(504,625,l),
(314,625,l),
(204,0,l)
);
},
{
closed = 1;
nodes = (
(182,48,l),
(-250,48,l),
(174,3,l)
);
},
{
closed = 1;
nodes = (
(199,145,l),
(-233,145,l),
(191,100,l)
);
},
{
closed = 1;
nodes = (
(216,241,l),
(-216,241,l),
(208,196,l)
);
},
{
closed = 1;
nodes = (
(233,337,l),
(-199,337,l),
(225,292,l)
);
},
{
closed = 1;
nodes = (
(250,433,l),
(-182,433,l),
(242,388,l)
);
},
{
closed = 1;
nodes = (
(283,625,l),
(-148,625,l),
(275,580,l)
);
},
{
closed = 1;
nodes = (
(917,483,l),
(926,529,l),
(201,529,l),
(193,483,l)
);
}
);
width = 846;
}
);
unicode = 294;
},
{
glyphname = Hcircumflex;
lastChange = "2023-02-08 10:46:36 +0000";
layers = (
{
background = {
shapes = (
{
closed = 1;
nodes = (
(727,0,l),
(837,625,l),
(647,625,l),
(608,404,l),
(465,404,l),
(504,625,l),
(314,625,l),
(204,0,l),
(394,0,l),
(432,221,l),
(575,221,l),
(537,0,l,{
name = hr00;
})
);
},
{
closed = 1;
nodes = (
(182,48,l),
(-250,48,l),
(174,3,l)
);
},
{
closed = 1;
nodes = (
(216,241,l),
(-216,241,l),
(208,196,l)
);
},
{
closed = 1;
nodes = (
(233,337,l),
(-199,337,l),
(225,292,l)
);
},
{
closed = 1;
nodes = (
(250,433,l),
(-182,433,l),
(242,388,l)
);
},
{
closed = 1;
nodes = (
(266,529,l),
(-165,529,l),
(259,484,l)
);
},
{
closed = 1;
nodes = (
(199,145,l),
(-233,145,l),
(191,100,l)
);
},
{
closed = 1;
nodes = (
(283,625,l),
(-148,625,l),
(275,580,l)
);
},
{
closed = 1;
nodes = (
(592,880,o),
(586,877,o),
(581,871,cs),
(449,726,l),
(497,677,l),
(596,740,l),
(674,677,l),
(740,726,l),
(657,871,ls),
(654,876,o),
(651,880,o),
(644,880,cs),
(599,880,ls,{
name = hr00;
})
);
},
{
closed = 1;
nodes = (
(505,833,l),
(147,833,l),
(470,794,l)
);
},
{
closed = 1;
nodes = (
(432,752,l),
(66,752,l),
(396,713,l)
);
}
);
};
layerId = master01;
shapes = (
{
ref = H;
},
{
pos = (409,0);
ref = circumflexcomb.case;
}
);
width = 846;
}
);
unicode = 292;
},
{
glyphname = I;
lastChange = "2023-02-08 10:47:17 +0000";
layers = (
{
anchors = (
{
name = bottom;
pos = (252,0);
},
{
name = ogonek;
pos = (410,21);
},
{
name = top;
pos = (240,625);
},
{
name = topleft;
pos = (20,625);
}
);
background = {
shapes = (
{
closed = 1;
nodes = (
(394,0,l),
(504,625,l),
(314,625,l),
(204,0,l,{
name = hr00;
})
);
},
{
closed = 1;
nodes = (
(182,48,l),
(-250,48,l),
(174,3,l)
);
},
{
closed = 1;
nodes = (
(216,241,l),
(-216,241,l),
(208,196,l)
);
},
{
closed = 1;
nodes = (
(233,337,l),
(-199,337,l),
(225,292,l)
);
},
{
closed = 1;
nodes = (
(250,433,l),
(-182,433,l),
(242,388,l)
);
},
{
closed = 1;
nodes = (
(266,529,l),
(-165,529,l),
(259,484,l)
);
},
{
closed = 1;
nodes = (
(199,145,l),
(-233,145,l),
(191,100,l)
);
},
{
closed = 1;
nodes = (
(283,625,l),
(-148,625,l),
(275,580,l)
);
}
);
};
layerId = master01;
shapes = (
{
closed = 1;
nodes = (
(394,0,l),
(504,625,l),
(314,625,l),
(204,0,l,{
name = hr00;
})
);
},
{
closed = 1;
nodes = (
(182,48,l),
(-250,48,l),
(174,3,l)
);
},
{
closed = 1;
nodes = (
(199,145,l),
(-233,145,l),
(191,100,l)
);
},
{
closed = 1;
nodes = (
(216,241,l),
(-216,241,l),
(208,196,l)
);
},
{
closed = 1;
nodes = (
(233,337,l),
(-199,337,l),
(225,292,l)
);
},
{
closed = 1;
nodes = (
(250,433,l),
(-182,433,l),
(242,388,l)
);
},
{
closed = 1;
nodes = (
(266,529,l),
(-165,529,l),
(259,484,l)
);
},
{
closed = 1;
nodes = (
(283,625,l),
(-148,625,l),
(275,580,l)
);
}
);
width = 504;
}
);
unicode = 73;
},
{
glyphname = IJ;
lastChange = "2023-02-08 10:34:42 +0000";
layers = (
{
background = {
shapes = (
{
closed = 1;
nodes = (
(394,0,l),
(504,625,l),
(314,625,l),
(204,0,l,{
name = hr00;
})
);
},
{
closed = 1;
nodes = (
(182,48,l),
(-250,48,l),
(174,3,l)
);
},
{
closed = 1;
nodes = (
(216,241,l),
(-216,241,l),
(208,196,l)
);
},
{
closed = 1;
nodes = (
(233,337,l),
(-199,337,l),
(225,292,l)
);
},
{
closed = 1;
nodes = (
(250,433,l),
(-182,433,l),
(242,388,l)
);
},
{
closed = 1;
nodes = (
(266,529,l),
(-165,529,l),
(259,484,l)
);
},
{
closed = 1;
nodes = (
(199,145,l),
(-233,145,l),
(191,100,l)
);
},
{
closed = 1;
nodes = (
(283,625,l),
(-148,625,l),
(275,580,l)
);
},
{
closed = 1;
nodes = (
(681,0,l),
(829,0,ls),
(924,0,o),
(986,57,o),
(1005,165,cs),
(1086,625,l),
(818,625,l),
(789,465,l),
(867,465,l),
(819,190,ls),
(814,162,o),
(794,160,o),
(769,160,cs),
(710,160,l,{
name = hr00;
})
);
},
{
closed = 1;
nodes = (
(659,48,l),
(227,48,l),
(651,3,l)
);
},
{
closed = 1;
nodes = (
(797,241,l),
(365,241,l),
(789,196,l)
);
},
{
closed = 1;
nodes = (
(814,337,l),
(382,337,l),
(806,292,l)
);
},
{
closed = 1;
nodes = (
(831,433,l),
(399,433,l),
(823,388,l)
);
},
{
closed = 1;
nodes = (
(768,529,l),
(337,529,l),
(761,484,l)
);
},
{
closed = 1;
nodes = (
(676,145,l),
(244,145,l),
(668,100,l)
);
},
{
closed = 1;
nodes = (
(787,625,l),
(356,625,l),
(779,580,l)
);
}
);
};
layerId = master01;
shapes = (
{
ref = I;
},
{
pos = (504,0);
ref = J;
}
);
width = 1070;
}
);
unicode = 306;
},
{
glyphname = Iacute;
lastChange = "2023-02-08 10:46:55 +0000";
layers = (
{
background = {
shapes = (
{
closed = 1;
nodes = (
(394,0,l),
(504,625,l),
(314,625,l),
(204,0,l)
);
},
{
closed = 1;
nodes = (
(182,48,l),
(-250,48,l),
(174,3,l)
);
},
{
closed = 1;
nodes = (
(216,241,l),
(-216,241,l),
(208,196,l)
);
},
{
closed = 1;
nodes = (
(233,337,l),
(-199,337,l),
(225,292,l)
);
},
{
closed = 1;
nodes = (
(250,433,l),
(-182,433,l),
(242,388,l)
);
},
{
closed = 1;
nodes = (
(266,529,l),
(-165,529,l),
(259,484,l)
);
},
{
closed = 1;
nodes = (
(199,145,l),
(-233,145,l),
(191,100,l)
);
},
{
closed = 1;
nodes = (
(283,625,l),
(-148,625,l),
(275,580,l)
);
},
{
closed = 1;
nodes = (
(527,717,o),
(531,720,o),
(538,726,cs),
(582,764,o),
(583,765,o),
(583,765,c),
(585,768,o),
(587,771,o),
(587,776,cs),
(587,781,o),
(584,787,o),
(578,794,cs),
(515,868,ls),
(510,874,o),
(504,879,o),
(497,879,cs),
(493,879,o),
(489,877,o),
(486,875,cs),
(297,736,l),
(338,679,l),
(512,714,ls,{
name = hr01;
})
);
},
{
closed = 1;
nodes = (
(377,833,l),
(-36,833,l),
(324,794,l)
);
},
{
closed = 1;
nodes = (
(266,752,l),
(-147,752,l),
(213,713,l)
);
}
);
};
layerId = master01;
shapes = (
{
ref = I;
},
{
pos = (277,0);
ref = acutecomb.case;
}
);
width = 504;
}
);
unicode = 205;
},
{
glyphname = Ibreve;
lastChange = "2023-02-08 10:46:55 +0000";
layers = (
{
background = {
shapes = (
{
closed = 1;
nodes = (
(394,0,l),
(504,625,l),
(314,625,l),
(204,0,l,{
name = hr00;
})
);
},
{
closed = 1;
nodes = (
(182,48,l),
(-250,48,l),
(174,3,l)
);
},
{
closed = 1;
nodes = (
(216,241,l),
(-216,241,l),
(208,196,l)
);
},
{
closed = 1;
nodes = (
(233,337,l),
(-199,337,l),
(225,292,l)
);
},
{
closed = 1;
nodes = (
(250,433,l),
(-182,433,l),
(242,388,l)
);
},
{
closed = 1;
nodes = (
(266,529,l),
(-165,529,l),
(259,484,l)
);
},
{
closed = 1;
nodes = (
(199,145,l),
(-233,145,l),
(191,100,l)
);
},
{
closed = 1;
nodes = (
(283,625,l),
(-148,625,l),
(275,580,l)
);
},
{
closed = 1;
nodes = (
(289,724,o),
(281,737,o),
(272,752,c),
(-97,752,l),
(301,713,l,{
name = hr00;
})
);
},
{
closed = 1;
nodes = (
(-125,833,l),
(261,795,l),
(258,807,o),
(255,819,o),
(253,833,c)
);
},
{
closed = 1;
nodes = (
(284,829,l),
(288,736,o),
(350,690,o),
(421,690,cs),
(493,690,o),
(572,736,o),
(609,829,c),
(511,844,l),
(496,808,o),
(466,789,o),
(439,789,cs),
(413,789,o),
(389,808,o),
(388,844,c)
);
}
);
};
layerId = master01;
shapes = (
{
ref = I;
},
{
pos = (242,0);
ref = brevecomb.case;
}
);
width = 504;
}
);
unicode = 300;
},
{
glyphname = Icircumflex;
lastChange = "2023-02-08 10:46:55 +0000";
layers = (
{
background = {
shapes = (
{
closed = 1;
nodes = (
(394,0,l),
(504,625,l),
(314,625,l),
(204,0,l)
);
},
{
closed = 1;
nodes = (
(182,48,l),
(-250,48,l),
(174,3,l)
);
},
{
closed = 1;
nodes = (
(216,241,l),
(-216,241,l),
(208,196,l)
);
},
{
closed = 1;
nodes = (
(233,337,l),
(-199,337,l),
(225,292,l)
);
},
{
closed = 1;
nodes = (
(250,433,l),
(-182,433,l),
(242,388,l)
);
},
{
closed = 1;
nodes = (
(266,529,l),
(-165,529,l),
(259,484,l)
);
},
{
closed = 1;
nodes = (
(199,145,l),
(-233,145,l),
(191,100,l)
);
},
{
closed = 1;
nodes = (
(283,625,l),
(-148,625,l),
(275,580,l)
);
},
{
closed = 1;
nodes = (
(420,880,o),
(414,877,o),
(409,871,cs),
(277,726,l),
(325,677,l),
(424,740,l),
(502,677,l),
(568,726,l),
(485,871,ls),
(482,876,o),
(479,880,o),
(472,880,cs),
(427,880,ls,{
name = hr01;
})
);
},
{
closed = 1;
nodes = (
(333,833,l),
(-25,833,l),
(298,794,l)
);
},
{
closed = 1;
nodes = (
(260,752,l),
(-106,752,l),
(224,713,l)
);
}
);
};
layerId = master01;
shapes = (
{
ref = I;
},
{
pos = (246,0);
ref = circumflexcomb.case;
}
);
width = 504;
}
);
unicode = 206;
},
{
glyphname = Idieresis;
lastChange = "2023-02-08 10:47:00 +0000";
layers = (
{
background = {
shapes = (
{
closed = 1;
nodes = (
(394,0,l),
(504,625,l),
(314,625,l),
(204,0,l)
);
},
{
closed = 1;
nodes = (
(182,48,l),
(-250,48,l),
(174,3,l)
);
},
{
closed = 1;
nodes = (
(216,241,l),
(-216,241,l),
(208,196,l)
);
},
{
closed = 1;
nodes = (
(233,337,l),
(-199,337,l),
(225,292,l)
);
},
{
closed = 1;
nodes = (
(250,433,l),
(-182,433,l),
(242,388,l)
);
},
{
closed = 1;
nodes = (
(266,529,l),
(-165,529,l),
(259,484,l)
);
},
{
closed = 1;
nodes = (
(199,145,l),
(-233,145,l),
(191,100,l)
);
},
{
closed = 1;
nodes = (
(283,625,l),
(-148,625,l),
(275,580,l)
);
},
{
closed = 1;
nodes = (
(488,848,o),
(463,819,o),
(463,740,cs),
(463,706,o),
(479,692,o),
(527,692,cs),
(593,692,o),
(618,721,o),
(618,800,cs),
(618,834,o),
(602,848,o),
(554,848,cs,{
name = hr01;
})
);
},
{
closed = 1;
nodes = (
(280,848,o),
(255,819,o),
(255,740,cs),
(255,706,o),
(271,692,o),
(319,692,cs),
(384,692,o),
(410,721,o),
(410,800,cs),
(410,834,o),
(393,848,o),
(346,848,cs)
);
},
{
closed = 1;
nodes = (
(-74,833,l),
(228,787,l),
(231,805,o),
(235,820,o),
(242,833,c,{
name = hr02;
})
);
},
{
closed = 1;
nodes = (
(225,754,l,{
name = hr03;
}),
(-74,754,l),
(228,708,l),
(226,717,o),
(225,728,o),
(225,740,c)
);
}
);
};
layerId = master01;
shapes = (
{
ref = I;
},
{
pos = (199,0);
ref = dieresiscomb.case;
}
);
width = 504;
}
);
unicode = 207;
},
{
glyphname = Idotaccent;
lastChange = "2023-02-08 10:46:55 +0000";
layers = (
{
background = {
shapes = (
{
closed = 1;
nodes = (
(394,0,l),
(504,625,l),
(314,625,l),
(204,0,l,{
name = hr00;
})
);
},
{
closed = 1;
nodes = (
(182,48,l),
(-250,48,l),
(174,3,l)
);
},
{
closed = 1;
nodes = (
(216,241,l),
(-216,241,l),
(208,196,l)
);
},
{
closed = 1;
nodes = (
(233,337,l),
(-199,337,l),
(225,292,l)
);
},
{
closed = 1;
nodes = (
(250,433,l),
(-182,433,l),
(242,388,l)
);
},
{
closed = 1;
nodes = (
(266,529,l),
(-165,529,l),
(259,484,l)
);
},
{
closed = 1;
nodes = (
(199,145,l),
(-233,145,l),
(191,100,l)
);
},
{
closed = 1;
nodes = (
(283,625,l),
(-148,625,l),
(275,580,l)
);
},
{
closed = 1;
nodes = (
(354,692,o),
(375,677,o),
(433,677,cs),
(520,677,o),
(545,736,o),
(545,810,cs),
(545,852,o),
(525,869,o),
(467,869,cs),
(379,869,o),
(354,806,o),
(354,732,cs)
);
},
{
closed = 1;
nodes = (
(333,809,o),
(340,827,o),
(344,833,c,{
name = hr01;
}),
(-21,833,l),
(330,794,l)
);
},
{
closed = 1;
nodes = (
(324,721,o),
(324,728,o),
(324,736,cs),
(324,741,o),
(324,747,o),
(325,752,c,{
name = hr02;
}),
(-41,752,l),
(325,713,l)
);
}
);
};
layerId = master01;
shapes = (
{
ref = I;
},
{
pos = (305,0);
ref = dotaccentcomb.case;
}
);
width = 504;
}
);
unicode = 304;
},
{
glyphname = Igrave;
lastChange = "2023-02-08 10:46:55 +0000";
layers = (
{
background = {
shapes = (
{
closed = 1;
nodes = (
(394,0,l),
(504,625,l),
(314,625,l),
(204,0,l)
);
},
{
closed = 1;
nodes = (
(182,48,l),
(-250,48,l),
(174,3,l)
);
},
{
closed = 1;
nodes = (
(216,241,l),
(-216,241,l),
(208,196,l)
);
},
{
closed = 1;
nodes = (
(233,337,l),
(-199,337,l),
(225,292,l)
);
},
{
closed = 1;
nodes = (
(250,433,l),
(-182,433,l),
(242,388,l)
);
},
{
closed = 1;
nodes = (
(266,529,l),
(-165,529,l),
(259,484,l)
);
},
{
closed = 1;
nodes = (
(199,145,l),
(-233,145,l),
(191,100,l)
);
},
{
closed = 1;
nodes = (
(283,625,l),
(-148,625,l),
(275,580,l)
);
},
{
closed = 1;
nodes = (
(558,736,l),
(369,875,ls),
(366,877,o),
(362,879,o),
(358,879,cs),
(351,879,o),
(345,874,o),
(340,868,cs),
(277,794,ls),
(272,788,o),
(268,781,o),
(268,775,cs),
(268,772,o),
(269,768,o),
(272,765,cs),
(317,726,ls),
(324,720,o),
(328,717,o),
(343,714,cs),
(517,679,l,{
name = hr01;
})
);
},
{
closed = 1;
nodes = (
(249,810,o),
(261,820,o),
(271,833,c),
(-153,833,l),
(242,794,l)
);
},
{
closed = 1;
nodes = (
(258,736,o),
(250,743,o),
(244,752,c),
(-123,752,l),
(285,713,l)
);
}
);
};
layerId = master01;
shapes = (
{
ref = I;
},
{
pos = (316,0);
ref = gravecomb.case;
}
);
width = 504;
}
);
unicode = 204;
},
{
glyphname = Imacron;
lastChange = "2023-02-08 10:46:55 +0000";
layers = (
{
background = {
anchors = (
{
name = top;
pos = (232,819);
}
);
shapes = (
{
closed = 1;
nodes = (
(394,0,l),
(504,625,l),
(314,625,l),
(204,0,l,{
name = hr00;
})
);
},
{
closed = 1;
nodes = (
(182,48,l),
(-250,48,l),
(174,3,l)
);
},
{
closed = 1;
nodes = (
(216,241,l),
(-216,241,l),
(208,196,l)
);
},
{
closed = 1;
nodes = (
(233,337,l),
(-199,337,l),
(225,292,l)
);
},
{
closed = 1;
nodes = (
(250,433,l),
(-182,433,l),
(242,388,l)
);
},
{
closed = 1;
nodes = (
(266,529,l),
(-165,529,l),
(259,484,l)
);
},
{
closed = 1;
nodes = (
(199,145,l),
(-233,145,l),
(191,100,l)
);
},
{
closed = 1;
nodes = (
(283,625,l),
(-148,625,l),
(275,580,l)
);
},
{
closed = 1;
nodes = (
(568,756,ls),
(570,770,o),
(572,782,o),
(572,790,cs),
(572,812,o),
(562,819,o),
(529,819,cs),
(294,819,l),
(283,756,ls),
(280,742,o),
(279,731,o),
(279,723,cs),
(279,700,o),
(290,692,o),
(323,692,cs),
(557,692,l,{
name = hr00;
})
);
},
{
closed = 1;
nodes = (
(263,819,l),
(-104,819,l),
(256,780,l)
);
},
{
closed = 1;
nodes = (
(250,705,o),
(249,715,o),
(249,724,cs),
(249,729,o),
(249,734,o),
(250,738,c),
(-108,738,l),
(252,697,l)
);
}
);
};
layerId = master01;
shapes = (
{
ref = I;
},
{
pos = (230,0);
ref = macroncomb.case;
}
);
width = 504;
}
);
unicode = 298;
},
{
glyphname = Iogonek;
lastChange = "2023-02-08 10:47:17 +0000";
layers = (
{
background = {
shapes = (
{
closed = 1;
nodes = (
(394,0,l),
(504,625,l),
(314,625,l),
(204,0,l,{
name = hr00;
})
);
},
{
closed = 1;
nodes = (
(182,48,l),
(-250,48,l),
(174,3,l)
);
},
{
closed = 1;
nodes = (
(216,241,l),
(-216,241,l),
(208,196,l)
);
},
{
closed = 1;
nodes = (
(233,337,l),
(-199,337,l),
(225,292,l)
);
},
{
closed = 1;
nodes = (
(250,433,l),
(-182,433,l),
(242,388,l)
);
},
{
closed = 1;
nodes = (
(266,529,l),
(-165,529,l),
(259,484,l)
);
},
{
closed = 1;
nodes = (
(199,145,l),
(-233,145,l),
(191,100,l)
);
},
{
closed = 1;
nodes = (
(283,625,l),
(-148,625,l),
(275,580,l)
);
},
{
closed = 1;
nodes = (
(303,21,l),
(244,-6,o),
(209,-50,o),
(209,-96,cs),
(209,-134,o),
(237,-165,o),
(302,-165,cs),
(329,-165,o),
(369,-160,o),
(405,-146,c),
(410,-58,l,{
name = hr01;
}),
(363,-58,ls),
(343,-58,o),
(336,-56,o),
(336,-42,cs),
(336,-38,o),
(337,-33,o),
(338,-26,c,{
name = hr02;
}),
(394,0,l),
(379,21,l)
);
},
{
closed = 1;
nodes = (
(179,-78,o),
(182,-68,o),
(185,-58,c,{
name = hr03;
}),
(-3,-58,l),
(179,-89,l)
);
},
{
closed = 1;
nodes = (
(194,-152,o),
(188,-141,o),
(184,-130,c),
(29,-130,l),
(203,-161,l)
);
}
);
};
layerId = master01;
shapes = (
{
ref = I;
},
{
pos = (68,0);
ref = ogonekcomb;
}
);
width = 504;
}
);
unicode = 302;
},
{
glyphname = Itilde;
lastChange = "2023-02-08 10:46:55 +0000";
layers = (
{
background = {
shapes = (
{
closed = 1;
nodes = (
(394,0,l),
(504,625,l),
(314,625,l),
(204,0,l,{
name = hr00;
})
);
},
{
closed = 1;
nodes = (
(182,48,l),
(-250,48,l),
(174,3,l)
);
},
{
closed = 1;
nodes = (
(216,241,l),
(-216,241,l),
(208,196,l)
);
},
{
closed = 1;
nodes = (
(233,337,l),
(-199,337,l),
(225,292,l)
);
},
{
closed = 1;
nodes = (
(250,433,l),
(-182,433,l),
(242,388,l)
);
},
{
closed = 1;
nodes = (
(266,529,l),
(-165,529,l),
(259,484,l)
);
},
{
closed = 1;
nodes = (
(199,145,l),
(-233,145,l),
(191,100,l)
);
},
{
closed = 1;
nodes = (
(283,625,l),
(-148,625,l),
(275,580,l)
);
},
{
closed = 1;
nodes = (
(451,839,o),
(434,861,o),
(402,861,cs),
(370,861,o),
(364,854,o),
(228,769,c),
(262,688,l),
(347,728,l),
(373,705,o),
(390,683,o),
(422,683,cs),
(454,683,o),
(460,690,o),
(596,775,c),
(563,856,l),
(477,816,l,{
name = hr00;
})
);
},
{
closed = 1;
nodes = (
(-92,833,l),
(202,787,l),
(274,833,l)
);
},
{
closed = 1;
nodes = (
(-92,754,l),
(221,708,l),
(202,754,l)
);
}
);
};
layerId = master01;
shapes = (
{
ref = I;
},
{
pos = (184,0);
ref = tildecomb.case;
}
);
width = 504;
}
);
unicode = 296;
},
{
glyphname = J;
lastChange = "2023-02-08 10:48:37 +0000";
layers = (
{
anchors = (
{
name = bottom;
pos = (283,0);
},
{
name = top;
pos = (283,625);
}
);
background = {
shapes = (
{
closed = 1;
nodes = (
(177,0,l),
(325,0,ls),
(420,0,o),
(482,57,o),
(501,165,cs),
(582,625,l),
(314,625,l),
(285,465,l),
(363,465,l),
(315,190,ls),
(310,162,o),
(290,160,o),
(265,160,cs),
(206,160,l,{
name = hr00;
})
);
},
{
closed = 1;
nodes = (
(155,48,l),
(-277,48,l),
(147,3,l)
);
},
{
closed = 1;
nodes = (
(293,241,l),
(-139,241,l),
(285,196,l)
);
},
{
closed = 1;
nodes = (
(310,337,l),
(-122,337,l),
(302,292,l)
);
},
{
closed = 1;
nodes = (
(327,433,l),
(-105,433,l),
(319,388,l)
);
},
{
closed = 1;
nodes = (
(264,529,l),
(-167,529,l),
(257,484,l)
);
},
{
closed = 1;
nodes = (
(172,145,l),
(-260,145,l),
(164,100,l)
);
},
{
closed = 1;
nodes = (
(283,625,l),
(-148,625,l),
(275,580,l)
);
}
);
};
layerId = master01;
shapes = (
{
closed = 1;
nodes = (
(325,0,ls),
(420,0,o),
(482,57,o),
(501,165,cs),
(582,625,l),
(314,625,l),
(285,465,l),
(363,465,l),
(315,190,ls),
(310,162,o),
(290,160,o),
(265,160,cs),
(206,160,l,{
name = hr00;
}),
(177,0,l)
);
},
{
closed = 1;
nodes = (
(155,48,l),
(-277,48,l),
(147,3,l)
);
},
{
closed = 1;
nodes = (
(172,145,l),
(-260,145,l),
(164,100,l)
);
},
{
closed = 1;
nodes = (
(293,241,l),
(-139,241,l),
(285,196,l)
);
},
{
closed = 1;
nodes = (
(310,337,l),
(-122,337,l),
(302,292,l)
);
},
{
closed = 1;
nodes = (
(327,433,l),
(-105,433,l),
(319,388,l)
);
},
{
closed = 1;
nodes = (
(264,529,l),
(-167,529,l),
(257,484,l)
);
},
{
closed = 1;
nodes = (
(283,625,l),
(-148,625,l),
(275,580,l)
);
}
);
width = 566;
}
);
unicode = 74;
},
{
glyphname = Jcircumflex;
lastChange = "2023-02-08 10:48:37 +0000";
layers = (
{
background = {
shapes = (
{
closed = 1;
nodes = (
(177,0,l),
(325,0,ls),
(420,0,o),
(482,57,o),
(501,165,cs),
(582,625,l),
(314,625,l),
(285,465,l),
(363,465,l),
(315,190,ls),
(310,162,o),
(290,160,o),
(265,160,cs),
(206,160,l,{
name = hr00;
})
);
},
{
closed = 1;
nodes = (
(155,48,l),
(-277,48,l),
(147,3,l)
);
},
{
closed = 1;
nodes = (
(293,241,l),
(-139,241,l),
(285,196,l)
);
},
{
closed = 1;
nodes = (
(310,337,l),
(-122,337,l),
(302,292,l)
);
},
{
closed = 1;
nodes = (
(327,433,l),
(-105,433,l),
(319,388,l)
);
},
{
closed = 1;
nodes = (
(264,529,l),
(-167,529,l),
(257,484,l)
);
},
{
closed = 1;
nodes = (
(172,145,l),
(-260,145,l),
(164,100,l)
);
},
{
closed = 1;
nodes = (
(283,625,l),
(-148,625,l),
(275,580,l)
);
},
{
closed = 1;
nodes = (
(472,880,o),
(466,877,o),
(461,871,cs),
(329,726,l),
(377,677,l),
(476,740,l),
(554,677,l),
(620,726,l),
(537,871,ls),
(534,876,o),
(531,880,o),
(524,880,cs),
(479,880,ls,{
name = hr00;
})
);
},
{
closed = 1;
nodes = (
(385,833,l),
(27,833,l),
(350,794,l)
);
},
{
closed = 1;
nodes = (
(312,752,l),
(-54,752,l),
(276,713,l)
);
}
);
};
layerId = master01;
shapes = (
{
ref = J;
},
{
pos = (289,0);
ref = circumflexcomb.case;
}
);
width = 566;
}
);
unicode = 308;
},
{
glyphname = K;
lastChange = "2023-02-08 10:48:42 +0000";
layers = (
{
anchors = (
{
name = bottom;
pos = (296,0);
},
{
name = top;
pos = (386,625);
}
);
background = {
shapes = (
{
closed = 1;
nodes = (
(449,272,l),
(449,266,o),
(448,260,o),
(448,253,cs),
(448,242,o),
(449,231,o),
(451,224,cs),
(506,0,l),
(711,0,l),
(620,318,l),
(816,625,l),
(611,625,l),
(485,418,ls),
(478,407,o),
(471,386,o),
(467,370,c),
(459,370,l),
(504,625,l),
(314,625,l),
(204,0,l),
(394,0,l),
(441,272,l,{
name = hr00;
})
);
},
{
closed = 1;
nodes = (
(182,48,l),
(-250,48,l),
(174,3,l)
);
},
{
closed = 1;
nodes = (
(216,241,l),
(-216,241,l),
(208,196,l)
);
},
{
closed = 1;
nodes = (
(233,337,l),
(-199,337,l),
(225,292,l)
);
},
{
closed = 1;
nodes = (
(250,433,l),
(-182,433,l),
(242,388,l)
);
},
{
closed = 1;
nodes = (
(266,529,l),
(-165,529,l),
(259,484,l)
);
},
{
closed = 1;
nodes = (
(199,145,l),
(-233,145,l),
(191,100,l)
);
},
{
closed = 1;
nodes = (
(283,625,l),
(-148,625,l),
(275,580,l)
);
}
);
};
layerId = master01;
shapes = (
{
closed = 1;
nodes = (
(394,0,l),
(441,272,l,{
name = hr00;
}),
(449,272,l),
(449,266,o),
(448,260,o),
(448,253,cs),
(448,242,o),
(449,231,o),
(451,224,cs),
(506,0,l),
(711,0,l),
(620,318,l),
(816,625,l),
(611,625,l),
(485,418,ls),
(478,407,o),
(471,386,o),
(467,370,c),
(459,370,l),
(504,625,l),
(314,625,l),
(204,0,l)
);
},
{
closed = 1;
nodes = (
(182,48,l),
(-250,48,l),
(174,3,l)
);
},
{
closed = 1;
nodes = (
(199,145,l),
(-233,145,l),
(191,100,l)
);
},
{
closed = 1;
nodes = (
(216,241,l),
(-216,241,l),
(208,196,l)
);
},
{
closed = 1;
nodes = (
(233,337,l),
(-199,337,l),
(225,292,l)
);
},
{
closed = 1;
nodes = (
(250,433,l),
(-182,433,l),
(242,388,l)
);
},
{
closed = 1;
nodes = (
(266,529,l),
(-165,529,l),
(259,484,l)
);
},
{
closed = 1;
nodes = (
(283,625,l),
(-148,625,l),
(275,580,l)
);
}
);
width = 771;
}
);
unicode = 75;
},
{
glyphname = Kcommaaccent;
lastChange = "2023-02-08 10:48:42 +0000";
layers = (
{
background = {
anchors = (
{
name = bottom;
pos = (296,-371);
}
);
shapes = (
{
closed = 1;
nodes = (
(449,272,l),
(449,266,o),
(448,260,o),
(448,253,cs),
(448,242,o),
(449,231,o),
(451,224,cs),
(506,0,l),
(711,0,l),
(620,318,l),
(816,625,l),
(611,625,l),
(485,418,ls),
(478,407,o),
(471,386,o),
(467,370,c),
(459,370,l),
(504,625,l),
(314,625,l),
(204,0,l),
(394,0,l),
(441,272,l,{
name = hr00;
})
);
},
{
closed = 1;
nodes = (
(182,48,l),
(-250,48,l),
(174,3,l)
);
},
{
closed = 1;
nodes = (
(216,241,l),
(-216,241,l),
(208,196,l)
);
},
{
closed = 1;
nodes = (
(233,337,l),
(-199,337,l),
(225,292,l)
);
},
{
closed = 1;
nodes = (
(250,433,l),
(-182,433,l),
(242,388,l)
);
},
{
closed = 1;
nodes = (
(266,529,l),
(-165,529,l),
(259,484,l)
);
},
{
closed = 1;
nodes = (
(199,145,l),
(-233,145,l),
(191,100,l)
);
},
{
closed = 1;
nodes = (
(283,625,l),
(-148,625,l),
(275,580,l)
);
},
{
closed = 1;
nodes = (
(314,-165,o),
(313,-174,o),
(313,-182,cs),
(313,-210,o),
(325,-226,o),
(359,-232,c),
(317,-342,l),
(397,-371,l),
(471,-269,ls),
(504,-218,o),
(527,-170,o),
(527,-113,cs),
(527,-67,o),
(505,-48,o),
(439,-48,cs),
(354,-48,o),
(331,-79,o),
(316,-155,cs,{
name = hr00;
})
);
},
{
closed = 1;
nodes = (
(320,-255,l),
(298,-246,o),
(287,-222,o),
(282,-206,c),
(69,-206,l)
);
},
{
closed = 1;
nodes = (
(64,-109,l),
(286,-154,l),
(288,-136,o),
(291,-122,o),
(295,-109,c)
);
}
);
};
layerId = master01;
shapes = (
{
ref = K;
},
{
pos = (196,0);
ref = commaaccentcomb;
}
);
width = 771;
}
);
unicode = 310;
},
{
glyphname = L;
lastChange = "2023-02-08 10:49:08 +0000";
layers = (
{
anchors = (
{
name = bottom;
pos = (241,0);
},
{
name = center;
pos = (311,313);
},
{
name = top;
pos = (237,625);
},
{
name = topright;
pos = (602,625);
}
);
background = {
shapes = (
{
closed = 1;
nodes = (
(612,160,l),
(422,160,l),
(504,625,l),
(314,625,l),
(204,0,l),
(584,0,l,{
name = hr00;
})
);
},
{
closed = 1;
nodes = (
(182,48,l),
(-250,48,l),
(174,3,l)
);
},
{
closed = 1;
nodes = (
(216,241,l),
(-216,241,l),
(208,196,l)
);
},
{
closed = 1;
nodes = (
(233,337,l),
(-199,337,l),
(225,292,l)
);
},
{
closed = 1;
nodes = (
(250,433,l),
(-182,433,l),
(242,388,l)
);
},
{
closed = 1;
nodes = (
(266,529,l),
(-165,529,l),
(259,484,l)
);
},
{
closed = 1;
nodes = (
(199,145,l),
(-233,145,l),
(191,100,l)
);
},
{
closed = 1;
nodes = (
(283,625,l),
(-148,625,l),
(275,580,l)
);
}
);
};
layerId = master01;
shapes = (
{
closed = 1;
nodes = (
(584,0,l,{
name = hr00;
}),
(612,160,l),
(422,160,l),
(504,625,l),
(314,625,l),
(204,0,l)
);
},
{
closed = 1;
nodes = (
(182,48,l),
(-250,48,l),
(174,3,l)
);
},
{
closed = 1;
nodes = (
(199,145,l),
(-233,145,l),
(191,100,l)
);
},
{
closed = 1;
nodes = (
(216,241,l),
(-216,241,l),
(208,196,l)
);
},
{
closed = 1;
nodes = (
(233,337,l),
(-199,337,l),
(225,292,l)
);
},
{
closed = 1;
nodes = (
(250,433,l),
(-182,433,l),
(242,388,l)
);
},
{
closed = 1;
nodes = (
(266,529,l),
(-165,529,l),
(259,484,l)
);
},
{
closed = 1;
nodes = (
(283,625,l),
(-148,625,l),
(275,580,l)
);
}
);
width = 622;
}
);
unicode = 76;
},
{
glyphname = Lacute;
lastChange = "2023-02-08 10:48:54 +0000";
layers = (
{
background = {
shapes = (
{
closed = 1;
nodes = (
(612,160,l),
(422,160,l),
(504,625,l),
(314,625,l),
(204,0,l),
(584,0,l,{
name = hr00;
})
);
},
{
closed = 1;
nodes = (
(182,48,l),
(-250,48,l),
(174,3,l)
);
},
{
closed = 1;
nodes = (
(216,241,l),
(-216,241,l),
(208,196,l)
);
},
{
closed = 1;
nodes = (
(233,337,l),
(-199,337,l),
(225,292,l)
);
},
{
closed = 1;
nodes = (
(250,433,l),
(-182,433,l),
(242,388,l)
);
},
{
closed = 1;
nodes = (
(266,529,l),
(-165,529,l),
(259,484,l)
);
},
{
closed = 1;
nodes = (
(199,145,l),
(-233,145,l),
(191,100,l)
);
},
{
closed = 1;
nodes = (
(283,625,l),
(-148,625,l),
(275,580,l)
);
},
{
closed = 1;
nodes = (
(543,717,o),
(547,720,o),
(554,726,cs),
(598,764,o),
(599,765,o),
(599,765,c),
(601,768,o),
(603,771,o),
(603,776,cs),
(603,781,o),
(600,787,o),
(594,794,cs),
(531,868,ls),
(526,874,o),
(520,879,o),
(513,879,cs),
(509,879,o),
(505,877,o),
(502,875,cs),
(313,736,l),
(354,679,l),
(528,714,ls,{
name = hr00;
})
);
},
{
closed = 1;
nodes = (
(393,833,l),
(-20,833,l),
(340,794,l)
);
},
{
closed = 1;
nodes = (
(282,752,l),
(-131,752,l),
(229,713,l)
);
}
);
};
layerId = master01;
shapes = (
{
ref = L;
},
{
pos = (274,0);
ref = acutecomb.case;
}
);
width = 622;
}
);
unicode = 313;
},
{
glyphname = Lcaron;
lastChange = "2023-02-08 11:08:25 +0000";
layers = (
{
background = {
shapes = (
{
closed = 1;
nodes = (
(612,160,l),
(422,160,l),
(504,625,l),
(314,625,l),
(204,0,l),
(584,0,l,{
name = hr00;
})
);
},
{
closed = 1;
nodes = (
(182,48,l),
(-250,48,l),
(174,3,l)
);
},
{
closed = 1;
nodes = (
(216,241,l),
(-216,241,l),
(208,196,l)
);
},
{
closed = 1;
nodes = (
(233,337,l),
(-199,337,l),
(225,292,l)
);
},
{
closed = 1;
nodes = (
(250,433,l),
(-182,433,l),
(242,388,l)
);
},
{
closed = 1;
nodes = (
(266,529,l),
(-165,529,l),
(259,484,l)
);
},
{
closed = 1;
nodes = (
(199,145,l),
(-233,145,l),
(191,100,l)
);
},
{
closed = 1;
nodes = (
(283,625,l),
(-148,625,l),
(275,580,l)
);
},
{
closed = 1;
nodes = (
(444,677,o),
(450,680,o),
(455,686,cs),
(587,831,l),
(539,880,l),
(440,817,l),
(362,880,l),
(296,831,l),
(379,686,ls),
(382,681,o),
(385,677,o),
(392,677,cs),
(437,677,ls,{
name = hr00;
})
);
},
{
closed = 1;
nodes = (
(259,833,l),
(-119,833,l),
(282,794,l)
);
},
{
closed = 1;
nodes = (
(306,752,l),
(-80,752,l),
(328,713,l)
);
}
);
};
layerId = master01;
shapes = (
{
ref = L;
},
{
closed = 1;
nodes = (
(551,511,o),
(550,502,o),
(550,494,cs),
(550,466,o),
(562,450,o),
(596,444,c),
(554,334,l),
(634,305,l),
(708,407,ls),
(741,458,o),
(764,506,o),
(764,563,cs),
(764,609,o),
(742,628,o),
(676,628,cs),
(591,628,o),
(568,597,o),
(553,521,cs,{
name = hr00;
})
);
}
);
width = 664;
}
);
unicode = 317;
},
{
glyphname = Lcommaaccent;
lastChange = "2023-02-08 10:49:08 +0000";
layers = (
{
background = {
anchors = (
{
name = bottom;
pos = (241,-371);
}
);
shapes = (
{
closed = 1;
nodes = (
(612,160,l),
(422,160,l),
(504,625,l),
(314,625,l),
(204,0,l),
(584,0,l,{
name = hr00;
})
);
},
{
closed = 1;
nodes = (
(182,48,l),
(-250,48,l),
(174,3,l)
);
},
{
closed = 1;
nodes = (
(216,241,l),
(-216,241,l),
(208,196,l)
);
},
{
closed = 1;
nodes = (
(233,337,l),
(-199,337,l),
(225,292,l)
);
},
{
closed = 1;
nodes = (
(250,433,l),
(-182,433,l),
(242,388,l)
);
},
{
closed = 1;
nodes = (
(266,529,l),
(-165,529,l),
(259,484,l)
);
},
{
closed = 1;
nodes = (
(199,145,l),
(-233,145,l),
(191,100,l)
);
},
{
closed = 1;
nodes = (
(283,625,l),
(-148,625,l),
(275,580,l)
);
},
{
closed = 1;
nodes = (
(259,-165,o),
(258,-174,o),
(258,-182,cs),
(258,-210,o),
(270,-226,o),
(304,-232,c),
(262,-342,l),
(342,-371,l),
(416,-269,ls),
(449,-218,o),
(472,-170,o),
(472,-113,cs),
(472,-67,o),
(450,-48,o),
(384,-48,cs),
(299,-48,o),
(276,-79,o),
(261,-155,cs,{
name = hr00;
})
);
},
{
closed = 1;
nodes = (
(265,-255,l),
(243,-246,o),
(232,-222,o),
(227,-206,c),
(14,-206,l)
);
},
{
closed = 1;
nodes = (
(9,-109,l),
(231,-154,l),
(233,-136,o),
(236,-122,o),
(240,-109,c)
);
}
);
};
layerId = master01;
shapes = (
{
ref = L;
},
{
pos = (141,0);
ref = commaaccentcomb;
}
);
width = 622;
}
);
unicode = 315;
},
{
glyphname = Ldot;
lastChange = "2023-02-08 10:49:18 +0000";
layers = (
{
background = {
shapes = (
{
closed = 1;
nodes = (
(509,298,o),
(528,283,o),
(585,283,cs),
(668,283,o),
(692,337,o),
(692,408,cs),
(692,447,o),
(673,463,o),
(617,463,cs),
(533,463,o),
(509,407,o),
(509,336,cs)
);
},
{
closed = 1;
nodes = (
(612,160,l),
(422,160,l),
(504,625,l),
(314,625,l),
(204,0,l),
(584,0,l,{
name = hr00;
})
);
},
{
closed = 1;
nodes = (
(182,48,l),
(-250,48,l),
(174,3,l)
);
},
{
closed = 1;
nodes = (
(216,241,l),
(-216,241,l),
(208,196,l)
);
},
{
closed = 1;
nodes = (
(233,337,l),
(-199,337,l),
(225,292,l)
);
},
{
closed = 1;
nodes = (
(250,433,l),
(-182,433,l),
(242,388,l)
);
},
{
closed = 1;
nodes = (
(266,529,l),
(-165,529,l),
(259,484,l)
);
},
{
closed = 1;
nodes = (
(199,145,l),
(-233,145,l),
(191,100,l)
);
},
{
closed = 1;
nodes = (
(283,625,l),
(-148,625,l),
(275,580,l)
);
}
);
};
layerId = master01;
shapes = (
{
ref = L;
},
{
closed = 1;
nodes = (
(509,298,o),
(528,283,o),
(585,283,cs),
(668,283,o),
(692,337,o),
(692,408,cs),
(692,447,o),
(673,463,o),
(617,463,cs),
(533,463,o),
(509,407,o),
(509,336,cs)
);
}
);
width = 622;
}
);
unicode = 319;
},
{
glyphname = Lslash;
lastChange = "2023-02-08 10:37:52 +0000";
layers = (
{
background = {
shapes = (
{
closed = 1;
nodes = (
(254,234,l),
(546,330,ls),
(575,339,o),
(596,348,o),
(596,371,cs),
(596,375,o),
(595,380,o),
(564,478,c),
(281,384,l)
);
},
{
closed = 1;
nodes = (
(612,160,l),
(422,160,l),
(504,625,l),
(314,625,l),
(204,0,l),
(584,0,l,{
name = hr01;
})
);
},
{
closed = 1;
nodes = (
(182,48,l),
(-250,48,l),
(174,3,l)
);
},
{
closed = 1;
nodes = (
(216,241,l),
(-216,241,l),
(208,196,l)
);
},
{
closed = 1;
nodes = (
(233,337,l),
(-199,337,l),
(225,292,l)
);
},
{
closed = 1;
nodes = (
(250,433,l),
(-182,433,l),
(242,388,l)
);
},
{
closed = 1;
nodes = (
(266,529,l),
(-165,529,l),
(259,484,l)
);
},
{
closed = 1;
nodes = (
(199,145,l),
(-233,145,l),
(191,100,l)
);
},
{
closed = 1;
nodes = (
(283,625,l),
(-148,625,l),
(275,580,l)
);
}
);
};
layerId = master01;
shapes = (
{
closed = 1;
nodes = (
(584,0,l,{
name = hr01;
}),
(612,160,l),
(422,160,l),
(504,625,l),
(314,625,l),
(204,0,l)
);
},
{
closed = 1;
nodes = (
(182,48,l),
(-250,48,l),
(174,3,l)
);
},
{
closed = 1;
nodes = (
(199,145,l),
(-233,145,l),
(191,100,l)
);
},
{
closed = 1;
nodes = (
(216,241,l),
(-216,241,l),
(208,196,l)
);
},
{
closed = 1;
nodes = (
(233,337,l),
(-199,337,l),
(225,292,l)
);
},
{
closed = 1;
nodes = (
(250,433,l),
(-182,433,l),
(242,388,l)
);
},
{
closed = 1;
nodes = (
(266,529,l),
(-165,529,l),
(259,484,l)
);
},
{
closed = 1;
nodes = (
(283,625,l),
(-148,625,l),
(275,580,l)
);
},
{
closed = 1;
nodes = (
(546,330,ls),
(575,339,o),
(596,348,o),
(596,371,cs),
(596,375,o),
(595,380,o),
(564,478,c),
(281,384,l),
(254,234,l)
);
}
);
width = 622;
}
);
unicode = 321;
},
{
glyphname = M;
lastChange = "2023-02-08 10:37:52 +0000";
layers = (
{
anchors = (
{
name = bottom;
pos = (512,0);
},
{
name = top;
pos = (512,625);
}
);
background = {
shapes = (
{
closed = 1;
nodes = (
(182,48,l),
(-250,48,l),
(172,3,l,{
name = hr00;
})
);
},
{
closed = 1;
nodes = (
(205,145,l),
(-227,145,l),
(194,100,l)
);
},
{
closed = 1;
nodes = (
(227,241,l),
(-204,241,l),
(217,196,l)
);
},
{
closed = 1;
nodes = (
(250,337,l),
(-181,337,l),
(239,292,l)
);
},
{
closed = 1;
nodes = (
(272,433,l),
(-158,433,l),
(262,388,l)
);
},
{
closed = 1;
nodes = (
(295,529,l),
(-135,529,l),
(284,484,l)
);
},
{
closed = 1;
nodes = (
(317,625,l),
(-112,625,l),
(307,580,l)
);
},
{
closed = 1;
nodes = (
(465,303,l),
(470,303,l),
(491,0,l),
(636,0,l),
(761,303,l),
(768,303,l),
(726,0,l),
(925,0,l),
(999,625,l),
(751,625,l),
(621,307,l),
(614,307,l),
(596,625,l),
(348,625,l),
(202,0,l),
(400,0,l)
);
}
);
};
layerId = master01;
shapes = (
{
closed = 1;
nodes = (
(400,0,l),
(465,303,l),
(470,303,l),
(491,0,l),
(636,0,l),
(761,303,l),
(768,303,l),
(726,0,l),
(925,0,l),
(999,625,l),
(751,625,l),
(621,307,l),
(614,307,l),
(596,625,l),
(348,625,l),
(202,0,l)
);
},
{
closed = 1;
nodes = (
(182,48,l),
(-250,48,l),
(172,3,l,{
name = hr00;
})
);
},
{
closed = 1;
nodes = (
(205,145,l),
(-227,145,l),
(194,100,l)
);
},
{
closed = 1;
nodes = (
(227,241,l),
(-204,241,l),
(217,196,l)
);
},
{
closed = 1;
nodes = (
(250,337,l),
(-181,337,l),
(239,292,l)
);
},
{
closed = 1;
nodes = (
(272,433,l),
(-158,433,l),
(262,388,l)
);
},
{
closed = 1;
nodes = (
(295,529,l),
(-135,529,l),
(284,484,l)
);
},
{
closed = 1;
nodes = (
(317,625,l),
(-112,625,l),
(307,580,l)
);
}
);
width = 1023;
}
);
unicode = 77;
},
{
glyphname = N;
lastChange = "2023-02-08 10:49:34 +0000";
layers = (
{
anchors = (
{
name = bottom;
pos = (335,0);
},
{
name = top;
pos = (395,625);
}
);
background = {
shapes = (
{
closed = 1;
nodes = (
(732,0,l),
(842,625,l),
(652,625,l),
(604,355,l),
(596,355,l),
(597,363,o),
(598,374,o),
(598,383,cs),
(598,391,o),
(597,398,o),
(595,403,cs),
(493,625,l),
(314,625,l),
(204,0,l),
(394,0,l),
(441,270,l),
(449,270,l),
(448,262,o),
(447,252,o),
(447,244,cs),
(447,235,o),
(448,227,o),
(451,222,cs),
(553,0,l,{
name = hr00;
})
);
},
{
closed = 1;
nodes = (
(182,48,l),
(-250,48,l),
(174,3,l)
);
},
{
closed = 1;
nodes = (
(216,241,l),
(-216,241,l),
(208,196,l)
);
},
{
closed = 1;
nodes = (
(233,337,l),
(-199,337,l),
(225,292,l)
);
},
{
closed = 1;
nodes = (
(250,433,l),
(-182,433,l),
(242,388,l)
);
},
{
closed = 1;
nodes = (
(266,529,l),
(-165,529,l),
(259,484,l)
);
},
{
closed = 1;
nodes = (
(199,145,l),
(-233,145,l),
(191,100,l)
);
},
{
closed = 1;
nodes = (
(283,625,l),
(-148,625,l),
(275,580,l)
);
}
);
};
layerId = master01;
shapes = (
{
closed = 1;
nodes = (
(394,0,l),
(441,270,l),
(449,270,l),
(448,262,o),
(447,252,o),
(447,244,cs),
(447,235,o),
(449,227,o),
(451,222,cs),
(553,0,l,{
name = hr00;
}),
(732,0,l),
(842,625,l),
(652,625,l),
(604,355,l),
(596,355,l),
(597,363,o),
(598,374,o),
(598,383,cs),
(598,391,o),
(597,398,o),
(595,403,cs),
(493,625,l),
(314,625,l),
(204,0,l)
);
},
{
closed = 1;
nodes = (
(182,48,l),
(-250,48,l),
(174,3,l)
);
},
{
closed = 1;
nodes = (
(199,145,l),
(-233,145,l),
(191,100,l)
);
},
{
closed = 1;
nodes = (
(216,241,l),
(-216,241,l),
(208,196,l)
);
},
{
closed = 1;
nodes = (
(233,337,l),
(-199,337,l),
(225,292,l)
);
},
{
closed = 1;
nodes = (
(250,433,l),
(-182,433,l),
(242,388,l)
);
},
{
closed = 1;
nodes = (
(266,529,l),
(-165,529,l),
(259,484,l)
);
},
{
closed = 1;
nodes = (
(283,625,l),
(-148,625,l),
(275,580,l)
);
}
);
width = 851;
}
);
unicode = 78;
},
{
glyphname = Nacute;
lastChange = "2023-02-08 10:49:30 +0000";
layers = (
{
background = {
shapes = (
{
closed = 1;
nodes = (
(732,0,l),
(842,625,l),
(652,625,l),
(604,355,l),
(596,355,l),
(597,363,o),
(598,374,o),
(598,383,cs),
(598,391,o),
(597,398,o),
(595,403,cs),
(493,625,l),
(314,625,l),
(204,0,l),
(394,0,l),
(441,270,l),
(449,270,l),
(448,262,o),
(447,252,o),
(447,244,cs),
(447,235,o),
(448,227,o),
(451,222,cs),
(553,0,l,{
name = hr00;
})
);
},
{
closed = 1;
nodes = (
(182,48,l),
(-250,48,l),
(174,3,l)
);
},
{
closed = 1;
nodes = (
(216,241,l),
(-216,241,l),
(208,196,l)
);
},
{
closed = 1;
nodes = (
(233,337,l),
(-199,337,l),
(225,292,l)
);
},
{
closed = 1;
nodes = (
(250,433,l),
(-182,433,l),
(242,388,l)
);
},
{
closed = 1;
nodes = (
(266,529,l),
(-165,529,l),
(259,484,l)
);
},
{
closed = 1;
nodes = (
(199,145,l),
(-233,145,l),
(191,100,l)
);
},
{
closed = 1;
nodes = (
(283,625,l),
(-148,625,l),
(275,580,l)
);
},
{
closed = 1;
nodes = (
(692,717,o),
(696,720,o),
(703,726,cs),
(747,764,o),
(748,765,o),
(748,765,c),
(750,768,o),
(752,771,o),
(752,776,cs),
(752,781,o),
(749,787,o),
(743,794,cs),
(680,868,ls),
(675,874,o),
(669,879,o),
(662,879,cs),
(658,879,o),
(654,877,o),
(651,875,cs),
(462,736,l),
(503,679,l),
(677,714,ls,{
name = hr00;
})
);
},
{
closed = 1;
nodes = (
(542,833,l),
(129,833,l),
(489,794,l)
);
},
{
closed = 1;
nodes = (
(431,752,l),
(18,752,l),
(378,713,l)
);
}
);
};
layerId = master01;
shapes = (
{
ref = N;
},
{
pos = (432,0);
ref = acutecomb.case;
}
);
width = 851;
}
);
unicode = 323;
},
{
glyphname = Ncaron;
lastChange = "2023-02-08 10:52:54 +0000";
layers = (
{
background = {
anchors = (
{
name = top;
pos = (395,866);
}
);
shapes = (
{
closed = 1;
nodes = (
(732,0,l),
(842,625,l),
(652,625,l),
(604,355,l),
(596,355,l),
(597,363,o),
(598,374,o),
(598,383,cs),
(598,391,o),
(597,398,o),
(595,403,cs),
(493,625,l),
(314,625,l),
(204,0,l),
(394,0,l),
(441,270,l),
(449,270,l),
(448,262,o),
(447,252,o),
(447,244,cs),
(447,235,o),
(448,227,o),
(451,222,cs),
(553,0,l,{
name = hr00;
})
);
},
{
closed = 1;
nodes = (
(182,48,l),
(-250,48,l),
(174,3,l)
);
},
{
closed = 1;
nodes = (
(216,241,l),
(-216,241,l),
(208,196,l)
);
},
{
closed = 1;
nodes = (
(233,337,l),
(-199,337,l),
(225,292,l)
);
},
{
closed = 1;
nodes = (
(250,433,l),
(-182,433,l),
(242,388,l)
);
},
{
closed = 1;
nodes = (
(266,529,l),
(-165,529,l),
(259,484,l)
);
},
{
closed = 1;
nodes = (
(199,145,l),
(-233,145,l),
(191,100,l)
);
},
{
closed = 1;
nodes = (
(283,625,l),
(-148,625,l),
(275,580,l)
);
},
{
closed = 1;
nodes = (
(605,663,o),
(611,666,o),
(616,672,cs),
(748,817,l),
(700,866,l),
(601,803,l),
(523,866,l),
(457,817,l),
(540,672,ls),
(543,667,o),
(546,663,o),
(553,663,cs),
(598,663,ls,{
name = hr00;
})
);
},
{
closed = 1;
nodes = (
(420,819,l),
(42,819,l),
(443,780,l)
);
},
{
closed = 1;
nodes = (
(467,738,l),
(81,738,l),
(489,699,l)
);
}
);
};
layerId = master01;
shapes = (
{
ref = N;
},
{
pos = (394,1);
ref = caroncomb.case;
}
);
width = 851;
}
);
unicode = 327;
},
{
glyphname = Ncommaaccent;
lastChange = "2023-02-08 10:49:34 +0000";
layers = (
{
background = {
anchors = (
{
name = bottom;
pos = (336,-371);
}
);
shapes = (
{
closed = 1;
nodes = (
(732,0,l),
(842,625,l),
(652,625,l),
(604,355,l),
(596,355,l),
(597,363,o),
(598,374,o),
(598,383,cs),
(598,391,o),
(597,398,o),
(595,403,cs),
(493,625,l),
(314,625,l),
(204,0,l),
(394,0,l),
(441,270,l),
(449,270,l),
(448,262,o),
(447,252,o),
(447,244,cs),
(447,235,o),
(448,227,o),
(451,222,cs),
(553,0,l,{
name = hr00;
})
);
},
{
closed = 1;
nodes = (
(182,48,l),
(-250,48,l),
(174,3,l)
);
},
{
closed = 1;
nodes = (
(216,241,l),
(-216,241,l),
(208,196,l)
);
},
{
closed = 1;
nodes = (
(233,337,l),
(-199,337,l),
(225,292,l)
);
},
{
closed = 1;
nodes = (
(250,433,l),
(-182,433,l),
(242,388,l)
);
},
{
closed = 1;
nodes = (
(266,529,l),
(-165,529,l),
(259,484,l)
);
},
{
closed = 1;
nodes = (
(199,145,l),
(-233,145,l),
(191,100,l)
);
},
{
closed = 1;
nodes = (
(283,625,l),
(-148,625,l),
(275,580,l)
);
},
{
closed = 1;
nodes = (
(354,-165,o),
(353,-174,o),
(353,-182,cs),
(353,-210,o),
(365,-226,o),
(399,-232,c),
(357,-342,l),
(437,-371,l),
(511,-269,ls),
(544,-218,o),
(567,-170,o),
(567,-113,cs),
(567,-67,o),
(545,-48,o),
(479,-48,cs),
(394,-48,o),
(371,-79,o),
(356,-155,cs,{
name = hr00;
})
);
},
{
closed = 1;
nodes = (
(360,-255,l),
(338,-246,o),
(327,-222,o),
(322,-206,c),
(109,-206,l)
);
},
{
closed = 1;
nodes = (
(104,-109,l),
(326,-154,l),
(328,-136,o),
(331,-122,o),
(335,-109,c)
);
}
);
};
layerId = master01;
shapes = (
{
ref = N;
},
{
pos = (235,0);
ref = commaaccentcomb;
}
);
width = 851;
}
);
unicode = 325;
},
{
glyphname = Ntilde;
lastChange = "2023-02-08 10:49:30 +0000";
layers = (
{
background = {
shapes = (
{
closed = 1;
nodes = (
(732,0,l),
(842,625,l),
(652,625,l),
(604,355,l),
(596,355,l),
(597,363,o),
(598,374,o),
(598,383,cs),
(598,391,o),
(597,398,o),
(595,403,cs),
(493,625,l),
(314,625,l),
(204,0,l),
(394,0,l),
(441,270,l),
(449,270,l),
(448,262,o),
(447,252,o),
(447,244,cs),
(447,235,o),
(448,227,o),
(451,222,cs),
(553,0,l)
);
},
{
closed = 1;
nodes = (
(182,48,l),
(-250,48,l),
(174,3,l)
);
},
{
closed = 1;
nodes = (
(216,241,l),
(-216,241,l),
(208,196,l)
);
},
{
closed = 1;
nodes = (
(233,337,l),
(-199,337,l),
(225,292,l)
);
},
{
closed = 1;
nodes = (
(250,433,l),
(-182,433,l),
(242,388,l)
);
},
{
closed = 1;
nodes = (
(266,529,l),
(-165,529,l),
(259,484,l)
);
},
{
closed = 1;
nodes = (
(199,145,l),
(-233,145,l),
(191,100,l)
);
},
{
closed = 1;
nodes = (
(283,625,l),
(-148,625,l),
(275,580,l)
);
},
{
closed = 1;
nodes = (
(624,839,o),
(607,861,o),
(575,861,cs),
(543,861,o),
(537,854,o),
(401,769,c),
(435,688,l),
(520,728,l),
(546,705,o),
(563,683,o),
(595,683,cs),
(627,683,o),
(633,690,o),
(769,775,c),
(736,856,l),
(650,816,l,{
name = hr01;
})
);
},
{
closed = 1;
nodes = (
(81,833,l),
(375,787,l),
(447,833,l)
);
},
{
closed = 1;
nodes = (
(81,754,l),
(394,708,l),
(375,754,l)
);
}
);
};
layerId = master01;
shapes = (
{
ref = N;
},
{
pos = (339,0);
ref = tildecomb.case;
}
);
width = 851;
}
);
unicode = 209;
},
{
glyphname = Eng;
lastChange = "2023-02-08 10:37:52 +0000";
layers = (
{
anchors = (
{
name = bottom;
pos = (426,0);
},
{
name = top;
pos = (426,625);
}
);
background = {
shapes = (
{
closed = 1;
nodes = (
(571,-190,ls),
(653,-190,o),
(707,-143,o),
(724,-49,cs),
(842,625,l),
(652,625,l),
(604,355,l),
(596,355,l),
(597,363,o),
(598,374,o),
(598,383,cs),
(598,391,o),
(597,398,o),
(595,403,cs),
(493,625,l),
(314,625,l),
(204,0,l),
(394,0,l),
(441,270,l),
(449,270,l),
(448,262,o),
(447,252,o),
(447,244,cs),
(447,235,o),
(448,227,o),
(451,222,cs),
(555,2,l),
(550,-27,ls),
(547,-45,o),
(530,-47,o),
(513,-47,cs),
(452,-47,l),
(426,-190,l,{
name = hr00;
})
);
},
{
closed = 1;
nodes = (
(199,145,l),
(-233,145,l),
(191,100,l)
);
},
{
closed = 1;
nodes = (
(421,-45,l),
(-11,-45,l),
(413,-90,l)
);
},
{
closed = 1;
nodes = (
(250,433,l),
(-182,433,l),
(242,388,l)
);
},
{
closed = 1;
nodes = (
(233,337,l),
(-199,337,l),
(225,292,l)
);
},
{
closed = 1;
nodes = (
(216,241,l),
(-216,241,l),
(208,196,l)
);
},
{
closed = 1;
nodes = (
(182,48,l),
(-250,48,l),
(174,3,l)
);
},
{
closed = 1;
nodes = (
(403,-142,l),
(-29,-142,l),
(395,-187,l)
);
},
{
closed = 1;
nodes = (
(266,529,l),
(-165,529,l),
(259,484,l)
);
},
{
closed = 1;
nodes = (
(283,625,l),
(-148,625,l),
(275,580,l)
);
}
);
};
layerId = master01;
shapes = (
{
closed = 1;
nodes = (
(571,-190,ls),
(653,-190,o),
(707,-143,o),
(724,-49,cs),
(842,625,l),
(652,625,l),
(604,355,l),
(596,355,l),
(597,363,o),
(598,374,o),
(598,383,cs),
(598,391,o),
(597,398,o),
(595,403,cs),
(493,625,l),
(314,625,l),
(204,0,l),
(394,0,l),
(441,270,l),
(449,270,l),
(448,262,o),
(447,252,o),
(447,244,cs),
(447,235,o),
(448,227,o),
(451,222,cs),
(555,2,l),
(550,-27,ls),
(547,-45,o),
(530,-47,o),
(513,-47,cs),
(452,-47,l),
(426,-190,l,{
name = hr00;
})
);
},
{
closed = 1;
nodes = (
(182,48,l),
(-250,48,l),
(174,3,l)
);
},
{
closed = 1;
nodes = (
(403,-142,l),
(-29,-142,l),
(395,-187,l)
);
},
{
closed = 1;
nodes = (
(199,145,l),
(-233,145,l),
(191,100,l)
);
},
{
closed = 1;
nodes = (
(421,-45,l),
(-11,-45,l),
(413,-90,l)
);
},
{
closed = 1;
nodes = (
(216,241,l),
(-216,241,l),
(208,196,l)
);
},
{
closed = 1;
nodes = (
(233,337,l),
(-199,337,l),
(225,292,l)
);
},
{
closed = 1;
nodes = (
(250,433,l),
(-182,433,l),
(242,388,l)
);
},
{
closed = 1;
nodes = (
(266,529,l),
(-165,529,l),
(259,484,l)
);
},
{
closed = 1;
nodes = (
(283,625,l),
(-148,625,l),
(275,580,l)
);
}
);
width = 851;
}
);
unicode = 330;
},
{
glyphname = O;
lastChange = "2023-02-08 10:49:54 +0000";
layers = (
{
anchors = (
{
name = bottom;
pos = (408,0);
},
{
name = center;
pos = (408,313);
},
{
name = ogonek;
pos = (734,10);
},
{
name = top;
pos = (398,625);
},
{
name = topleft;
pos = (20,625);
},
{
name = topright;
pos = (795,625);
}
);
background = {
shapes = (
{
closed = 1;
nodes = (
(451,465,o),
(480,469,o),
(524,469,cs),
(604,469,l),
(558,209,ls),
(549,160,o),
(519,156,o),
(475,156,cs),
(396,156,l),
(442,416,ls)
);
},
{
closed = 1;
nodes = (
(337,640,o),
(258,529,o),
(220,312,cs),
(212,265,o),
(207,224,o),
(207,187,cs),
(207,53,o),
(269,-15,o),
(442,-15,cs),
(534,-15,o),
(604,1,o),
(657,48,cs),
(761,140,o),
(792,328,o),
(792,438,cs),
(792,572,o),
(730,640,o),
(557,640,cs)
);
},
{
closed = 1;
nodes = (
(195,337,l),
(-205,337,l),
(188,295,l),
(189,302,o),
(190,309,o),
(192,317,c)
);
},
{
closed = 1;
nodes = (
(-216,241,l),
(178,199,l),
(178,212,o),
(179,226,o),
(181,241,c)
);
},
{
closed = 1;
nodes = (
(-181,433,l),
(207,392,l),
(219,433,l)
);
},
{
closed = 1;
nodes = (
(-203,145,l),
(186,103,l),
(183,116,o),
(181,130,o),
(179,145,c,{
name = hr01;
})
);
},
{
closed = 1;
nodes = (
(-134,529,l),
(240,489,l),
(246,503,o),
(253,516,o),
(260,529,c)
);
},
{
closed = 1;
nodes = (
(-107,48,l),
(239,11,l),
(227,21,o),
(217,34,o),
(209,48,c,{
name = hr02;
})
);
},
{
closed = 1;
nodes = (
(4,625,l),
(310,592,l),
(324,605,o),
(339,615,o),
(355,625,c)
);
}
);
};
layerId = master01;
shapes = (
{
closed = 1;
nodes = (
(534,-15,o),
(604,1,o),
(657,48,cs),
(761,140,o),
(792,328,o),
(792,438,cs),
(792,572,o),
(730,640,o),
(557,640,cs),
(337,640,o),
(258,529,o),
(220,312,cs),
(212,265,o),
(207,224,o),
(207,187,cs),
(207,53,o),
(269,-15,o),
(442,-15,cs)
);
},
{
closed = 1;
nodes = (
(227,21,o),
(217,34,o),
(209,48,c,{
name = hr02;
}),
(-107,48,l),
(239,11,l)
);
},
{
closed = 1;
nodes = (
(183,116,o),
(181,130,o),
(179,145,c,{
name = hr01;
}),
(-203,145,l),
(186,103,l)
);
},
{
closed = 1;
nodes = (
(178,212,o),
(179,226,o),
(181,241,c),
(-216,241,l),
(178,199,l)
);
},
{
closed = 1;
nodes = (
(189,302,o),
(190,309,o),
(192,317,c),
(195,337,l),
(-205,337,l),
(188,295,l)
);
},
{
closed = 1;
nodes = (
(219,433,l),
(-181,433,l),
(207,392,l)
);
},
{
closed = 1;
nodes = (
(246,503,o),
(253,516,o),
(260,529,c),
(-134,529,l),
(240,489,l)
);
},
{
closed = 1;
nodes = (
(324,605,o),
(339,615,o),
(355,625,c),
(4,625,l),
(310,592,l)
);
},
{
closed = 1;
nodes = (
(442,416,ls),
(451,465,o),
(480,469,o),
(524,469,cs),
(604,469,l),
(558,209,ls),
(549,160,o),
(519,156,o),
(475,156,cs),
(396,156,l)
);
}
);
width = 815;
}
);
unicode = 79;
},
{
glyphname = Oacute;
lastChange = "2023-02-08 10:49:44 +0000";
layers = (
{
background = {
shapes = (
{
closed = 1;
nodes = (
(451,465,o),
(480,469,o),
(524,469,cs),
(604,469,l),
(558,209,ls),
(549,160,o),
(519,156,o),
(475,156,cs),
(396,156,l),
(442,416,ls)
);
},
{
closed = 1;
nodes = (
(337,640,o),
(258,529,o),
(220,312,cs),
(212,265,o),
(207,224,o),
(207,187,cs),
(207,53,o),
(269,-15,o),
(442,-15,cs),
(534,-15,o),
(604,1,o),
(657,48,cs),
(761,140,o),
(792,328,o),
(792,438,cs),
(792,572,o),
(730,640,o),
(557,640,cs)
);
},
{
closed = 1;
nodes = (
(195,337,l),
(-205,337,l),
(188,295,l),
(189,302,o),
(190,309,o),
(192,317,c)
);
},
{
closed = 1;
nodes = (
(-216,241,l),
(178,199,l),
(178,212,o),
(179,226,o),
(181,241,c)
);
},
{
closed = 1;
nodes = (
(-181,433,l),
(207,392,l),
(219,433,l)
);
},
{
closed = 1;
nodes = (
(-203,145,l),
(186,103,l),
(183,116,o),
(181,130,o),
(179,145,c,{
name = hr01;
})
);
},
{
closed = 1;
nodes = (
(-134,529,l),
(240,489,l),
(246,503,o),
(253,516,o),
(260,529,c)
);
},
{
closed = 1;
nodes = (
(-107,48,l),
(239,11,l),
(227,21,o),
(217,34,o),
(209,48,c,{
name = hr02;
})
);
},
{
closed = 1;
nodes = (
(4,625,l),
(310,592,l),
(324,605,o),
(339,615,o),
(355,625,c)
);
},
{
closed = 1;
nodes = (
(683,717,o),
(687,720,o),
(694,726,cs),
(738,764,o),
(739,765,o),
(739,765,c),
(741,768,o),
(743,771,o),
(743,776,cs),
(743,781,o),
(740,787,o),
(734,794,cs),
(671,868,ls),
(666,874,o),
(660,879,o),
(653,879,cs),
(649,879,o),
(645,877,o),
(642,875,cs),
(453,736,l),
(494,679,l),
(668,714,ls,{
name = hr03;
})
);
},
{
closed = 1;
nodes = (
(533,833,l),
(120,833,l),
(480,794,l)
);
},
{
closed = 1;
nodes = (
(422,752,l),
(9,752,l),
(369,713,l)
);
}
);
};
layerId = master01;
shapes = (
{
ref = O;
},
{
pos = (435,0);
ref = acutecomb.case;
}
);
width = 815;
}
);
unicode = 211;
},
{
glyphname = Obreve;
lastChange = "2023-02-08 10:49:44 +0000";
layers = (
{
background = {
shapes = (
{
closed = 1;
nodes = (
(451,465,o),
(480,469,o),
(524,469,cs),
(604,469,l),
(558,209,ls),
(549,160,o),
(519,156,o),
(475,156,cs),
(396,156,l),
(442,416,ls)
);
},
{
closed = 1;
nodes = (
(337,640,o),
(258,529,o),
(220,312,cs),
(212,265,o),
(207,224,o),
(207,187,cs),
(207,53,o),
(269,-15,o),
(442,-15,cs),
(534,-15,o),
(604,1,o),
(657,48,cs),
(761,140,o),
(792,328,o),
(792,438,cs),
(792,572,o),
(730,640,o),
(557,640,cs)
);
},
{
closed = 1;
nodes = (
(195,337,l),
(-205,337,l),
(188,295,l),
(189,302,o),
(190,309,o),
(192,317,c)
);
},
{
closed = 1;
nodes = (
(-216,241,l),
(178,199,l),
(178,212,o),
(179,226,o),
(181,241,c)
);
},
{
closed = 1;
nodes = (
(-181,433,l),
(207,392,l),
(219,433,l)
);
},
{
closed = 1;
nodes = (
(-203,145,l),
(186,103,l),
(183,116,o),
(181,130,o),
(179,145,c,{
name = hr01;
})
);
},
{
closed = 1;
nodes = (
(-134,529,l),
(240,489,l),
(246,503,o),
(253,516,o),
(260,529,c)
);
},
{
closed = 1;
nodes = (
(-107,48,l),
(239,11,l),
(227,21,o),
(217,34,o),
(209,48,c,{
name = hr02;
})
);
},
{
closed = 1;
nodes = (
(4,625,l),
(310,592,l),
(324,605,o),
(339,615,o),
(355,625,c)
);
},
{
closed = 1;
nodes = (
(454,724,o),
(446,737,o),
(437,752,c),
(68,752,l),
(466,713,l,{
name = hr00;
})
);
},
{
closed = 1;
nodes = (
(40,833,l),
(426,795,l),
(423,807,o),
(420,819,o),
(418,833,c)
);
},
{
closed = 1;
nodes = (
(449,829,l),
(453,736,o),
(515,690,o),
(586,690,cs),
(658,690,o),
(737,736,o),
(774,829,c),
(676,844,l),
(661,808,o),
(631,789,o),
(604,789,cs),
(578,789,o),
(554,808,o),
(553,844,c)
);
}
);
};
layerId = master01;
shapes = (
{
ref = O;
},
{
pos = (400,0);
ref = brevecomb.case;
}
);
width = 815;
}
);
unicode = 334;
},
{
glyphname = Ocircumflex;
lastChange = "2023-02-08 10:49:44 +0000";
layers = (
{
background = {
shapes = (
{
closed = 1;
nodes = (
(451,465,o),
(480,469,o),
(524,469,cs),
(604,469,l),
(558,209,ls),
(549,160,o),
(519,156,o),
(475,156,cs),
(396,156,l),
(442,416,ls)
);
},
{
closed = 1;
nodes = (
(337,640,o),
(258,529,o),
(220,312,cs),
(212,265,o),
(207,224,o),
(207,187,cs),
(207,53,o),
(269,-15,o),
(442,-15,cs),
(534,-15,o),
(604,1,o),
(657,48,cs),
(761,140,o),
(792,328,o),
(792,438,cs),
(792,572,o),
(730,640,o),
(557,640,cs)
);
},
{
closed = 1;
nodes = (
(195,337,l),
(-205,337,l),
(188,295,l),
(189,302,o),
(190,309,o),
(192,317,c)
);
},
{
closed = 1;
nodes = (
(-216,241,l),
(178,199,l),
(178,212,o),
(179,226,o),
(181,241,c)
);
},
{
closed = 1;
nodes = (
(-181,433,l),
(207,392,l),
(219,433,l)
);
},
{
closed = 1;
nodes = (
(-203,145,l),
(186,103,l),
(183,116,o),
(181,130,o),
(179,145,c,{
name = hr01;
})
);
},
{
closed = 1;
nodes = (
(-134,529,l),
(240,489,l),
(246,503,o),
(253,516,o),
(260,529,c)
);
},
{
closed = 1;
nodes = (
(-107,48,l),
(239,11,l),
(227,21,o),
(217,34,o),
(209,48,c,{
name = hr02;
})
);
},
{
closed = 1;
nodes = (
(4,625,l),
(310,592,l),
(324,605,o),
(339,615,o),
(355,625,c)
);
},
{
closed = 1;
nodes = (
(566,880,o),
(560,877,o),
(555,871,cs),
(423,726,l),
(471,677,l),
(570,740,l),
(648,677,l),
(714,726,l),
(631,871,ls),
(628,876,o),
(625,880,o),
(618,880,cs),
(573,880,ls,{
name = hr03;
})
);
},
{
closed = 1;
nodes = (
(479,833,l),
(121,833,l),
(444,794,l)
);
},
{
closed = 1;
nodes = (
(406,752,l),
(40,752,l),
(370,713,l)
);
}
);
};
layerId = master01;
shapes = (
{
ref = O;
},
{
pos = (404,0);
ref = circumflexcomb.case;
}
);
width = 815;
}
);
unicode = 212;
},
{
glyphname = Odieresis;
lastChange = "2023-02-08 10:49:43 +0000";
layers = (
{
background = {
shapes = (
{
closed = 1;
nodes = (
(451,465,o),
(480,469,o),
(524,469,cs),
(604,469,l),
(558,209,ls),
(549,160,o),
(519,156,o),
(475,156,cs),
(396,156,l),
(442,416,ls)
);
},
{
closed = 1;
nodes = (
(337,640,o),
(258,529,o),
(220,312,cs),
(212,265,o),
(207,224,o),
(207,187,cs),
(207,53,o),
(269,-15,o),
(442,-15,cs),
(534,-15,o),
(604,1,o),
(657,48,cs),
(761,140,o),
(792,328,o),
(792,438,cs),
(792,572,o),
(730,640,o),
(557,640,cs)
);
},
{
closed = 1;
nodes = (
(195,337,l),
(-205,337,l),
(188,295,l),
(189,302,o),
(190,309,o),
(192,317,c)
);
},
{
closed = 1;
nodes = (
(-216,241,l),
(178,199,l),
(178,212,o),
(179,226,o),
(181,241,c)
);
},
{
closed = 1;
nodes = (
(-181,433,l),
(207,392,l),
(219,433,l)
);
},
{
closed = 1;
nodes = (
(-203,145,l),
(186,103,l),
(183,116,o),
(181,130,o),
(179,145,c,{
name = hr01;
})
);
},
{
closed = 1;
nodes = (
(-134,529,l),
(240,489,l),
(246,503,o),
(253,516,o),
(260,529,c)
);
},
{
closed = 1;
nodes = (
(-107,48,l),
(239,11,l),
(227,21,o),
(217,34,o),
(209,48,c,{
name = hr02;
})
);
},
{
closed = 1;
nodes = (
(4,625,l),
(310,592,l),
(324,605,o),
(339,615,o),
(355,625,c)
);
},
{
closed = 1;
nodes = (
(643,848,o),
(618,819,o),
(618,740,cs),
(618,706,o),
(634,692,o),
(682,692,cs),
(748,692,o),
(773,721,o),
(773,800,cs),
(773,834,o),
(757,848,o),
(709,848,cs,{
name = hr03;
})
);
},
{
closed = 1;
nodes = (
(435,848,o),
(410,819,o),
(410,740,cs),
(410,706,o),
(426,692,o),
(474,692,cs),
(539,692,o),
(565,721,o),
(565,800,cs),
(565,834,o),
(548,848,o),
(501,848,cs)
);
},
{
closed = 1;
nodes = (
(81,833,l),
(383,787,l),
(386,805,o),
(390,820,o),
(397,833,c,{
name = hr04;
})
);
},
{
closed = 1;
nodes = (
(380,754,l,{
name = hr05;
}),
(81,754,l),
(383,708,l),
(381,717,o),
(380,728,o),
(380,740,c)
);
}
);
};
layerId = master01;
shapes = (
{
ref = O;
},
{
pos = (357,0);
ref = dieresiscomb.case;
}
);
width = 815;
}
);
unicode = 214;
},
{
glyphname = Ograve;
lastChange = "2023-02-08 10:49:44 +0000";
layers = (
{
background = {
shapes = (
{
closed = 1;
nodes = (
(451,465,o),
(480,469,o),
(524,469,cs),
(604,469,l),
(558,209,ls),
(549,160,o),
(519,156,o),
(475,156,cs),
(396,156,l),
(442,416,ls)
);
},
{
closed = 1;
nodes = (
(337,640,o),
(258,529,o),
(220,312,cs),
(212,265,o),
(207,224,o),
(207,187,cs),
(207,53,o),
(269,-15,o),
(442,-15,cs),
(534,-15,o),
(604,1,o),
(657,48,cs),
(761,140,o),
(792,328,o),
(792,438,cs),
(792,572,o),
(730,640,o),
(557,640,cs)
);
},
{
closed = 1;
nodes = (
(195,337,l),
(-205,337,l),
(188,295,l),
(189,302,o),
(190,309,o),
(192,317,c)
);
},
{
closed = 1;
nodes = (
(-216,241,l),
(178,199,l),
(178,212,o),
(179,226,o),
(181,241,c)
);
},
{
closed = 1;
nodes = (
(-181,433,l),
(207,392,l),
(219,433,l)
);
},
{
closed = 1;
nodes = (
(-203,145,l),
(186,103,l),
(183,116,o),
(181,130,o),
(179,145,c,{
name = hr01;
})
);
},
{
closed = 1;
nodes = (
(-134,529,l),
(240,489,l),
(246,503,o),
(253,516,o),
(260,529,c)
);
},
{
closed = 1;
nodes = (
(-107,48,l),
(239,11,l),
(227,21,o),
(217,34,o),
(209,48,c,{
name = hr02;
})
);
},
{
closed = 1;
nodes = (
(4,625,l),
(310,592,l),
(324,605,o),
(339,615,o),
(355,625,c)
);
},
{
closed = 1;
nodes = (
(713,736,l),
(524,875,ls),
(521,877,o),
(517,879,o),
(513,879,cs),
(506,879,o),
(500,874,o),
(495,868,cs),
(432,794,ls),
(427,788,o),
(423,781,o),
(423,775,cs),
(423,772,o),
(424,768,o),
(427,765,cs),
(472,726,ls),
(479,720,o),
(483,717,o),
(498,714,cs),
(672,679,l,{
name = hr03;
})
);
},
{
closed = 1;
nodes = (
(404,810,o),
(416,820,o),
(426,833,c),
(2,833,l),
(397,794,l)
);
},
{
closed = 1;
nodes = (
(413,736,o),
(405,743,o),
(399,752,c),
(32,752,l),
(440,713,l)
);
}
);
};
layerId = master01;
shapes = (
{
ref = O;
},
{
pos = (474,0);
ref = gravecomb.case;
}
);
width = 815;
}
);
unicode = 210;
},
{
glyphname = Ohungarumlaut;
lastChange = "2023-02-08 10:50:06 +0000";
layers = (
{
background = {
anchors = (
{
name = top;
pos = (408,867);
}
);
shapes = (
{
closed = 1;
nodes = (
(451,465,o),
(480,469,o),
(524,469,cs),
(604,469,l),
(558,209,ls),
(549,160,o),
(519,156,o),
(475,156,cs),
(396,156,l),
(442,416,ls)
);
},
{
closed = 1;
nodes = (
(337,640,o),
(258,529,o),
(220,312,cs),
(212,265,o),
(207,224,o),
(207,187,cs),
(207,53,o),
(269,-15,o),
(442,-15,cs),
(534,-15,o),
(604,1,o),
(657,48,cs),
(761,140,o),
(792,328,o),
(792,438,cs),
(792,572,o),
(730,640,o),
(557,640,cs)
);
},
{
closed = 1;
nodes = (
(195,337,l),
(-205,337,l),
(188,295,l),
(189,302,o),
(190,309,o),
(192,317,c)
);
},
{
closed = 1;
nodes = (
(-216,241,l),
(178,199,l),
(178,212,o),
(179,226,o),
(181,241,c)
);
},
{
closed = 1;
nodes = (
(-181,433,l),
(207,392,l),
(219,433,l)
);
},
{
closed = 1;
nodes = (
(-203,145,l),
(186,103,l),
(183,116,o),
(181,130,o),
(179,145,c,{
name = hr01;
})
);
},
{
closed = 1;
nodes = (
(-134,529,l),
(240,489,l),
(246,503,o),
(253,516,o),
(260,529,c)
);
},
{
closed = 1;
nodes = (
(-107,48,l),
(239,11,l),
(227,21,o),
(217,34,o),
(209,48,c,{
name = hr02;
})
);
},
{
closed = 1;
nodes = (
(4,625,l),
(310,592,l),
(324,605,o),
(339,615,o),
(355,625,c)
);
},
{
closed = 1;
nodes = (
(540,692,ls),
(560,698,o),
(569,704,o),
(573,708,cs),
(614,746,ls),
(619,751,o),
(623,757,o),
(623,763,cs),
(623,768,o),
(621,775,o),
(616,781,cs),
(553,855,l),
(545,863,o),
(540,867,o),
(535,867,cs),
(530,866,o),
(525,862,o),
(519,855,cs),
(379,715,l),
(419,656,l,{
name = hr00;
})
);
},
{
closed = 1;
nodes = (
(803,692,ls),
(823,698,o),
(832,704,o),
(836,708,cs),
(877,746,ls),
(882,751,o),
(886,757,o),
(886,763,cs),
(886,768,o),
(884,775,o),
(879,781,cs),
(816,855,l),
(808,863,o),
(803,867,o),
(798,867,cs),
(793,866,o),
(788,862,o),
(782,855,cs),
(642,715,l),
(682,656,l)
);
},
{
closed = 1;
nodes = (
(436,819,l),
(40,819,l),
(397,780,l)
);
},
{
closed = 1;
nodes = (
(355,738,l),
(-71,738,l),
(316,699,l)
);
}
);
};
layerId = master01;
shapes = (
{
ref = O;
},
{
pos = (371,-13);
ref = hungarumlautcomb.case;
}
);
width = 815;
}
);
unicode = 336;
},
{
glyphname = Omacron;
lastChange = "2023-02-08 10:49:44 +0000";
layers = (
{
background = {
shapes = (
{
closed = 1;
nodes = (
(451,465,o),
(480,469,o),
(524,469,cs),
(604,469,l),
(558,209,ls),
(549,160,o),
(519,156,o),
(475,156,cs),
(396,156,l),
(442,416,ls)
);
},
{
closed = 1;
nodes = (
(337,640,o),
(258,529,o),
(220,312,cs),
(212,265,o),
(207,224,o),
(207,187,cs),
(207,53,o),
(269,-15,o),
(442,-15,cs),
(534,-15,o),
(604,1,o),
(657,48,cs),
(761,140,o),
(792,328,o),
(792,438,cs),
(792,572,o),
(730,640,o),
(557,640,cs)
);
},
{
closed = 1;
nodes = (
(195,337,l),
(-205,337,l),
(188,295,l),
(189,302,o),
(190,309,o),
(192,317,c)
);
},
{
closed = 1;
nodes = (
(-216,241,l),
(178,199,l),
(178,212,o),
(179,226,o),
(181,241,c)
);
},
{
closed = 1;
nodes = (
(-181,433,l),
(207,392,l),
(219,433,l)
);
},
{
closed = 1;
nodes = (
(-203,145,l),
(186,103,l),
(183,116,o),
(181,130,o),
(179,145,c,{
name = hr01;
})
);
},
{
closed = 1;
nodes = (
(-134,529,l),
(240,489,l),
(246,503,o),
(253,516,o),
(260,529,c)
);
},
{
closed = 1;
nodes = (
(-107,48,l),
(239,11,l),
(227,21,o),
(217,34,o),
(209,48,c,{
name = hr02;
})
);
},
{
closed = 1;
nodes = (
(4,625,l),
(310,592,l),
(324,605,o),
(339,615,o),
(355,625,c)
);
},
{
closed = 1;
nodes = (
(743,770,ls),
(745,784,o),
(747,796,o),
(747,804,cs),
(747,826,o),
(737,833,o),
(704,833,cs),
(469,833,l),
(458,770,ls),
(455,756,o),
(454,745,o),
(454,737,cs),
(454,714,o),
(465,706,o),
(498,706,cs),
(732,706,l,{
name = hr00;
})
);
},
{
closed = 1;
nodes = (
(438,833,l),
(71,833,l),
(431,794,l)
);
},
{
closed = 1;
nodes = (
(425,719,o),
(424,729,o),
(424,738,cs),
(424,743,o),
(424,748,o),
(425,752,c),
(67,752,l),
(427,711,l)
);
}
);
};
layerId = master01;
shapes = (
{
ref = O;
},
{
pos = (388,0);
ref = macroncomb.case;
}
);
width = 815;
}
);
unicode = 332;
},
{
glyphname = Oslash;
lastChange = "2023-02-08 10:37:52 +0000";
layers = (
{
anchors = (
{
name = bottom;
pos = (408,0);
},
{
name = top;
pos = (408,625);
}
);
background = {
shapes = (
{
closed = 1;
nodes = (
(251,-79,l),
(303,-79,l),
(747,704,l),
(697,704,l)
);
},
{
closed = 1;
nodes = (
(451,465,o),
(480,469,o),
(524,469,cs),
(604,469,l),
(558,209,ls),
(549,160,o),
(519,156,o),
(475,156,cs),
(396,156,l),
(442,416,ls,{
name = hr01;
})
);
},
{
closed = 1;
nodes = (
(337,640,o),
(258,529,o),
(220,312,cs),
(212,265,o),
(207,224,o),
(207,187,cs),
(207,53,o),
(269,-15,o),
(442,-15,cs),
(534,-15,o),
(604,1,o),
(657,48,cs),
(761,140,o),
(792,328,o),
(792,438,cs),
(792,572,o),
(730,640,o),
(557,640,cs)
);
},
{
closed = 1;
nodes = (
(195,337,l),
(-205,337,l),
(188,295,l),
(189,302,o),
(190,309,o),
(192,317,c)
);
},
{
closed = 1;
nodes = (
(-216,241,l),
(178,199,l),
(178,212,o),
(179,226,o),
(181,241,c)
);
},
{
closed = 1;
nodes = (
(-181,433,l),
(207,392,l),
(219,433,l)
);
},
{
closed = 1;
nodes = (
(-203,145,l),
(186,103,l),
(183,116,o),
(181,130,o),
(179,145,c,{
name = hr02;
})
);
},
{
closed = 1;
nodes = (
(-134,529,l),
(240,489,l),
(246,503,o),
(253,516,o),
(260,529,c)
);
},
{
closed = 1;
nodes = (
(-107,48,l),
(239,11,l),
(227,21,o),
(217,34,o),
(209,48,c,{
name = hr03;
})
);
},
{
closed = 1;
nodes = (
(4,625,l),
(310,592,l),
(324,605,o),
(339,615,o),
(355,625,c)
);
}
);
};
layerId = master01;
shapes = (
{
closed = 1;
nodes = (
(303,-79,l),
(747,704,l),
(697,704,l),
(251,-79,l)
);
},
{
closed = 1;
nodes = (
(227,21,o),
(217,34,o),
(209,48,c,{
name = hr03;
}),
(-107,48,l),
(239,11,l)
);
},
{
closed = 1;
nodes = (
(183,116,o),
(181,130,o),
(179,145,c,{
name = hr02;
}),
(-203,145,l),
(186,103,l)
);
},
{
closed = 1;
nodes = (
(178,212,o),
(179,226,o),
(181,241,c),
(-216,241,l),
(178,199,l)
);
},
{
closed = 1;
nodes = (
(189,302,o),
(190,309,o),
(192,317,c),
(195,337,l),
(-205,337,l),
(188,295,l)
);
},
{
closed = 1;
nodes = (
(219,433,l),
(-181,433,l),
(207,392,l)
);
},
{
closed = 1;
nodes = (
(246,503,o),
(253,516,o),
(260,529,c),
(-134,529,l),
(240,489,l)
);
},
{
closed = 1;
nodes = (
(324,605,o),
(339,615,o),
(355,625,c),
(4,625,l),
(310,592,l)
);
},
{
closed = 1;
nodes = (
(534,-15,o),
(604,1,o),
(657,48,cs),
(761,140,o),
(792,328,o),
(792,438,cs),
(792,572,o),
(730,640,o),
(557,640,cs),
(337,640,o),
(258,529,o),
(220,312,cs),
(212,265,o),
(207,224,o),
(207,187,cs),
(207,53,o),
(269,-15,o),
(442,-15,cs)
);
},
{
closed = 1;
nodes = (
(442,416,ls,{
name = hr01;
}),
(451,465,o),
(480,469,o),
(524,469,cs),
(604,469,l),
(558,209,ls),
(549,160,o),
(519,156,o),
(475,156,cs),
(396,156,l)
);
}
);
width = 815;
}
);
unicode = 216;
},
{
glyphname = Oslashacute;
lastChange = "2023-02-08 10:34:42 +0000";
layers = (
{
background = {
shapes = (
{
closed = 1;
nodes = (
(251,-79,l),
(303,-79,l),
(747,704,l),
(697,704,l)
);
},
{
closed = 1;
nodes = (
(451,465,o),
(480,469,o),
(524,469,cs),
(604,469,l),
(558,209,ls),
(549,160,o),
(519,156,o),
(475,156,cs),
(396,156,l),
(442,416,ls,{
name = hr01;
})
);
},
{
closed = 1;
nodes = (
(337,640,o),
(258,529,o),
(220,312,cs),
(212,265,o),
(207,224,o),
(207,187,cs),
(207,53,o),
(269,-15,o),
(442,-15,cs),
(534,-15,o),
(604,1,o),
(657,48,cs),
(761,140,o),
(792,328,o),
(792,438,cs),
(792,572,o),
(730,640,o),
(557,640,cs)
);
},
{
closed = 1;
nodes = (
(195,337,l),
(-205,337,l),
(188,295,l),
(189,302,o),
(190,309,o),
(192,317,c)
);
},
{
closed = 1;
nodes = (
(-216,241,l),
(178,199,l),
(178,212,o),
(179,226,o),
(181,241,c)
);
},
{
closed = 1;
nodes = (
(-181,433,l),
(207,392,l),
(219,433,l)
);
},
{
closed = 1;
nodes = (
(-203,145,l),
(186,103,l),
(183,116,o),
(181,130,o),
(179,145,c,{
name = hr02;
})
);
},
{
closed = 1;
nodes = (
(-134,529,l),
(240,489,l),
(246,503,o),
(253,516,o),
(260,529,c)
);
},
{
closed = 1;
nodes = (
(-107,48,l),
(239,11,l),
(227,21,o),
(217,34,o),
(209,48,c,{
name = hr03;
})
);
},
{
closed = 1;
nodes = (
(4,625,l),
(310,592,l),
(324,605,o),
(339,615,o),
(355,625,c)
);
},
{
closed = 1;
nodes = (
(684,717,o),
(688,720,o),
(695,726,cs),
(739,764,o),
(740,765,o),
(740,765,c),
(742,768,o),
(744,771,o),
(744,776,cs),
(744,781,o),
(741,787,o),
(735,794,cs),
(672,868,ls),
(667,874,o),
(661,879,o),
(654,879,cs),
(650,879,o),
(646,877,o),
(643,875,cs),
(454,736,l),
(495,679,l),
(669,714,ls,{
name = hr00;
})
);
},
{
closed = 1;
nodes = (
(534,833,l),
(121,833,l),
(481,794,l)
);
},
{
closed = 1;
nodes = (
(423,752,l),
(10,752,l),
(370,713,l)
);
}
);
};
layerId = master01;
shapes = (
{
ref = Oslash;
},
{
pos = (445,0);
ref = acutecomb.case;
}
);
width = 815;
}
);
unicode = 510;
},
{
glyphname = Otilde;
lastChange = "2023-02-08 10:49:44 +0000";
layers = (
{
background = {
shapes = (
{
closed = 1;
nodes = (
(451,465,o),
(480,469,o),
(524,469,cs),
(604,469,l),
(558,209,ls),
(549,160,o),
(519,156,o),
(475,156,cs),
(396,156,l),
(442,416,ls)
);
},
{
closed = 1;
nodes = (
(337,640,o),
(258,529,o),
(220,312,cs),
(212,265,o),
(207,224,o),
(207,187,cs),
(207,53,o),
(269,-15,o),
(442,-15,cs),
(534,-15,o),
(604,1,o),
(657,48,cs),
(761,140,o),
(792,328,o),
(792,438,cs),
(792,572,o),
(730,640,o),
(557,640,cs)
);
},
{
closed = 1;
nodes = (
(195,337,l),
(-205,337,l),
(188,295,l),
(189,302,o),
(190,309,o),
(192,317,c)
);
},
{
closed = 1;
nodes = (
(-216,241,l),
(178,199,l),
(178,212,o),
(179,226,o),
(181,241,c)
);
},
{
closed = 1;
nodes = (
(-181,433,l),
(207,392,l),
(219,433,l)
);
},
{
closed = 1;
nodes = (
(-203,145,l),
(186,103,l),
(183,116,o),
(181,130,o),
(179,145,c,{
name = hr01;
})
);
},
{
closed = 1;
nodes = (
(-134,529,l),
(240,489,l),
(246,503,o),
(253,516,o),
(260,529,c)
);
},
{
closed = 1;
nodes = (
(-107,48,l),
(239,11,l),
(227,21,o),
(217,34,o),
(209,48,c,{
name = hr02;
})
);
},
{
closed = 1;
nodes = (
(4,625,l),
(310,592,l),
(324,605,o),
(339,615,o),
(355,625,c)
);
},
{
closed = 1;
nodes = (
(621,839,o),
(604,861,o),
(572,861,cs),
(540,861,o),
(534,854,o),
(398,769,c),
(432,688,l),
(517,728,l),
(543,705,o),
(560,683,o),
(592,683,cs),
(624,683,o),
(630,690,o),
(766,775,c),
(733,856,l),
(647,816,l,{
name = hr03;
})
);
},
{
closed = 1;
nodes = (
(78,833,l),
(372,787,l),
(444,833,l)
);
},
{
closed = 1;
nodes = (
(78,754,l),
(391,708,l),
(372,754,l)
);
}
);
};
layerId = master01;
shapes = (
{
ref = O;
},
{
pos = (342,0);
ref = tildecomb.case;
}
);
width = 815;
}
);
unicode = 213;
},
{
glyphname = OE;
lastChange = "2023-02-08 10:37:52 +0000";
layers = (
{
anchors = (
{
name = bottom;
pos = (512,0);
},
{
name = top;
pos = (512,625);
}
);
background = {
shapes = (
{
closed = 1;
nodes = (
(953,160,l),
(739,160,l),
(752,236,l),
(923,236,l),
(949,381,l),
(778,381,l),
(792,465,l),
(977,465,l),
(1030,625,l),
(674,625,l),
(642,635,o),
(603,640,o),
(556,640,cs,{
name = hr01;
}),
(336,640,o),
(257,529,o),
(219,312,cs),
(211,265,o),
(206,224,o),
(206,187,cs),
(206,53,o),
(268,-15,o),
(441,-15,cs),
(488,-15,o),
(529,-10,o),
(564,0,c,{
name = hr02;
}),
(925,0,l)
);
},
{
closed = 1;
nodes = (
(450,465,o),
(479,469,o),
(523,469,cs),
(603,469,l),
(556,202,l),
(546,159,o),
(515,156,o),
(474,156,cs),
(395,156,l),
(441,416,ls)
);
},
{
closed = 1;
nodes = (
(-148,625,l),
(301,584,l),
(317,600,o),
(334,613,o),
(354,625,c)
);
},
{
closed = 1;
nodes = (
(187,300,o),
(188,308,o),
(190,317,cs),
(193,337,l),
(-238,337,l),
(186,292,l)
);
},
{
closed = 1;
nodes = (
(205,388,l),
(209,404,o),
(212,419,o),
(217,433,c),
(-215,433,l)
);
},
{
closed = 1;
nodes = (
(177,211,o),
(178,225,o),
(179,241,c),
(-247,241,l),
(177,196,l)
);
},
{
closed = 1;
nodes = (
(183,114,o),
(180,129,o),
(179,145,c,{
name = hr03;
}),
(-237,145,l),
(187,100,l)
);
},
{
closed = 1;
nodes = (
(-165,529,l),
(237,485,l),
(243,500,o),
(251,514,o),
(259,529,c)
);
},
{
closed = 1;
nodes = (
(231,16,o),
(218,31,o),
(208,48,c,{
name = hr04;
}),
(-177,48,l),
(247,3,l)
);
}
);
};
layerId = master01;
shapes = (
{
closed = 1;
nodes = (
(488,-15,o),
(529,-10,o),
(564,0,c,{
name = hr02;
}),
(925,0,l),
(953,160,l),
(739,160,l),
(752,236,l),
(923,236,l),
(949,381,l),
(778,381,l),
(792,465,l),
(977,465,l),
(1030,625,l),
(674,625,l),
(642,635,o),
(603,640,o),
(556,640,cs,{
name = hr01;
}),
(336,640,o),
(257,529,o),
(219,312,cs),
(211,265,o),
(206,224,o),
(206,187,cs),
(206,53,o),
(268,-15,o),
(441,-15,cs)
);
},
{
closed = 1;
nodes = (
(231,16,o),
(218,31,o),
(208,48,c,{
name = hr04;
}),
(-177,48,l),
(247,3,l)
);
},
{
closed = 1;
nodes = (
(183,114,o),
(180,129,o),
(179,145,c,{
name = hr03;
}),
(-237,145,l),
(187,100,l)
);
},
{
closed = 1;
nodes = (
(177,211,o),
(178,225,o),
(179,241,c),
(-247,241,l),
(177,196,l)
);
},
{
closed = 1;
nodes = (
(187,300,o),
(188,308,o),
(190,317,cs),
(193,337,l),
(-238,337,l),
(186,292,l)
);
},
{
closed = 1;
nodes = (
(209,404,o),
(212,419,o),
(217,433,c),
(-215,433,l),
(205,388,l)
);
},
{
closed = 1;
nodes = (
(243,500,o),
(251,514,o),
(259,529,c),
(-165,529,l),
(237,485,l)
);
},
{
closed = 1;
nodes = (
(317,600,o),
(334,613,o),
(354,625,c),
(-148,625,l),
(301,584,l)
);
},
{
closed = 1;
nodes = (
(441,416,ls),
(450,465,o),
(479,469,o),
(523,469,cs),
(603,469,l),
(556,202,l),
(546,159,o),
(515,156,o),
(474,156,cs),
(395,156,l)
);
}
);
width = 1024;
}
);
unicode = 338;
},
{
glyphname = P;
lastChange = "2023-02-08 10:37:52 +0000";
layers = (
{
anchors = (
{
name = bottom;
pos = (385,0);
},
{
name = top;
pos = (385,625);
}
);
background = {
shapes = (
{
closed = 1;
nodes = (
(747,151,o),
(784,376,o),
(784,467,cs),
(784,557,o),
(743,625,o),
(614,625,cs),
(314,625,l),
(204,0,l),
(394,0,l),
(420,151,l),
(544,151,ls,{
name = hr00;
})
);
},
{
closed = 1;
nodes = (
(519,465,ls),
(553,465,o),
(579,462,o),
(579,434,cs),
(579,431,o),
(579,427,o),
(566,353,cs),
(559,314,o),
(530,311,o),
(492,311,cs),
(448,311,l),
(475,465,l)
);
},
{
closed = 1;
nodes = (
(182,48,l),
(-250,48,l),
(174,3,l)
);
},
{
closed = 1;
nodes = (
(216,241,l),
(-216,241,l),
(208,196,l)
);
},
{
closed = 1;
nodes = (
(249,433,l),
(-182,433,l),
(241,388,l)
);
},
{
closed = 1;
nodes = (
(266,529,l),
(-165,529,l),
(258,484,l)
);
},
{
closed = 1;
nodes = (
(199,145,l),
(-233,145,l),
(191,100,l)
);
},
{
closed = 1;
nodes = (
(283,625,l),
(-148,625,l),
(275,580,l)
);
},
{
closed = 1;
nodes = (
(232,337,l),
(-199,337,l),
(224,292,l)
);
}
);
};
layerId = master01;
shapes = (
{
closed = 1;
nodes = (
(394,0,l),
(420,151,l),
(544,151,ls,{
name = hr00;
}),
(747,151,o),
(784,376,o),
(784,467,cs),
(784,557,o),
(743,625,o),
(614,625,cs),
(314,625,l),
(204,0,l)
);
},
{
closed = 1;
nodes = (
(182,48,l),
(-250,48,l),
(174,3,l)
);
},
{
closed = 1;
nodes = (
(199,145,l),
(-233,145,l),
(191,100,l)
);
},
{
closed = 1;
nodes = (
(216,241,l),
(-216,241,l),
(208,196,l)
);
},
{
closed = 1;
nodes = (
(232,337,l),
(-199,337,l),
(224,292,l)
);
},
{
closed = 1;
nodes = (
(249,433,l),
(-182,433,l),
(241,388,l)
);
},
{
closed = 1;
nodes = (
(266,529,l),
(-165,529,l),
(258,484,l)
);
},
{
closed = 1;
nodes = (
(283,625,l),
(-148,625,l),
(275,580,l)
);
},
{
closed = 1;
nodes = (
(475,465,l),
(519,465,ls),
(553,465,o),
(579,462,o),
(579,434,cs),
(579,431,o),
(579,427,o),
(566,353,cs),
(559,314,o),
(530,311,o),
(492,311,cs),
(448,311,l)
);
}
);
width = 769;
}
);
unicode = 80;
},
{
glyphname = Thorn;
lastChange = "2023-02-08 10:37:52 +0000";
layers = (
{
anchors = (
{
name = bottom;
pos = (385,0);
},
{
name = top;
pos = (385,625);
}
);
background = {
shapes = (
{
closed = 1;
nodes = (
(182,48,l),
(-250,48,l),
(174,3,l,{
name = hr00;
})
);
},
{
closed = 1;
nodes = (
(216,241,l),
(-216,241,l),
(208,196,l)
);
},
{
closed = 1;
nodes = (
(249,433,l),
(-182,433,l),
(241,388,l)
);
},
{
closed = 1;
nodes = (
(266,529,l),
(-165,529,l),
(258,484,l)
);
},
{
closed = 1;
nodes = (
(199,145,l),
(-233,145,l),
(191,100,l)
);
},
{
closed = 1;
nodes = (
(283,625,l),
(-148,625,l),
(275,580,l)
);
},
{
closed = 1;
nodes = (
(232,337,l),
(-199,337,l),
(224,292,l)
);
},
{
closed = 1;
nodes = (
(733,76,o),
(771,300,o),
(771,391,cs),
(771,482,o),
(730,550,o),
(600,550,cs),
(490,550,l),
(504,625,l),
(314,625,l),
(204,0,l),
(394,0,l),
(407,76,l),
(531,76,ls)
);
},
{
closed = 1;
nodes = (
(506,390,ls),
(540,390,o),
(566,387,o),
(566,359,cs),
(566,356,o),
(566,352,o),
(565,348,cs),
(553,278,ls),
(546,239,o),
(517,236,o),
(479,236,cs),
(435,236,l),
(462,390,l)
);
}
);
};
layerId = master01;
shapes = (
{
closed = 1;
nodes = (
(394,0,l),
(407,76,l),
(531,76,ls),
(733,76,o),
(771,300,o),
(771,391,cs),
(771,482,o),
(730,550,o),
(600,550,cs),
(490,550,l),
(504,625,l),
(314,625,l),
(204,0,l)
);
},
{
closed = 1;
nodes = (
(182,48,l),
(-250,48,l),
(174,3,l,{
name = hr00;
})
);
},
{
closed = 1;
nodes = (
(199,145,l),
(-233,145,l),
(191,100,l)
);
},
{
closed = 1;
nodes = (
(216,241,l),
(-216,241,l),
(208,196,l)
);
},
{
closed = 1;
nodes = (
(232,337,l),
(-199,337,l),
(224,292,l)
);
},
{
closed = 1;
nodes = (
(249,433,l),
(-182,433,l),
(241,388,l)
);
},
{
closed = 1;
nodes = (
(266,529,l),
(-165,529,l),
(258,484,l)
);
},
{
closed = 1;
nodes = (
(283,625,l),
(-148,625,l),
(275,580,l)
);
},
{
closed = 1;
nodes = (
(462,390,l),
(506,390,ls),
(540,390,o),
(566,387,o),
(566,359,cs),
(566,356,o),
(566,352,o),
(565,348,cs),
(553,278,ls),
(546,239,o),
(517,236,o),
(479,236,cs),
(435,236,l)
);
}
);
width = 769;
}
);
unicode = 222;
},
{
glyphname = Q;
lastChange = "2023-02-08 10:37:52 +0000";
layers = (
{
anchors = (
{
name = bottom;
pos = (408,0);
},
{
name = top;
pos = (408,625);
}
);
background = {
shapes = (
{
closed = 1;
nodes = (
(207,75,o),
(261,0,o),
(431,0,c),
(516,23,l),
(509,-15,l),
(685,-50,l),
(755,65,l),
(693,107,l),
(745,169,o),
(792,303,o),
(792,434,cs),
(792,570,o),
(729,640,o),
(557,640,cs),
(337,640,o),
(258,529,o),
(220,312,cs),
(212,265,o),
(207,224,o),
(207,187,cs)
);
},
{
closed = 1;
nodes = (
(442,416,ls),
(451,465,o),
(480,469,o),
(524,469,cs),
(604,469,l),
(558,209,ls),
(549,160,o),
(519,156,o),
(475,156,cs),
(396,156,l)
);
},
{
closed = 1;
nodes = (
(-205,337,l),
(188,295,l),
(195,337,l)
);
},
{
closed = 1;
nodes = (
(-216,241,l),
(178,199,l),
(178,212,o),
(179,226,o),
(181,241,c)
);
},
{
closed = 1;
nodes = (
(-181,433,l),
(207,392,l),
(219,433,l)
);
},
{
closed = 1;
nodes = (
(-203,145,l),
(187,103,l),
(184,116,o),
(181,130,o),
(179,145,c)
);
},
{
closed = 1;
nodes = (
(-134,529,l),
(240,489,l),
(246,503,o),
(253,516,o),
(260,529,c)
);
},
{
closed = 1;
nodes = (
(-107,48,l),
(255,11,l),
(243,21,o),
(225,37,o),
(215,48,c)
);
},
{
closed = 1;
nodes = (
(4,625,l),
(310,592,l),
(324,605,o),
(339,615,o),
(355,625,c,{
name = hr01;
})
);
}
);
};
layerId = master01;
shapes = (
{
closed = 1;
nodes = (
(755,65,l),
(693,107,l),
(745,169,o),
(792,303,o),
(792,434,cs),
(792,570,o),
(729,640,o),
(557,640,cs),
(337,640,o),
(258,529,o),
(220,312,cs),
(212,265,o),
(207,224,o),
(207,187,cs),
(207,75,o),
(261,0,o),
(431,0,c),
(516,23,l),
(509,-15,l),
(685,-50,l)
);
},
{
closed = 1;
nodes = (
(243,21,o),
(225,37,o),
(215,48,c),
(-107,48,l),
(255,11,l)
);
},
{
closed = 1;
nodes = (
(184,116,o),
(181,130,o),
(179,145,c),
(-203,145,l),
(187,103,l)
);
},
{
closed = 1;
nodes = (
(178,212,o),
(179,226,o),
(181,241,c),
(-216,241,l),
(178,199,l)
);
},
{
closed = 1;
nodes = (
(195,337,l),
(-205,337,l),
(188,295,l)
);
},
{
closed = 1;
nodes = (
(219,433,l),
(-181,433,l),
(207,392,l)
);
},
{
closed = 1;
nodes = (
(246,503,o),
(253,516,o),
(260,529,c),
(-134,529,l),
(240,489,l)
);
},
{
closed = 1;
nodes = (
(324,605,o),
(339,615,o),
(355,625,c,{
name = hr01;
}),
(4,625,l),
(310,592,l)
);
},
{
closed = 1;
nodes = (
(442,416,ls),
(451,465,o),
(480,469,o),
(524,469,cs),
(604,469,l),
(558,209,ls),
(549,160,o),
(519,156,o),
(475,156,cs),
(396,156,l)
);
}
);
width = 815;
}
);
unicode = 81;
},
{
glyphname = R;
lastChange = "2023-02-08 10:50:21 +0000";
layers = (
{
anchors = (
{
name = bottom;
pos = (298,0);
},
{
name = top;
pos = (367,625);
}
);
background = {
shapes = (
{
closed = 1;
nodes = (
(656,208,l),
(761,260,o),
(785,400,o),
(785,472,cs),
(785,560,o),
(744,625,o),
(614,625,cs),
(314,625,l),
(204,0,l),
(394,0,l),
(426,186,l),
(467,186,l),
(513,0,l),
(722,0,l,{
name = hr00;
})
);
},
{
closed = 1;
nodes = (
(513,465,ls),
(552,465,o),
(579,463,o),
(579,434,cs),
(579,432,o),
(577,415,o),
(571,382,cs),
(564,343,o),
(535,340,o),
(497,340,cs),
(453,340,l),
(475,465,l)
);
},
{
closed = 1;
nodes = (
(182,48,l),
(-250,48,l),
(174,3,l)
);
},
{
closed = 1;
nodes = (
(216,241,l),
(-216,241,l),
(208,196,l)
);
},
{
closed = 1;
nodes = (
(249,433,l),
(-182,433,l),
(241,388,l)
);
},
{
closed = 1;
nodes = (
(266,529,l),
(-165,529,l),
(258,484,l)
);
},
{
closed = 1;
nodes = (
(199,145,l),
(-233,145,l),
(191,100,l)
);
},
{
closed = 1;
nodes = (
(283,625,l),
(-148,625,l),
(275,580,l)
);
},
{
closed = 1;
nodes = (
(232,337,l),
(-199,337,l),
(224,292,l)
);
}
);
};
layerId = master01;
shapes = (
{
closed = 1;
nodes = (
(394,0,l),
(426,186,l),
(467,186,l),
(513,0,l),
(722,0,l,{
name = hr00;
}),
(656,208,l),
(761,260,o),
(785,400,o),
(785,472,cs),
(785,560,o),
(744,625,o),
(614,625,cs),
(314,625,l),
(204,0,l)
);
},
{
closed = 1;
nodes = (
(182,48,l),
(-250,48,l),
(174,3,l)
);
},
{
closed = 1;
nodes = (
(199,145,l),
(-233,145,l),
(191,100,l)
);
},
{
closed = 1;
nodes = (
(216,241,l),
(-216,241,l),
(208,196,l)
);
},
{
closed = 1;
nodes = (
(232,337,l),
(-199,337,l),
(224,292,l)
);
},
{
closed = 1;
nodes = (
(249,433,l),
(-182,433,l),
(241,388,l)
);
},
{
closed = 1;
nodes = (
(266,529,l),
(-165,529,l),
(258,484,l)
);
},
{
closed = 1;
nodes = (
(283,625,l),
(-148,625,l),
(275,580,l)
);
},
{
closed = 1;
nodes = (
(475,465,l),
(513,465,ls),
(552,465,o),
(579,463,o),
(579,434,cs),
(579,432,o),
(577,415,o),
(571,382,cs),
(564,343,o),
(535,340,o),
(497,340,cs),
(453,340,l)
);
}
);
width = 795;
}
);
unicode = 82;
},
{
glyphname = Racute;
lastChange = "2023-02-08 10:50:16 +0000";
layers = (
{
background = {
shapes = (
{
closed = 1;
nodes = (
(656,208,l),
(761,260,o),
(785,400,o),
(785,472,cs),
(785,560,o),
(744,625,o),
(614,625,cs),
(314,625,l),
(204,0,l),
(394,0,l),
(426,186,l),
(467,186,l),
(513,0,l),
(722,0,l,{
name = hr00;
})
);
},
{
closed = 1;
nodes = (
(513,465,ls),
(552,465,o),
(579,463,o),
(579,434,cs),
(579,432,o),
(577,415,o),
(571,382,cs),
(564,343,o),
(535,340,o),
(497,340,cs),
(453,340,l),
(475,465,l)
);
},
{
closed = 1;
nodes = (
(182,48,l),
(-250,48,l),
(174,3,l)
);
},
{
closed = 1;
nodes = (
(216,241,l),
(-216,241,l),
(208,196,l)
);
},
{
closed = 1;
nodes = (
(249,433,l),
(-182,433,l),
(241,388,l)
);
},
{
closed = 1;
nodes = (
(266,529,l),
(-165,529,l),
(258,484,l)
);
},
{
closed = 1;
nodes = (
(199,145,l),
(-233,145,l),
(191,100,l)
);
},
{
closed = 1;
nodes = (
(283,625,l),
(-148,625,l),
(275,580,l)
);
},
{
closed = 1;
nodes = (
(232,337,l),
(-199,337,l),
(224,292,l)
);
},
{
closed = 1;
nodes = (
(664,717,o),
(668,720,o),
(675,726,cs),
(719,764,o),
(720,765,o),
(720,765,c),
(722,768,o),
(724,771,o),
(724,776,cs),
(724,781,o),
(721,787,o),
(715,794,cs),
(652,868,ls),
(647,874,o),
(641,879,o),
(634,879,cs),
(630,879,o),
(626,877,o),
(623,875,cs),
(434,736,l),
(475,679,l),
(649,714,ls,{
name = hr00;
})
);
},
{
closed = 1;
nodes = (
(514,833,l),
(101,833,l),
(461,794,l)
);
},
{
closed = 1;
nodes = (
(403,752,l),
(-10,752,l),
(350,713,l)
);
}
);
};
layerId = master01;
shapes = (
{
ref = R;
},
{
pos = (404,0);
ref = acutecomb.case;
}
);
width = 795;
}
);
unicode = 340;
},
{
glyphname = Rcaron;
lastChange = "2023-02-08 10:52:54 +0000";
layers = (
{
background = {
anchors = (
{
name = top;
pos = (367,866);
}
);
shapes = (
{
closed = 1;
nodes = (
(656,208,l),
(761,260,o),
(785,400,o),
(785,472,cs),
(785,560,o),
(744,625,o),
(614,625,cs),
(314,625,l),
(204,0,l),
(394,0,l),
(426,186,l),
(467,186,l),
(513,0,l),
(722,0,l,{
name = hr00;
})
);
},
{
closed = 1;
nodes = (
(513,465,ls),
(552,465,o),
(579,463,o),
(579,434,cs),
(579,432,o),
(577,415,o),
(571,382,cs),
(564,343,o),
(535,340,o),
(497,340,cs),
(453,340,l),
(475,465,l)
);
},
{
closed = 1;
nodes = (
(182,48,l),
(-250,48,l),
(174,3,l)
);
},
{
closed = 1;
nodes = (
(216,241,l),
(-216,241,l),
(208,196,l)
);
},
{
closed = 1;
nodes = (
(249,433,l),
(-182,433,l),
(241,388,l)
);
},
{
closed = 1;
nodes = (
(266,529,l),
(-165,529,l),
(258,484,l)
);
},
{
closed = 1;
nodes = (
(199,145,l),
(-233,145,l),
(191,100,l)
);
},
{
closed = 1;
nodes = (
(283,625,l),
(-148,625,l),
(275,580,l)
);
},
{
closed = 1;
nodes = (
(232,337,l),
(-199,337,l),
(224,292,l)
);
},
{
closed = 1;
nodes = (
(577,663,o),
(583,666,o),
(588,672,cs),
(720,817,l),
(672,866,l),
(573,803,l),
(495,866,l),
(429,817,l),
(512,672,ls),
(515,667,o),
(518,663,o),
(525,663,cs),
(570,663,ls,{
name = hr00;
})
);
},
{
closed = 1;
nodes = (
(392,819,l),
(14,819,l),
(415,780,l)
);
},
{
closed = 1;
nodes = (
(439,738,l),
(53,738,l),
(461,699,l)
);
}
);
};
layerId = master01;
shapes = (
{
ref = R;
},
{
pos = (366,1);
ref = caroncomb.case;
}
);
width = 795;
}
);
unicode = 344;
},
{
glyphname = Rcommaaccent;
lastChange = "2023-02-08 10:50:21 +0000";
layers = (
{
background = {
anchors = (
{
name = bottom;
pos = (298,-371);
}
);
shapes = (
{
closed = 1;
nodes = (
(656,208,l),
(761,260,o),
(785,400,o),
(785,472,cs),
(785,560,o),
(744,625,o),
(614,625,cs),
(314,625,l),
(204,0,l),
(394,0,l),
(426,186,l),
(467,186,l),
(513,0,l),
(722,0,l,{
name = hr00;
})
);
},
{
closed = 1;
nodes = (
(513,465,ls),
(552,465,o),
(579,463,o),
(579,434,cs),
(579,432,o),
(577,415,o),
(571,382,cs),
(564,343,o),
(535,340,o),
(497,340,cs),
(453,340,l),
(475,465,l)
);
},
{
closed = 1;
nodes = (
(182,48,l),
(-250,48,l),
(174,3,l)
);
},
{
closed = 1;
nodes = (
(216,241,l),
(-216,241,l),
(208,196,l)
);
},
{
closed = 1;
nodes = (
(249,433,l),
(-182,433,l),
(241,388,l)
);
},
{
closed = 1;
nodes = (
(266,529,l),
(-165,529,l),
(258,484,l)
);
},
{
closed = 1;
nodes = (
(199,145,l),
(-233,145,l),
(191,100,l)
);
},
{
closed = 1;
nodes = (
(283,625,l),
(-148,625,l),
(275,580,l)
);
},
{
closed = 1;
nodes = (
(232,337,l),
(-199,337,l),
(224,292,l)
);
},
{
closed = 1;
nodes = (
(316,-165,o),
(315,-174,o),
(315,-182,cs),
(315,-210,o),
(327,-226,o),
(361,-232,c),
(319,-342,l),
(399,-371,l),
(473,-269,ls),
(506,-218,o),
(529,-170,o),
(529,-113,cs),
(529,-67,o),
(507,-48,o),
(441,-48,cs),
(356,-48,o),
(333,-79,o),
(318,-155,cs,{
name = hr00;
})
);
},
{
closed = 1;
nodes = (
(322,-255,l),
(300,-246,o),
(289,-222,o),
(284,-206,c),
(71,-206,l)
);
},
{
closed = 1;
nodes = (
(66,-109,l),
(288,-154,l),
(290,-136,o),
(293,-122,o),
(297,-109,c)
);
}
);
};
layerId = master01;
shapes = (
{
ref = R;
},
{
pos = (198,0);
ref = commaaccentcomb;
}
);
width = 795;
}
);
unicode = 342;
},
{
glyphname = S;
lastChange = "2023-02-08 10:51:41 +0000";
layers = (
{
anchors = (
{
name = bottom;
pos = (329,0);
},
{
name = top;
pos = (399,625);
}
);
background = {
shapes = (
{
closed = 1;
nodes = (
(259,401,o),
(261,411,o),
(263,421,c),
(263,425,o),
(264,429,o),
(265,433,c),
(-166,433,l),
(258,388,l)
);
},
{
closed = 1;
nodes = (
(-138,529,l),
(277,485,l),
(292,529,l)
);
},
{
closed = 1;
nodes = (
(-157,337,l),
(266,292,l),
(261,306,o),
(259,320,o),
(258,337,c)
);
},
{
closed = 1;
nodes = (
(354,205,o),
(322,220,o),
(300,241,c),
(-131,241,l),
(398,196,l)
);
},
{
closed = 1;
nodes = (
(-63,625,l),
(323,584,l),
(336,600,o),
(350,614,o),
(367,625,c)
);
},
{
closed = 1;
nodes = (
(211,101,l),
(226,145,l),
(-148,145,l)
);
},
{
closed = 1;
nodes = (
(179,4,l),
(194,48,l),
(-165,48,l)
);
},
{
closed = 1;
nodes = (
(283,-7,o),
(359,-15,o),
(438,-15,cs),
(575,-15,o),
(710,-8,o),
(748,209,cs),
(751,227,o),
(753,244,o),
(753,260,cs),
(753,339,o),
(708,394,o),
(565,409,cs),
(498,416,l),
(506,465,l),
(536,469,o),
(553,470,o),
(584,470,cs,{
name = hr01;
}),
(641,470,o),
(684,464,o),
(736,455,c),
(788,615,l),
(722,632,o),
(651,640,o),
(578,640,cs),
(390,640,o),
(324,586,o),
(293,416,cs),
(289,394,o),
(287,375,o),
(287,356,cs),
(287,276,o),
(330,230,o),
(461,217,cs),
(544,209,l),
(536,159,l),
(507,155,o),
(476,153,o),
(434,153,cs),
(382,153,o),
(320,162,o),
(269,176,c),
(213,11,l)
);
}
);
};
layerId = master01;
shapes = (
{
closed = 1;
nodes = (
(575,-15,o),
(710,-8,o),
(748,209,cs),
(751,227,o),
(753,244,o),
(753,260,cs),
(753,339,o),
(708,394,o),
(565,409,cs),
(498,416,l),
(506,465,l),
(536,469,o),
(553,470,o),
(584,470,cs,{
name = hr01;
}),
(641,470,o),
(684,464,o),
(736,455,c),
(788,615,l),
(722,632,o),
(651,640,o),
(578,640,cs),
(390,640,o),
(324,586,o),
(293,416,cs),
(289,394,o),
(287,375,o),
(287,356,cs),
(287,276,o),
(330,230,o),
(461,217,cs),
(544,209,l),
(536,159,l),
(507,155,o),
(476,153,o),
(434,153,cs),
(382,153,o),
(320,162,o),
(269,176,c),
(213,11,l),
(283,-7,o),
(359,-15,o),
(438,-15,cs)
);
},
{
closed = 1;
nodes = (
(194,48,l),
(-165,48,l),
(179,4,l)
);
},
{
closed = 1;
nodes = (
(226,145,l),
(-148,145,l),
(211,101,l)
);
},
{
closed = 1;
nodes = (
(354,205,o),
(322,220,o),
(300,241,c),
(-131,241,l),
(398,196,l)
);
},
{
closed = 1;
nodes = (
(261,306,o),
(259,320,o),
(258,337,c),
(-157,337,l),
(266,292,l)
);
},
{
closed = 1;
nodes = (
(259,401,o),
(261,411,o),
(263,421,c),
(263,425,o),
(264,429,o),
(265,433,c),
(-166,433,l),
(258,388,l)
);
},
{
closed = 1;
nodes = (
(292,529,l),
(-138,529,l),
(277,485,l)
);
},
{
closed = 1;
nodes = (
(336,600,o),
(350,614,o),
(367,625,c),
(-63,625,l),
(323,584,l)
);
}
);
width = 798;
}
);
unicode = 83;
},
{
glyphname = Sacute;
lastChange = "2023-02-08 10:34:42 +0000";
layers = (
{
background = {
shapes = (
{
closed = 1;
nodes = (
(259,401,o),
(261,411,o),
(263,421,c),
(263,425,o),
(264,429,o),
(265,433,c),
(-166,433,l),
(258,388,l)
);
},
{
closed = 1;
nodes = (
(-138,529,l),
(277,485,l),
(292,529,l)
);
},
{
closed = 1;
nodes = (
(-157,337,l),
(266,292,l),
(261,306,o),
(259,320,o),
(258,337,c)
);
},
{
closed = 1;
nodes = (
(354,205,o),
(322,220,o),
(300,241,c),
(-131,241,l),
(398,196,l)
);
},
{
closed = 1;
nodes = (
(-63,625,l),
(323,584,l),
(336,600,o),
(350,614,o),
(367,625,c)
);
},
{
closed = 1;
nodes = (
(211,101,l),
(226,145,l),
(-148,145,l)
);
},
{
closed = 1;
nodes = (
(179,4,l),
(194,48,l),
(-165,48,l)
);
},
{
closed = 1;
nodes = (
(283,-7,o),
(359,-15,o),
(438,-15,cs),
(575,-15,o),
(710,-8,o),
(748,209,cs),
(751,227,o),
(753,244,o),
(753,260,cs),
(753,339,o),
(708,394,o),
(565,409,cs),
(498,416,l),
(506,465,l),
(536,469,o),
(553,470,o),
(584,470,cs,{
name = hr01;
}),
(641,470,o),
(684,464,o),
(736,455,c),
(788,615,l),
(722,632,o),
(651,640,o),
(578,640,cs),
(390,640,o),
(324,586,o),
(293,416,cs),
(289,394,o),
(287,375,o),
(287,356,cs),
(287,276,o),
(330,230,o),
(461,217,cs),
(544,209,l),
(536,159,l),
(507,155,o),
(476,153,o),
(434,153,cs),
(382,153,o),
(320,162,o),
(269,176,c),
(213,11,l)
);
},
{
closed = 1;
nodes = (
(706,717,o),
(710,720,o),
(717,726,cs),
(761,764,o),
(762,765,o),
(762,765,c),
(764,768,o),
(766,771,o),
(766,776,cs),
(766,781,o),
(763,787,o),
(757,794,cs),
(694,868,ls),
(689,874,o),
(683,879,o),
(676,879,cs),
(672,879,o),
(668,877,o),
(665,875,cs),
(476,736,l),
(517,679,l),
(691,714,ls,{
name = hr00;
})
);
},
{
closed = 1;
nodes = (
(556,833,l),
(143,833,l),
(503,794,l)
);
},
{
closed = 1;
nodes = (
(445,752,l),
(32,752,l),
(392,713,l)
);
}
);
};
layerId = master01;
shapes = (
{
ref = S;
},
{
pos = (436,0);
ref = acutecomb.case;
}
);
width = 798;
}
);
unicode = 346;
},
{
glyphname = Scaron;
lastChange = "2023-02-08 10:52:54 +0000";
layers = (
{
background = {
shapes = (
{
closed = 1;
nodes = (
(259,401,o),
(261,411,o),
(263,421,c),
(263,425,o),
(264,429,o),
(265,433,c),
(-166,433,l),
(258,388,l)
);
},
{
closed = 1;
nodes = (
(-138,529,l),
(277,485,l),
(292,529,l)
);
},
{
closed = 1;
nodes = (
(-157,337,l),
(266,292,l),
(261,306,o),
(259,320,o),
(258,337,c)
);
},
{
closed = 1;
nodes = (
(354,205,o),
(322,220,o),
(300,241,c),
(-131,241,l),
(398,196,l)
);
},
{
closed = 1;
nodes = (
(-63,625,l),
(323,584,l),
(336,600,o),
(350,614,o),
(367,625,c)
);
},
{
closed = 1;
nodes = (
(211,101,l),
(226,145,l),
(-148,145,l)
);
},
{
closed = 1;
nodes = (
(179,4,l),
(194,48,l),
(-165,48,l)
);
},
{
closed = 1;
nodes = (
(283,-7,o),
(359,-15,o),
(438,-15,cs),
(575,-15,o),
(710,-8,o),
(748,209,cs),
(751,227,o),
(753,244,o),
(753,260,cs),
(753,339,o),
(708,394,o),
(565,409,cs),
(498,416,l),
(506,465,l),
(536,469,o),
(553,470,o),
(584,470,cs,{
name = hr01;
}),
(641,470,o),
(684,464,o),
(736,455,c),
(788,615,l),
(722,632,o),
(651,640,o),
(578,640,cs),
(390,640,o),
(324,586,o),
(293,416,cs),
(289,394,o),
(287,375,o),
(287,356,cs),
(287,276,o),
(330,230,o),
(461,217,cs),
(544,209,l),
(536,159,l),
(507,155,o),
(476,153,o),
(434,153,cs),
(382,153,o),
(320,162,o),
(269,176,c),
(213,11,l)
);
},
{
closed = 1;
nodes = (
(595,677,o),
(601,680,o),
(606,686,cs),
(738,831,l),
(690,880,l),
(591,817,l),
(513,880,l),
(447,831,l),
(530,686,ls),
(533,681,o),
(536,677,o),
(543,677,cs),
(588,677,ls,{
name = hr02;
})
);
},
{
closed = 1;
nodes = (
(410,833,l),
(32,833,l),
(433,794,l)
);
},
{
closed = 1;
nodes = (
(457,752,l),
(71,752,l),
(479,713,l)
);
}
);
};
layerId = master01;
shapes = (
{
ref = S;
},
{
pos = (398,1);
ref = caroncomb.case;
}
);
width = 798;
}
);
unicode = 352;
},
{
glyphname = Scedilla;
lastChange = "2023-02-08 10:51:41 +0000";
layers = (
{
background = {
anchors = (
{
name = bottom;
pos = (329,-165);
}
);
shapes = (
{
closed = 1;
nodes = (
(259,401,o),
(261,411,o),
(263,421,c),
(263,425,o),
(264,429,o),
(265,433,c),
(-166,433,l),
(258,388,l)
);
},
{
closed = 1;
nodes = (
(-138,529,l),
(277,485,l),
(292,529,l)
);
},
{
closed = 1;
nodes = (
(-157,337,l),
(266,292,l),
(261,306,o),
(259,320,o),
(258,337,c)
);
},
{
closed = 1;
nodes = (
(354,205,o),
(322,220,o),
(300,241,c),
(-131,241,l),
(398,196,l)
);
},
{
closed = 1;
nodes = (
(-63,625,l),
(323,584,l),
(336,600,o),
(350,614,o),
(367,625,c)
);
},
{
closed = 1;
nodes = (
(211,101,l),
(226,145,l),
(-148,145,l)
);
},
{
closed = 1;
nodes = (
(179,4,l),
(194,48,l),
(-165,48,l)
);
},
{
closed = 1;
nodes = (
(283,-7,o),
(359,-15,o),
(438,-15,cs),
(575,-15,o),
(710,-8,o),
(748,209,cs),
(751,227,o),
(753,244,o),
(753,260,cs),
(753,339,o),
(708,394,o),
(565,409,cs),
(498,416,l),
(506,465,l),
(536,469,o),
(553,470,o),
(584,470,cs,{
name = hr01;
}),
(641,470,o),
(684,464,o),
(736,455,c),
(788,615,l),
(722,632,o),
(651,640,o),
(578,640,cs),
(390,640,o),
(324,586,o),
(293,416,cs),
(289,394,o),
(287,375,o),
(287,356,cs),
(287,276,o),
(330,230,o),
(461,217,cs),
(544,209,l),
(536,159,l),
(507,155,o),
(476,153,o),
(434,153,cs),
(382,153,o),
(320,162,o),
(269,176,c),
(213,11,l)
);
},
{
closed = 1;
nodes = (
(414,-54,o),
(408,-58,o),
(382,-58,cs),
(351,-58,l),
(325,-146,l),
(354,-158,o),
(386,-165,o),
(420,-165,cs),
(503,-165,o),
(542,-114,o),
(542,-64,cs),
(542,-29,o),
(523,5,o),
(485,21,c,{
name = hr01;
}),
(427,21,l),
(419,-26,ls)
);
},
{
closed = 1;
nodes = (
(319,-58,l,{
name = hr02;
}),
(128,-58,l),
(310,-89,l)
);
},
{
closed = 1;
nodes = (
(298,-130,l),
(115,-130,l),
(289,-161,l)
);
}
);
};
layerId = master01;
shapes = (
{
ref = S;
},
{
pos = (216,0);
ref = cedillacomb;
}
);
width = 798;
}
);
unicode = 350;
},
{
glyphname = Scircumflex;
lastChange = "2023-02-08 10:34:42 +0000";
layers = (
{
background = {
shapes = (
{
closed = 1;
nodes = (
(259,401,o),
(261,411,o),
(263,421,c),
(263,425,o),
(264,429,o),
(265,433,c),
(-166,433,l),
(258,388,l)
);
},
{
closed = 1;
nodes = (
(-138,529,l),
(277,485,l),
(292,529,l)
);
},
{
closed = 1;
nodes = (
(-157,337,l),
(266,292,l),
(261,306,o),
(259,320,o),
(258,337,c)
);
},
{
closed = 1;
nodes = (
(354,205,o),
(322,220,o),
(300,241,c),
(-131,241,l),
(398,196,l)
);
},
{
closed = 1;
nodes = (
(-63,625,l),
(323,584,l),
(336,600,o),
(350,614,o),
(367,625,c)
);
},
{
closed = 1;
nodes = (
(211,101,l),
(226,145,l),
(-148,145,l)
);
},
{
closed = 1;
nodes = (
(179,4,l),
(194,48,l),
(-165,48,l)
);
},
{
closed = 1;
nodes = (
(283,-7,o),
(359,-15,o),
(438,-15,cs),
(575,-15,o),
(710,-8,o),
(748,209,cs),
(751,227,o),
(753,244,o),
(753,260,cs),
(753,339,o),
(708,394,o),
(565,409,cs),
(498,416,l),
(506,465,l),
(536,469,o),
(553,470,o),
(584,470,cs,{
name = hr01;
}),
(641,470,o),
(684,464,o),
(736,455,c),
(788,615,l),
(722,632,o),
(651,640,o),
(578,640,cs),
(390,640,o),
(324,586,o),
(293,416,cs),
(289,394,o),
(287,375,o),
(287,356,cs),
(287,276,o),
(330,230,o),
(461,217,cs),
(544,209,l),
(536,159,l),
(507,155,o),
(476,153,o),
(434,153,cs),
(382,153,o),
(320,162,o),
(269,176,c),
(213,11,l)
);
},
{
closed = 1;
nodes = (
(588,880,o),
(582,877,o),
(577,871,cs),
(445,726,l),
(493,677,l),
(592,740,l),
(670,677,l),
(736,726,l),
(653,871,ls),
(650,876,o),
(647,880,o),
(640,880,cs),
(595,880,ls,{
name = hr00;
})
);
},
{
closed = 1;
nodes = (
(501,833,l),
(143,833,l),
(466,794,l)
);
},
{
closed = 1;
nodes = (
(428,752,l),
(62,752,l),
(392,713,l)
);
}
);
};
layerId = master01;
shapes = (
{
ref = S;
},
{
pos = (405,0);
ref = circumflexcomb.case;
}
);
width = 798;
}
);
unicode = 348;
},
{
glyphname = Scommaaccent;
lastChange = "2023-02-08 10:51:41 +0000";
layers = (
{
background = {
anchors = (
{
name = bottom;
pos = (309,-371);
}
);
shapes = (
{
closed = 1;
nodes = (
(259,401,o),
(261,411,o),
(263,421,c),
(263,425,o),
(264,429,o),
(265,433,c),
(-166,433,l),
(258,388,l)
);
},
{
closed = 1;
nodes = (
(-138,529,l),
(277,485,l),
(292,529,l)
);
},
{
closed = 1;
nodes = (
(-157,337,l),
(266,292,l),
(261,306,o),
(259,320,o),
(258,337,c)
);
},
{
closed = 1;
nodes = (
(354,205,o),
(322,220,o),
(300,241,c),
(-131,241,l),
(398,196,l)
);
},
{
closed = 1;
nodes = (
(-63,625,l),
(323,584,l),
(336,600,o),
(350,614,o),
(367,625,c)
);
},
{
closed = 1;
nodes = (
(211,101,l),
(226,145,l),
(-148,145,l)
);
},
{
closed = 1;
nodes = (
(179,4,l),
(194,48,l),
(-165,48,l)
);
},
{
closed = 1;
nodes = (
(283,-7,o),
(359,-15,o),
(438,-15,cs),
(575,-15,o),
(710,-8,o),
(748,209,cs),
(751,227,o),
(753,244,o),
(753,260,cs),
(753,339,o),
(708,394,o),
(565,409,cs),
(498,416,l),
(506,465,l),
(536,469,o),
(553,470,o),
(584,470,cs,{
name = hr01;
}),
(641,470,o),
(684,464,o),
(736,455,c),
(788,615,l),
(722,632,o),
(651,640,o),
(578,640,cs),
(390,640,o),
(324,586,o),
(293,416,cs),
(289,394,o),
(287,375,o),
(287,356,cs),
(287,276,o),
(330,230,o),
(461,217,cs),
(544,209,l),
(536,159,l),
(507,155,o),
(476,153,o),
(434,153,cs),
(382,153,o),
(320,162,o),
(269,176,c),
(213,11,l)
);
},
{
closed = 1;
nodes = (
(327,-165,o),
(326,-174,o),
(326,-182,cs),
(326,-210,o),
(338,-226,o),
(372,-232,c),
(330,-342,l),
(410,-371,l),
(484,-269,ls),
(517,-218,o),
(540,-170,o),
(540,-113,cs),
(540,-67,o),
(518,-48,o),
(452,-48,cs),
(367,-48,o),
(344,-79,o),
(329,-155,cs,{
name = hr00;
})
);
},
{
closed = 1;
nodes = (
(333,-255,l),
(311,-246,o),
(300,-222,o),
(295,-206,c),
(82,-206,l)
);
},
{
closed = 1;
nodes = (
(77,-109,l),
(299,-154,l),
(301,-136,o),
(304,-122,o),
(308,-109,c)
);
}
);
};
layerId = master01;
shapes = (
{
ref = S;
},
{
pos = (229,0);
ref = commaaccentcomb;
}
);
width = 798;
}
);
unicode = 536;
},
{
glyphname = T;
lastChange = "2023-02-08 10:51:52 +0000";
layers = (
{
anchors = (
{
name = bottom;
pos = (282,0);
},
{
name = center;
pos = (364,313);
},
{
name = top;
pos = (364,625);
}
);
background = {
shapes = (
{
closed = 1;
nodes = (
(765,625,l),
(300,625,l),
(271,465,l),
(408,465,l),
(327,0,l),
(517,0,l),
(598,465,l),
(736,465,l,{
name = hr00;
})
);
},
{
closed = 1;
nodes = (
(304,48,l),
(-128,48,l),
(296,3,l)
);
},
{
closed = 1;
nodes = (
(338,241,l),
(-94,241,l),
(330,196,l)
);
},
{
closed = 1;
nodes = (
(355,337,l),
(-77,337,l),
(347,292,l)
);
},
{
closed = 1;
nodes = (
(372,433,l),
(-60,433,l),
(364,388,l)
);
},
{
closed = 1;
nodes = (
(321,145,l),
(-111,145,l),
(313,100,l)
);
},
{
closed = 1;
nodes = (
(251,529,l),
(-180,529,l),
(244,484,l)
);
},
{
closed = 1;
nodes = (
(268,625,l),
(-163,625,l),
(260,580,l)
);
}
);
};
layerId = master01;
shapes = (
{
closed = 1;
nodes = (
(517,0,l),
(598,465,l),
(736,465,l,{
name = hr00;
}),
(765,625,l),
(300,625,l),
(271,465,l),
(408,465,l),
(327,0,l)
);
},
{
closed = 1;
nodes = (
(304,48,l),
(-128,48,l),
(296,3,l)
);
},
{
closed = 1;
nodes = (
(321,145,l),
(-111,145,l),
(313,100,l)
);
},
{
closed = 1;
nodes = (
(338,241,l),
(-94,241,l),
(330,196,l)
);
},
{
closed = 1;
nodes = (
(355,337,l),
(-77,337,l),
(347,292,l)
);
},
{
closed = 1;
nodes = (
(251,529,l),
(-180,529,l),
(244,484,l)
);
},
{
closed = 1;
nodes = (
(372,433,l),
(-60,433,l),
(364,388,l)
);
},
{
closed = 1;
nodes = (
(268,625,l),
(-163,625,l),
(260,580,l)
);
}
);
width = 727;
}
);
unicode = 84;
},
{
glyphname = Tbar;
lastChange = "2023-02-08 10:37:52 +0000";
layers = (
{
background = {
shapes = (
{
closed = 1;
nodes = (
(680,196,l),
(689,242,l),
(239,242,l),
(231,196,l,{
name = hr00;
})
);
},
{
closed = 1;
nodes = (
(765,625,l),
(300,625,l),
(271,465,l),
(408,465,l),
(327,0,l),
(517,0,l),
(598,465,l),
(736,465,l)
);
},
{
closed = 1;
nodes = (
(304,48,l),
(-128,48,l),
(296,3,l)
);
},
{
closed = 1;
nodes = (
(355,337,l),
(-77,337,l),
(347,292,l)
);
},
{
closed = 1;
nodes = (
(372,433,l),
(-60,433,l),
(364,388,l)
);
},
{
closed = 1;
nodes = (
(321,145,l),
(-111,145,l),
(313,100,l)
);
},
{
closed = 1;
nodes = (
(251,529,l),
(-180,529,l),
(244,484,l)
);
},
{
closed = 1;
nodes = (
(268,625,l),
(-163,625,l),
(260,580,l)
);
}
);
};
layerId = master01;
shapes = (
{
closed = 1;
nodes = (
(517,0,l),
(598,465,l),
(736,465,l),
(765,625,l),
(300,625,l),
(271,465,l),
(408,465,l),
(327,0,l)
);
},
{
closed = 1;
nodes = (
(304,48,l),
(-128,48,l),
(296,3,l)
);
},
{
closed = 1;
nodes = (
(321,145,l),
(-111,145,l),
(313,100,l)
);
},
{
closed = 1;
nodes = (
(355,337,l),
(-77,337,l),
(347,292,l)
);
},
{
closed = 1;
nodes = (
(251,529,l),
(-180,529,l),
(244,484,l)
);
},
{
closed = 1;
nodes = (
(372,433,l),
(-60,433,l),
(364,388,l)
);
},
{
closed = 1;
nodes = (
(268,625,l),
(-163,625,l),
(260,580,l)
);
},
{
closed = 1;
nodes = (
(680,196,l),
(689,242,l),
(239,242,l),
(231,196,l,{
name = hr00;
})
);
}
);
width = 727;
}
);
unicode = 358;
},
{
glyphname = Tcaron;
lastChange = "2023-02-08 10:52:54 +0000";
layers = (
{
background = {
anchors = (
{
name = top;
pos = (363,866);
}
);
shapes = (
{
closed = 1;
nodes = (
(765,625,l),
(300,625,l),
(271,465,l),
(408,465,l),
(327,0,l),
(517,0,l),
(598,465,l),
(736,465,l,{
name = hr00;
})
);
},
{
closed = 1;
nodes = (
(304,48,l),
(-128,48,l),
(296,3,l)
);
},
{
closed = 1;
nodes = (
(338,241,l),
(-94,241,l),
(330,196,l)
);
},
{
closed = 1;
nodes = (
(355,337,l),
(-77,337,l),
(347,292,l)
);
},
{
closed = 1;
nodes = (
(372,433,l),
(-60,433,l),
(364,388,l)
);
},
{
closed = 1;
nodes = (
(321,145,l),
(-111,145,l),
(313,100,l)
);
},
{
closed = 1;
nodes = (
(251,529,l),
(-180,529,l),
(244,484,l)
);
},
{
closed = 1;
nodes = (
(268,625,l),
(-163,625,l),
(260,580,l)
);
},
{
closed = 1;
nodes = (
(573,663,o),
(579,666,o),
(584,672,cs),
(716,817,l),
(668,866,l),
(569,803,l),
(491,866,l),
(425,817,l),
(508,672,ls),
(511,667,o),
(514,663,o),
(521,663,cs),
(566,663,ls,{
name = hr00;
})
);
},
{
closed = 1;
nodes = (
(388,819,l),
(10,819,l),
(411,780,l)
);
},
{
closed = 1;
nodes = (
(435,738,l),
(49,738,l),
(457,699,l)
);
}
);
};
layerId = master01;
shapes = (
{
ref = T;
},
{
pos = (363,1);
ref = caroncomb.case;
}
);
width = 727;
}
);
unicode = 356;
},
{
glyphname = Tcedilla;
lastChange = "2023-02-08 10:51:52 +0000";
layers = (
{
background = {
anchors = (
{
name = bottom;
pos = (284,-165);
}
);
shapes = (
{
closed = 1;
nodes = (
(765,625,l),
(300,625,l),
(271,465,l),
(408,465,l),
(327,0,l),
(517,0,l),
(598,465,l),
(736,465,l,{
name = hr00;
})
);
},
{
closed = 1;
nodes = (
(304,48,l),
(-128,48,l),
(296,3,l)
);
},
{
closed = 1;
nodes = (
(338,241,l),
(-94,241,l),
(330,196,l)
);
},
{
closed = 1;
nodes = (
(355,337,l),
(-77,337,l),
(347,292,l)
);
},
{
closed = 1;
nodes = (
(372,433,l),
(-60,433,l),
(364,388,l)
);
},
{
closed = 1;
nodes = (
(321,145,l),
(-111,145,l),
(313,100,l)
);
},
{
closed = 1;
nodes = (
(251,529,l),
(-180,529,l),
(244,484,l)
);
},
{
closed = 1;
nodes = (
(268,625,l),
(-163,625,l),
(260,580,l)
);
},
{
closed = 1;
nodes = (
(369,-54,o),
(363,-58,o),
(337,-58,cs),
(306,-58,l),
(280,-146,l),
(309,-158,o),
(341,-165,o),
(375,-165,cs),
(458,-165,o),
(497,-114,o),
(497,-64,cs),
(497,-29,o),
(478,5,o),
(440,21,c,{
name = hr01;
}),
(382,21,l),
(374,-26,ls)
);
},
{
closed = 1;
nodes = (
(274,-58,l,{
name = hr02;
}),
(83,-58,l),
(265,-89,l)
);
},
{
closed = 1;
nodes = (
(253,-130,l),
(70,-130,l),
(244,-161,l)
);
}
);
};
layerId = master01;
shapes = (
{
ref = T;
},
{
pos = (169,0);
ref = cedillacomb;
}
);
width = 727;
}
);
unicode = 354;
},
{
glyphname = Tcommaaccent;
lastChange = "2023-02-08 10:51:52 +0000";
layers = (
{
background = {
anchors = (
{
name = bottom;
pos = (264,-371);
}
);
shapes = (
{
closed = 1;
nodes = (
(765,625,l),
(300,625,l),
(271,465,l),
(408,465,l),
(327,0,l),
(517,0,l),
(598,465,l),
(736,465,l,{
name = hr00;
})
);
},
{
closed = 1;
nodes = (
(304,48,l),
(-128,48,l),
(296,3,l)
);
},
{
closed = 1;
nodes = (
(338,241,l),
(-94,241,l),
(330,196,l)
);
},
{
closed = 1;
nodes = (
(355,337,l),
(-77,337,l),
(347,292,l)
);
},
{
closed = 1;
nodes = (
(372,433,l),
(-60,433,l),
(364,388,l)
);
},
{
closed = 1;
nodes = (
(321,145,l),
(-111,145,l),
(313,100,l)
);
},
{
closed = 1;
nodes = (
(251,529,l),
(-180,529,l),
(244,484,l)
);
},
{
closed = 1;
nodes = (
(268,625,l),
(-163,625,l),
(260,580,l)
);
},
{
closed = 1;
nodes = (
(282,-165,o),
(281,-174,o),
(281,-182,cs),
(281,-210,o),
(293,-226,o),
(327,-232,c),
(285,-342,l),
(365,-371,l),
(439,-269,ls),
(472,-218,o),
(495,-170,o),
(495,-113,cs),
(495,-67,o),
(473,-48,o),
(407,-48,cs),
(322,-48,o),
(299,-79,o),
(284,-155,cs,{
name = hr00;
})
);
},
{
closed = 1;
nodes = (
(288,-255,l),
(266,-246,o),
(255,-222,o),
(250,-206,c),
(37,-206,l)
);
},
{
closed = 1;
nodes = (
(32,-109,l),
(254,-154,l),
(256,-136,o),
(259,-122,o),
(263,-109,c)
);
}
);
};
layerId = master01;
shapes = (
{
ref = T;
},
{
pos = (182,0);
ref = commaaccentcomb;
}
);
width = 727;
}
);
unicode = 538;
},
{
glyphname = U;
lastChange = "2023-02-08 10:52:07 +0000";
layers = (
{
anchors = (
{
name = bottom;
pos = (407,0);
},
{
name = ogonek;
pos = (561,20);
},
{
name = top;
pos = (397,625);
},
{
name = topright;
pos = (794,625);
}
);
background = {
shapes = (
{
closed = 1;
nodes = (
(246,433,l),
(-186,433,l),
(238,388,l)
);
},
{
closed = 1;
nodes = (
(229,337,l),
(-202,337,l),
(221,292,l)
);
},
{
closed = 1;
nodes = (
(280,625,l),
(-151,625,l),
(272,580,l)
);
},
{
closed = 1;
nodes = (
(255,484,l),
(263,529,l),
(-168,529,l)
);
},
{
closed = 1;
nodes = (
(-216,241,l),
(207,196,l),
(208,210,o),
(210,225,o),
(212,241,c)
);
},
{
closed = 1;
nodes = (
(-215,145,l),
(208,100,l),
(206,114,o),
(205,128,o),
(205,145,c)
);
},
{
closed = 1;
nodes = (
(-169,48,l),
(254,3,l),
(240,15,o),
(230,30,o),
(222,48,c,{
name = hr01;
})
);
},
{
closed = 1;
nodes = (
(311,625,l),
(249,274,ls),
(240,224,o),
(235,182,o),
(235,147,cs),
(235,28,o),
(292,-15,o),
(453,-15,cs),
(662,-15,o),
(721,58,o),
(759,274,cs),
(821,625,l),
(631,625,l),
(557,209,ls),
(548,160,o),
(529,156,o),
(486,156,cs),
(418,156,l),
(501,625,l)
);
}
);
};
layerId = master01;
shapes = (
{
closed = 1;
nodes = (
(662,-15,o),
(721,58,o),
(759,274,cs),
(821,625,l),
(631,625,l),
(557,209,ls),
(548,160,o),
(529,156,o),
(486,156,cs),
(418,156,l),
(501,625,l),
(311,625,l),
(249,274,ls),
(240,224,o),
(235,182,o),
(235,147,cs),
(235,28,o),
(292,-15,o),
(453,-15,cs)
);
},
{
closed = 1;
nodes = (
(240,15,o),
(230,30,o),
(222,48,c,{
name = hr01;
}),
(-169,48,l),
(254,3,l)
);
},
{
closed = 1;
nodes = (
(206,114,o),
(205,128,o),
(205,145,c),
(-215,145,l),
(208,100,l)
);
},
{
closed = 1;
nodes = (
(208,210,o),
(210,225,o),
(212,241,c),
(-216,241,l),
(207,196,l)
);
},
{
closed = 1;
nodes = (
(229,337,l),
(-202,337,l),
(221,292,l)
);
},
{
closed = 1;
nodes = (
(246,433,l),
(-186,433,l),
(238,388,l)
);
},
{
closed = 1;
nodes = (
(263,529,l),
(-168,529,l),
(255,484,l)
);
},
{
closed = 1;
nodes = (
(280,625,l),
(-151,625,l),
(272,580,l)
);
}
);
width = 814;
}
);
unicode = 85;
},
{
glyphname = Uacute;
lastChange = "2023-02-08 10:51:58 +0000";
layers = (
{
background = {
shapes = (
{
closed = 1;
nodes = (
(246,433,l),
(-186,433,l),
(238,388,l)
);
},
{
closed = 1;
nodes = (
(229,337,l),
(-202,337,l),
(221,292,l)
);
},
{
closed = 1;
nodes = (
(280,625,l),
(-151,625,l),
(272,580,l)
);
},
{
closed = 1;
nodes = (
(255,484,l),
(263,529,l),
(-168,529,l)
);
},
{
closed = 1;
nodes = (
(-216,241,l),
(207,196,l),
(208,210,o),
(210,225,o),
(212,241,c)
);
},
{
closed = 1;
nodes = (
(-215,145,l),
(208,100,l),
(206,114,o),
(205,128,o),
(205,145,c)
);
},
{
closed = 1;
nodes = (
(-169,48,l),
(254,3,l),
(240,15,o),
(230,30,o),
(222,48,c,{
name = hr01;
})
);
},
{
closed = 1;
nodes = (
(311,625,l),
(249,274,ls),
(240,224,o),
(235,182,o),
(235,147,cs),
(235,28,o),
(292,-15,o),
(453,-15,cs),
(662,-15,o),
(721,58,o),
(759,274,cs),
(821,625,l),
(631,625,l),
(557,209,ls),
(548,160,o),
(529,156,o),
(486,156,cs),
(418,156,l),
(501,625,l)
);
},
{
closed = 1;
nodes = (
(682,717,o),
(686,720,o),
(693,726,cs),
(737,764,o),
(738,765,o),
(738,765,c),
(740,768,o),
(742,771,o),
(742,776,cs),
(742,781,o),
(739,787,o),
(733,794,cs),
(670,868,ls),
(665,874,o),
(659,879,o),
(652,879,cs),
(648,879,o),
(644,877,o),
(641,875,cs),
(452,736,l),
(493,679,l),
(667,714,ls,{
name = hr02;
})
);
},
{
closed = 1;
nodes = (
(532,833,l),
(119,833,l),
(479,794,l)
);
},
{
closed = 1;
nodes = (
(421,752,l),
(8,752,l),
(368,713,l)
);
}
);
};
layerId = master01;
shapes = (
{
ref = U;
},
{
pos = (434,0);
ref = acutecomb.case;
}
);
width = 814;
}
);
unicode = 218;
},
{
glyphname = Ubreve;
lastChange = "2023-02-08 10:51:58 +0000";
layers = (
{
background = {
shapes = (
{
closed = 1;
nodes = (
(246,433,l),
(-186,433,l),
(238,388,l)
);
},
{
closed = 1;
nodes = (
(229,337,l),
(-202,337,l),
(221,292,l)
);
},
{
closed = 1;
nodes = (
(280,625,l),
(-151,625,l),
(272,580,l)
);
},
{
closed = 1;
nodes = (
(255,484,l),
(263,529,l),
(-168,529,l)
);
},
{
closed = 1;
nodes = (
(-216,241,l),
(207,196,l),
(208,210,o),
(210,225,o),
(212,241,c)
);
},
{
closed = 1;
nodes = (
(-215,145,l),
(208,100,l),
(206,114,o),
(205,128,o),
(205,145,c)
);
},
{
closed = 1;
nodes = (
(-169,48,l),
(254,3,l),
(240,15,o),
(230,30,o),
(222,48,c,{
name = hr01;
})
);
},
{
closed = 1;
nodes = (
(311,625,l),
(249,274,ls),
(240,224,o),
(235,182,o),
(235,147,cs),
(235,28,o),
(292,-15,o),
(453,-15,cs),
(662,-15,o),
(721,58,o),
(759,274,cs),
(821,625,l),
(631,625,l),
(557,209,ls),
(548,160,o),
(529,156,o),
(486,156,cs),
(418,156,l),
(501,625,l)
);
},
{
closed = 1;
nodes = (
(454,724,o),
(446,737,o),
(437,752,c),
(68,752,l),
(466,713,l,{
name = hr00;
})
);
},
{
closed = 1;
nodes = (
(40,833,l),
(426,795,l),
(423,807,o),
(420,819,o),
(418,833,c)
);
},
{
closed = 1;
nodes = (
(449,829,l),
(453,736,o),
(515,690,o),
(586,690,cs),
(658,690,o),
(737,736,o),
(774,829,c),
(676,844,l),
(661,808,o),
(631,789,o),
(604,789,cs),
(578,789,o),
(554,808,o),
(553,844,c)
);
}
);
};
layerId = master01;
shapes = (
{
ref = U;
},
{
pos = (399,0);
ref = brevecomb.case;
}
);
width = 814;
}
);
unicode = 364;
},
{
glyphname = Ucircumflex;
lastChange = "2023-02-08 10:51:58 +0000";
layers = (
{
background = {
shapes = (
{
closed = 1;
nodes = (
(246,433,l),
(-186,433,l),
(238,388,l)
);
},
{
closed = 1;
nodes = (
(229,337,l),
(-202,337,l),
(221,292,l)
);
},
{
closed = 1;
nodes = (
(280,625,l),
(-151,625,l),
(272,580,l)
);
},
{
closed = 1;
nodes = (
(255,484,l),
(263,529,l),
(-168,529,l)
);
},
{
closed = 1;
nodes = (
(-216,241,l),
(207,196,l),
(208,210,o),
(210,225,o),
(212,241,c)
);
},
{
closed = 1;
nodes = (
(-215,145,l),
(208,100,l),
(206,114,o),
(205,128,o),
(205,145,c)
);
},
{
closed = 1;
nodes = (
(-169,48,l),
(254,3,l),
(240,15,o),
(230,30,o),
(222,48,c,{
name = hr01;
})
);
},
{
closed = 1;
nodes = (
(311,625,l),
(249,274,ls),
(240,224,o),
(235,182,o),
(235,147,cs),
(235,28,o),
(292,-15,o),
(453,-15,cs),
(662,-15,o),
(721,58,o),
(759,274,cs),
(821,625,l),
(631,625,l),
(557,209,ls),
(548,160,o),
(529,156,o),
(486,156,cs),
(418,156,l),
(501,625,l)
);
},
{
closed = 1;
nodes = (
(575,880,o),
(569,877,o),
(564,871,cs),
(432,726,l),
(480,677,l),
(579,740,l),
(657,677,l),
(723,726,l),
(640,871,ls),
(637,876,o),
(634,880,o),
(627,880,cs),
(582,880,ls,{
name = hr02;
})
);
},
{
closed = 1;
nodes = (
(488,833,l),
(130,833,l),
(453,794,l)
);
},
{
closed = 1;
nodes = (
(415,752,l),
(49,752,l),
(379,713,l)
);
}
);
};
layerId = master01;
shapes = (
{
ref = U;
},
{
pos = (403,0);
ref = circumflexcomb.case;
}
);
width = 814;
}
);
unicode = 219;
},
{
glyphname = Udieresis;
lastChange = "2023-02-08 10:51:58 +0000";
layers = (
{
background = {
shapes = (
{
closed = 1;
nodes = (
(246,433,l),
(-186,433,l),
(238,388,l)
);
},
{
closed = 1;
nodes = (
(229,337,l),
(-202,337,l),
(221,292,l)
);
},
{
closed = 1;
nodes = (
(280,625,l),
(-151,625,l),
(272,580,l)
);
},
{
closed = 1;
nodes = (
(255,484,l),
(263,529,l),
(-168,529,l)
);
},
{
closed = 1;
nodes = (
(-216,241,l),
(207,196,l),
(208,210,o),
(210,225,o),
(212,241,c)
);
},
{
closed = 1;
nodes = (
(-215,145,l),
(208,100,l),
(206,114,o),
(205,128,o),
(205,145,c)
);
},
{
closed = 1;
nodes = (
(-169,48,l),
(254,3,l),
(240,15,o),
(230,30,o),
(222,48,c,{
name = hr01;
})
);
},
{
closed = 1;
nodes = (
(311,625,l),
(249,274,ls),
(240,224,o),
(235,182,o),
(235,147,cs),
(235,28,o),
(292,-15,o),
(453,-15,cs),
(662,-15,o),
(721,58,o),
(759,274,cs),
(821,625,l),
(631,625,l),
(557,209,ls),
(548,160,o),
(529,156,o),
(486,156,cs),
(418,156,l),
(501,625,l)
);
},
{
closed = 1;
nodes = (
(643,848,o),
(618,819,o),
(618,740,cs),
(618,706,o),
(634,692,o),
(682,692,cs),
(748,692,o),
(773,721,o),
(773,800,cs),
(773,834,o),
(757,848,o),
(709,848,cs,{
name = hr02;
})
);
},
{
closed = 1;
nodes = (
(435,848,o),
(410,819,o),
(410,740,cs),
(410,706,o),
(426,692,o),
(474,692,cs),
(539,692,o),
(565,721,o),
(565,800,cs),
(565,834,o),
(548,848,o),
(501,848,cs)
);
},
{
closed = 1;
nodes = (
(81,833,l),
(383,787,l),
(386,805,o),
(390,820,o),
(397,833,c,{
name = hr03;
})
);
},
{
closed = 1;
nodes = (
(380,754,l,{
name = hr04;
}),
(81,754,l),
(383,708,l),
(381,717,o),
(380,728,o),
(380,740,c)
);
}
);
};
layerId = master01;
shapes = (
{
ref = U;
},
{
pos = (356,0);
ref = dieresiscomb.case;
}
);
width = 814;
}
);
unicode = 220;
},
{
glyphname = Ugrave;
lastChange = "2023-02-08 10:51:58 +0000";
layers = (
{
background = {
shapes = (
{
closed = 1;
nodes = (
(246,433,l),
(-186,433,l),
(238,388,l)
);
},
{
closed = 1;
nodes = (
(229,337,l),
(-202,337,l),
(221,292,l)
);
},
{
closed = 1;
nodes = (
(280,625,l),
(-151,625,l),
(272,580,l)
);
},
{
closed = 1;
nodes = (
(255,484,l),
(263,529,l),
(-168,529,l)
);
},
{
closed = 1;
nodes = (
(-216,241,l),
(207,196,l),
(208,210,o),
(210,225,o),
(212,241,c)
);
},
{
closed = 1;
nodes = (
(-215,145,l),
(208,100,l),
(206,114,o),
(205,128,o),
(205,145,c)
);
},
{
closed = 1;
nodes = (
(-169,48,l),
(254,3,l),
(240,15,o),
(230,30,o),
(222,48,c,{
name = hr01;
})
);
},
{
closed = 1;
nodes = (
(311,625,l),
(249,274,ls),
(240,224,o),
(235,182,o),
(235,147,cs),
(235,28,o),
(292,-15,o),
(453,-15,cs),
(662,-15,o),
(721,58,o),
(759,274,cs),
(821,625,l),
(631,625,l),
(557,209,ls),
(548,160,o),
(529,156,o),
(486,156,cs),
(418,156,l),
(501,625,l)
);
},
{
closed = 1;
nodes = (
(713,736,l),
(524,875,ls),
(521,877,o),
(517,879,o),
(513,879,cs),
(506,879,o),
(500,874,o),
(495,868,cs),
(432,794,ls),
(427,788,o),
(423,781,o),
(423,775,cs),
(423,772,o),
(424,768,o),
(427,765,cs),
(472,726,ls),
(479,720,o),
(483,717,o),
(498,714,cs),
(672,679,l,{
name = hr02;
})
);
},
{
closed = 1;
nodes = (
(404,810,o),
(416,820,o),
(426,833,c),
(2,833,l),
(397,794,l)
);
},
{
closed = 1;
nodes = (
(413,736,o),
(405,743,o),
(399,752,c),
(32,752,l),
(440,713,l)
);
}
);
};
layerId = master01;
shapes = (
{
ref = U;
},
{
pos = (473,0);
ref = gravecomb.case;
}
);
width = 814;
}
);
unicode = 217;
},
{
glyphname = Uhungarumlaut;
lastChange = "2023-02-08 10:51:58 +0000";
layers = (
{
background = {
anchors = (
{
name = top;
pos = (407,867);
}
);
shapes = (
{
closed = 1;
nodes = (
(246,433,l),
(-186,433,l),
(238,388,l)
);
},
{
closed = 1;
nodes = (
(229,337,l),
(-202,337,l),
(221,292,l)
);
},
{
closed = 1;
nodes = (
(280,625,l),
(-151,625,l),
(272,580,l)
);
},
{
closed = 1;
nodes = (
(255,484,l),
(263,529,l),
(-168,529,l)
);
},
{
closed = 1;
nodes = (
(-216,241,l),
(207,196,l),
(208,210,o),
(210,225,o),
(212,241,c)
);
},
{
closed = 1;
nodes = (
(-215,145,l),
(208,100,l),
(206,114,o),
(205,128,o),
(205,145,c)
);
},
{
closed = 1;
nodes = (
(-169,48,l),
(254,3,l),
(240,15,o),
(230,30,o),
(222,48,c,{
name = hr01;
})
);
},
{
closed = 1;
nodes = (
(311,625,l),
(249,274,ls),
(240,224,o),
(235,182,o),
(235,147,cs),
(235,28,o),
(292,-15,o),
(453,-15,cs),
(662,-15,o),
(721,58,o),
(759,274,cs),
(821,625,l),
(631,625,l),
(557,209,ls),
(548,160,o),
(529,156,o),
(486,156,cs),
(418,156,l),
(501,625,l)
);
},
{
closed = 1;
nodes = (
(539,692,ls),
(559,698,o),
(568,704,o),
(572,708,cs),
(613,746,ls),
(618,751,o),
(622,757,o),
(622,763,cs),
(622,768,o),
(620,775,o),
(615,781,cs),
(552,855,l),
(544,863,o),
(539,867,o),
(534,867,cs),
(529,866,o),
(524,862,o),
(518,855,cs),
(378,715,l),
(418,656,l,{
name = hr00;
})
);
},
{
closed = 1;
nodes = (
(802,692,ls),
(822,698,o),
(831,704,o),
(835,708,cs),
(876,746,ls),
(881,751,o),
(885,757,o),
(885,763,cs),
(885,768,o),
(883,775,o),
(878,781,cs),
(815,855,l),
(807,863,o),
(802,867,o),
(797,867,cs),
(792,866,o),
(787,862,o),
(781,855,cs),
(641,715,l),
(681,656,l)
);
},
{
closed = 1;
nodes = (
(435,819,l),
(39,819,l),
(396,780,l)
);
},
{
closed = 1;
nodes = (
(354,738,l),
(-72,738,l),
(315,699,l)
);
}
);
};
layerId = master01;
shapes = (
{
ref = U;
},
{
pos = (370,-13);
ref = hungarumlautcomb.case;
}
);
width = 814;
}
);
unicode = 368;
},
{
glyphname = Umacron;
lastChange = "2023-02-08 10:51:58 +0000";
layers = (
{
background = {
shapes = (
{
closed = 1;
nodes = (
(246,433,l),
(-186,433,l),
(238,388,l)
);
},
{
closed = 1;
nodes = (
(229,337,l),
(-202,337,l),
(221,292,l)
);
},
{
closed = 1;
nodes = (
(280,625,l),
(-151,625,l),
(272,580,l)
);
},
{
closed = 1;
nodes = (
(255,484,l),
(263,529,l),
(-168,529,l)
);
},
{
closed = 1;
nodes = (
(-216,241,l),
(207,196,l),
(208,210,o),
(210,225,o),
(212,241,c)
);
},
{
closed = 1;
nodes = (
(-215,145,l),
(208,100,l),
(206,114,o),
(205,128,o),
(205,145,c)
);
},
{
closed = 1;
nodes = (
(-169,48,l),
(254,3,l),
(240,15,o),
(230,30,o),
(222,48,c,{
name = hr01;
})
);
},
{
closed = 1;
nodes = (
(311,625,l),
(249,274,ls),
(240,224,o),
(235,182,o),
(235,147,cs),
(235,28,o),
(292,-15,o),
(453,-15,cs),
(662,-15,o),
(721,58,o),
(759,274,cs),
(821,625,l),
(631,625,l),
(557,209,ls),
(548,160,o),
(529,156,o),
(486,156,cs),
(418,156,l),
(501,625,l)
);
},
{
closed = 1;
nodes = (
(743,770,ls),
(745,784,o),
(747,796,o),
(747,804,cs),
(747,826,o),
(737,833,o),
(704,833,cs),
(469,833,l),
(458,770,ls),
(455,756,o),
(454,745,o),
(454,737,cs),
(454,714,o),
(465,706,o),
(498,706,cs),
(732,706,l,{
name = hr00;
})
);
},
{
closed = 1;
nodes = (
(438,833,l),
(71,833,l),
(431,794,l)
);
},
{
closed = 1;
nodes = (
(425,719,o),
(424,729,o),
(424,738,cs),
(424,743,o),
(424,748,o),
(425,752,c),
(67,752,l),
(427,711,l)
);
}
);
};
layerId = master01;
shapes = (
{
ref = U;
},
{
pos = (387,0);
ref = macroncomb.case;
}
);
width = 814;
}
);
unicode = 362;
},
{
glyphname = Uogonek;
lastChange = "2023-02-08 10:52:07 +0000";
layers = (
{
background = {
shapes = (
{
closed = 1;
nodes = (
(246,433,l),
(-186,433,l),
(238,388,l)
);
},
{
closed = 1;
nodes = (
(229,337,l),
(-202,337,l),
(221,292,l)
);
},
{
closed = 1;
nodes = (
(280,625,l),
(-151,625,l),
(272,580,l)
);
},
{
closed = 1;
nodes = (
(255,484,l),
(263,529,l),
(-168,529,l)
);
},
{
closed = 1;
nodes = (
(-216,241,l),
(207,196,l),
(208,210,o),
(210,225,o),
(212,241,c)
);
},
{
closed = 1;
nodes = (
(-215,145,l),
(208,100,l),
(206,114,o),
(205,128,o),
(205,145,c)
);
},
{
closed = 1;
nodes = (
(-169,48,l),
(254,3,l),
(240,15,o),
(230,30,o),
(222,48,c,{
name = hr01;
})
);
},
{
closed = 1;
nodes = (
(311,625,l),
(249,274,ls),
(240,224,o),
(235,182,o),
(235,147,cs),
(235,28,o),
(292,-15,o),
(453,-15,cs),
(662,-15,o),
(721,58,o),
(759,274,cs),
(821,625,l),
(631,625,l),
(557,209,ls),
(548,160,o),
(529,156,o),
(486,156,cs),
(418,156,l),
(501,625,l)
);
},
{
closed = 1;
nodes = (
(455,21,l),
(396,-6,o),
(361,-50,o),
(361,-96,cs),
(361,-134,o),
(389,-165,o),
(454,-165,cs),
(481,-165,o),
(521,-160,o),
(557,-146,c),
(562,-58,l,{
name = hr01;
}),
(515,-58,ls),
(495,-58,o),
(488,-56,o),
(488,-42,cs),
(488,-38,o),
(489,-33,o),
(490,-26,c,{
name = hr02;
}),
(546,0,l),
(531,21,l)
);
},
{
closed = 1;
nodes = (
(331,-78,o),
(334,-68,o),
(337,-58,c,{
name = hr03;
}),
(149,-58,l),
(331,-89,l)
);
},
{
closed = 1;
nodes = (
(346,-152,o),
(340,-141,o),
(336,-130,c),
(181,-130,l),
(355,-161,l)
);
}
);
};
layerId = master01;
shapes = (
{
ref = U;
},
{
pos = (219,-1);
ref = ogonekcomb;
}
);
width = 814;
}
);
unicode = 370;
},
{
glyphname = Uring;
lastChange = "2023-02-08 10:51:58 +0000";
layers = (
{
background = {
anchors = (
{
name = top;
pos = (407,884);
}
);
shapes = (
{
closed = 1;
nodes = (
(246,433,l),
(-186,433,l),
(238,388,l)
);
},
{
closed = 1;
nodes = (
(229,337,l),
(-202,337,l),
(221,292,l)
);
},
{
closed = 1;
nodes = (
(280,625,l),
(-151,625,l),
(272,580,l)
);
},
{
closed = 1;
nodes = (
(255,484,l),
(263,529,l),
(-168,529,l)
);
},
{
closed = 1;
nodes = (
(-216,241,l),
(207,196,l),
(208,210,o),
(210,225,o),
(212,241,c)
);
},
{
closed = 1;
nodes = (
(-215,145,l),
(208,100,l),
(206,114,o),
(205,128,o),
(205,145,c)
);
},
{
closed = 1;
nodes = (
(-169,48,l),
(254,3,l),
(240,15,o),
(230,30,o),
(222,48,c,{
name = hr01;
})
);
},
{
closed = 1;
nodes = (
(311,625,l),
(249,274,ls),
(240,224,o),
(235,182,o),
(235,147,cs),
(235,28,o),
(292,-15,o),
(453,-15,cs),
(662,-15,o),
(721,58,o),
(759,274,cs),
(821,625,l),
(631,625,l),
(557,209,ls),
(548,160,o),
(529,156,o),
(486,156,cs),
(418,156,l),
(501,625,l)
);
},
{
closed = 1;
nodes = (
(537,814,o),
(555,815,o),
(580,815,cs),
(617,815,l),
(605,748,ls),
(600,723,o),
(585,722,o),
(561,722,cs),
(521,722,l),
(533,790,ls)
);
},
{
closed = 1;
nodes = (
(505,884,o),
(456,833,o),
(456,733,cs),
(456,680,o),
(483,653,o),
(549,653,cs),
(634,653,o),
(683,704,o),
(683,804,cs),
(683,857,o),
(656,884,o),
(590,884,cs)
);
},
{
closed = 1;
nodes = (
(431,789,o),
(435,805,o),
(439,819,c,{
name = hr01;
}),
(131,819,l),
(429,773,l)
);
},
{
closed = 1;
nodes = (
(426,740,l,{
name = hr02;
}),
(133,740,l),
(431,694,l),
(428,705,o),
(426,718,o),
(426,733,c)
);
}
);
};
layerId = master01;
shapes = (
{
ref = U;
},
{
pos = (457,0);
ref = ringcomb.case;
}
);
width = 814;
}
);
unicode = 366;
},
{
glyphname = Utilde;
lastChange = "2023-02-08 10:51:58 +0000";
layers = (
{
background = {
shapes = (
{
closed = 1;
nodes = (
(246,433,l),
(-186,433,l),
(238,388,l)
);
},
{
closed = 1;
nodes = (
(229,337,l),
(-202,337,l),
(221,292,l)
);
},
{
closed = 1;
nodes = (
(280,625,l),
(-151,625,l),
(272,580,l)
);
},
{
closed = 1;
nodes = (
(255,484,l),
(263,529,l),
(-168,529,l)
);
},
{
closed = 1;
nodes = (
(-216,241,l),
(207,196,l),
(208,210,o),
(210,225,o),
(212,241,c)
);
},
{
closed = 1;
nodes = (
(-215,145,l),
(208,100,l),
(206,114,o),
(205,128,o),
(205,145,c)
);
},
{
closed = 1;
nodes = (
(-169,48,l),
(254,3,l),
(240,15,o),
(230,30,o),
(222,48,c,{
name = hr01;
})
);
},
{
closed = 1;
nodes = (
(311,625,l),
(249,274,ls),
(240,224,o),
(235,182,o),
(235,147,cs),
(235,28,o),
(292,-15,o),
(453,-15,cs),
(662,-15,o),
(721,58,o),
(759,274,cs),
(821,625,l),
(631,625,l),
(557,209,ls),
(548,160,o),
(529,156,o),
(486,156,cs),
(418,156,l),
(501,625,l)
);
},
{
closed = 1;
nodes = (
(606,839,o),
(589,861,o),
(557,861,cs),
(525,861,o),
(519,854,o),
(383,769,c),
(417,688,l),
(502,728,l),
(528,705,o),
(545,683,o),
(577,683,cs),
(609,683,o),
(615,690,o),
(751,775,c),
(718,856,l),
(632,816,l,{
name = hr00;
})
);
},
{
closed = 1;
nodes = (
(63,833,l),
(357,787,l),
(429,833,l)
);
},
{
closed = 1;
nodes = (
(63,754,l),
(376,708,l),
(357,754,l)
);
}
);
};
layerId = master01;
shapes = (
{
ref = U;
},
{
pos = (341,0);
ref = tildecomb.case;
}
);
width = 814;
}
);
unicode = 360;
},
{
glyphname = V;
lastChange = "2023-02-08 10:37:52 +0000";
layers = (
{
anchors = (
{
name = bottom;
pos = (397,0);
},
{
name = top;
pos = (397,625);
}
);
background = {
shapes = (
{
closed = 1;
nodes = (
(278,3,l),
(275,48,l),
(-146,48,l)
);
},
{
closed = 1;
nodes = (
(272,100,l),
(269,145,l),
(-152,145,l)
);
},
{
closed = 1;
nodes = (
(249,484,l),
(246,529,l),
(-175,529,l)
);
},
{
closed = 1;
nodes = (
(254,388,l),
(252,433,l),
(-169,433,l)
);
},
{
closed = 1;
nodes = (
(243,580,l),
(241,625,l),
(-180,625,l)
);
},
{
closed = 1;
nodes = (
(260,292,l),
(257,337,l),
(-163,337,l)
);
},
{
closed = 1;
nodes = (
(266,196,l),
(263,241,l),
(-157,241,l)
);
},
{
closed = 1;
nodes = (
(491,228,l),
(482,228,l,{
name = hr01;
}),
(482,625,l),
(271,625,l),
(308,0,l),
(586,0,l),
(843,625,l),
(642,625,l)
);
}
);
};
layerId = master01;
shapes = (
{
closed = 1;
nodes = (
(586,0,l),
(843,625,l),
(642,625,l),
(491,228,l),
(482,228,l,{
name = hr01;
}),
(482,625,l),
(271,625,l),
(308,0,l)
);
},
{
closed = 1;
nodes = (
(275,48,l),
(-146,48,l),
(278,3,l)
);
},
{
closed = 1;
nodes = (
(269,145,l),
(-152,145,l),
(272,100,l)
);
},
{
closed = 1;
nodes = (
(263,241,l),
(-157,241,l),
(266,196,l)
);
},
{
closed = 1;
nodes = (
(257,337,l),
(-163,337,l),
(260,292,l)
);
},
{
closed = 1;
nodes = (
(252,433,l),
(-169,433,l),
(254,388,l)
);
},
{
closed = 1;
nodes = (
(246,529,l),
(-175,529,l),
(249,484,l)
);
},
{
closed = 1;
nodes = (
(241,625,l),
(-180,625,l),
(243,580,l)
);
}
);
width = 793;
}
);
unicode = 86;
},
{
glyphname = W;
lastChange = "2023-02-08 10:52:16 +0000";
layers = (
{
anchors = (
{
name = bottom;
pos = (497,0);
},
{
name = top;
pos = (467,625);
}
);
background = {
shapes = (
{
closed = 1;
nodes = (
(223,625,l),
(-170,625,l),
(223,580,l,{
name = hr00;
})
);
},
{
closed = 1;
nodes = (
(223,529,l),
(-170,529,l),
(223,484,l)
);
},
{
closed = 1;
nodes = (
(223,433,l),
(-170,433,l),
(223,388,l)
);
},
{
closed = 1;
nodes = (
(223,337,l),
(-170,337,l),
(223,292,l)
);
},
{
closed = 1;
nodes = (
(223,241,l),
(-170,241,l),
(223,196,l)
);
},
{
closed = 1;
nodes = (
(223,145,l),
(-170,145,l),
(223,100,l)
);
},
{
closed = 1;
nodes = (
(223,48,l),
(-170,48,l),
(223,3,l)
);
},
{
closed = 1;
nodes = (
(727,276,l),
(721,276,l),
(721,625,l),
(570,625,l),
(440,276,l),
(434,276,l),
(452,625,l),
(253,625,l),
(253,0,l),
(484,0,l),
(567,230,l),
(578,230,l),
(578,0,l),
(830,0,l),
(1033,625,l),
(834,625,l)
);
}
);
};
layerId = master01;
shapes = (
{
closed = 1;
nodes = (
(484,0,l),
(567,230,l),
(578,230,l),
(578,0,l),
(830,0,l),
(1033,625,l),
(834,625,l),
(727,276,l),
(721,276,l),
(721,625,l),
(570,625,l),
(440,276,l),
(434,276,l),
(452,625,l),
(253,625,l),
(253,0,l)
);
},
{
closed = 1;
nodes = (
(223,48,l),
(-170,48,l),
(223,3,l)
);
},
{
closed = 1;
nodes = (
(223,145,l),
(-170,145,l),
(223,100,l)
);
},
{
closed = 1;
nodes = (
(223,241,l),
(-170,241,l),
(223,196,l)
);
},
{
closed = 1;
nodes = (
(223,337,l),
(-170,337,l),
(223,292,l)
);
},
{
closed = 1;
nodes = (
(223,433,l),
(-170,433,l),
(223,388,l)
);
},
{
closed = 1;
nodes = (
(223,529,l),
(-170,529,l),
(223,484,l)
);
},
{
closed = 1;
nodes = (
(223,625,l),
(-170,625,l),
(223,580,l,{
name = hr00;
})
);
}
);
width = 993;
}
);
unicode = 87;
},
{
glyphname = Wacute;
lastChange = "2023-02-08 10:52:16 +0000";
layers = (
{
background = {
shapes = (
{
closed = 1;
nodes = (
(223,625,l),
(-170,625,l),
(223,580,l,{
name = hr00;
})
);
},
{
closed = 1;
nodes = (
(223,529,l),
(-170,529,l),
(223,484,l)
);
},
{
closed = 1;
nodes = (
(223,433,l),
(-170,433,l),
(223,388,l)
);
},
{
closed = 1;
nodes = (
(223,337,l),
(-170,337,l),
(223,292,l)
);
},
{
closed = 1;
nodes = (
(223,241,l),
(-170,241,l),
(223,196,l)
);
},
{
closed = 1;
nodes = (
(223,145,l),
(-170,145,l),
(223,100,l)
);
},
{
closed = 1;
nodes = (
(223,48,l),
(-170,48,l),
(223,3,l)
);
},
{
closed = 1;
nodes = (
(727,276,l),
(721,276,l),
(721,625,l),
(570,625,l),
(440,276,l),
(434,276,l),
(452,625,l),
(253,625,l),
(253,0,l),
(484,0,l),
(567,230,l),
(578,230,l),
(578,0,l),
(830,0,l),
(1033,625,l),
(834,625,l)
);
},
{
closed = 1;
nodes = (
(773,717,o),
(777,720,o),
(784,726,cs),
(828,764,o),
(829,765,o),
(829,765,c),
(831,768,o),
(833,771,o),
(833,776,cs),
(833,781,o),
(830,787,o),
(824,794,cs),
(761,868,ls),
(756,874,o),
(750,879,o),
(743,879,cs),
(739,879,o),
(735,877,o),
(732,875,cs),
(543,736,l),
(584,679,l),
(758,714,ls,{
name = hr00;
})
);
},
{
closed = 1;
nodes = (
(623,833,l),
(210,833,l),
(570,794,l)
);
},
{
closed = 1;
nodes = (
(512,752,l),
(99,752,l),
(459,713,l)
);
}
);
};
layerId = master01;
shapes = (
{
ref = W;
},
{
pos = (504,0);
ref = acutecomb.case;
}
);
width = 993;
}
);
unicode = 7810;
},
{
glyphname = Wcircumflex;
lastChange = "2023-02-08 10:52:16 +0000";
layers = (
{
background = {
shapes = (
{
closed = 1;
nodes = (
(223,625,l),
(-170,625,l),
(223,580,l,{
name = hr00;
})
);
},
{
closed = 1;
nodes = (
(223,529,l),
(-170,529,l),
(223,484,l)
);
},
{
closed = 1;
nodes = (
(223,433,l),
(-170,433,l),
(223,388,l)
);
},
{
closed = 1;
nodes = (
(223,337,l),
(-170,337,l),
(223,292,l)
);
},
{
closed = 1;
nodes = (
(223,241,l),
(-170,241,l),
(223,196,l)
);
},
{
closed = 1;
nodes = (
(223,145,l),
(-170,145,l),
(223,100,l)
);
},
{
closed = 1;
nodes = (
(223,48,l),
(-170,48,l),
(223,3,l)
);
},
{
closed = 1;
nodes = (
(727,276,l),
(721,276,l),
(721,625,l),
(570,625,l),
(440,276,l),
(434,276,l),
(452,625,l),
(253,625,l),
(253,0,l),
(484,0,l),
(567,230,l),
(578,230,l),
(578,0,l),
(830,0,l),
(1033,625,l),
(834,625,l)
);
},
{
closed = 1;
nodes = (
(655,880,o),
(649,877,o),
(644,871,cs),
(512,726,l),
(560,677,l),
(659,740,l),
(737,677,l),
(803,726,l),
(720,871,ls),
(717,876,o),
(714,880,o),
(707,880,cs),
(662,880,ls,{
name = hr00;
})
);
},
{
closed = 1;
nodes = (
(568,833,l),
(210,833,l),
(533,794,l)
);
},
{
closed = 1;
nodes = (
(495,752,l),
(129,752,l),
(459,713,l)
);
}
);
};
layerId = master01;
shapes = (
{
ref = W;
},
{
pos = (473,0);
ref = circumflexcomb.case;
}
);
width = 993;
}
);
unicode = 372;
},
{
glyphname = Wdieresis;
lastChange = "2023-02-08 10:52:16 +0000";
layers = (
{
background = {
shapes = (
{
closed = 1;
nodes = (
(223,625,l),
(-170,625,l),
(223,580,l,{
name = hr00;
})
);
},
{
closed = 1;
nodes = (
(223,529,l),
(-170,529,l),
(223,484,l)
);
},
{
closed = 1;
nodes = (
(223,433,l),
(-170,433,l),
(223,388,l)
);
},
{
closed = 1;
nodes = (
(223,337,l),
(-170,337,l),
(223,292,l)
);
},
{
closed = 1;
nodes = (
(223,241,l),
(-170,241,l),
(223,196,l)
);
},
{
closed = 1;
nodes = (
(223,145,l),
(-170,145,l),
(223,100,l)
);
},
{
closed = 1;
nodes = (
(223,48,l),
(-170,48,l),
(223,3,l)
);
},
{
closed = 1;
nodes = (
(727,276,l),
(721,276,l),
(721,625,l),
(570,625,l),
(440,276,l),
(434,276,l),
(452,625,l),
(253,625,l),
(253,0,l),
(484,0,l),
(567,230,l),
(578,230,l),
(578,0,l),
(830,0,l),
(1033,625,l),
(834,625,l)
);
},
{
closed = 1;
nodes = (
(712,848,o),
(687,819,o),
(687,740,cs),
(687,706,o),
(703,692,o),
(751,692,cs),
(817,692,o),
(842,721,o),
(842,800,cs),
(842,834,o),
(826,848,o),
(778,848,cs)
);
},
{
closed = 1;
nodes = (
(504,848,o),
(479,819,o),
(479,740,cs),
(479,706,o),
(495,692,o),
(543,692,cs),
(608,692,o),
(634,721,o),
(634,800,cs),
(634,834,o),
(617,848,o),
(570,848,cs)
);
},
{
closed = 1;
nodes = (
(150,833,l),
(452,787,l),
(455,805,o),
(459,820,o),
(466,833,c,{
name = hr01;
})
);
},
{
closed = 1;
nodes = (
(449,754,l,{
name = hr02;
}),
(150,754,l),
(452,708,l),
(450,717,o),
(449,728,o),
(449,740,c)
);
}
);
};
layerId = master01;
shapes = (
{
ref = W;
},
{
pos = (426,0);
ref = dieresiscomb.case;
}
);
width = 993;
}
);
unicode = 7812;
},
